%TF.GenerationSoftware,KiCad,Pcbnew,9.0.2*%
%TF.CreationDate,2025-11-28T18:19:18-08:00*%
%TF.ProjectId,BLE_Lamp,424c455f-4c61-46d7-902e-6b696361645f,rev?*%
%TF.SameCoordinates,Original*%
%TF.FileFunction,Paste,Top*%
%TF.FilePolarity,Positive*%
%FSLAX46Y46*%
G04 Gerber Fmt 4.6, Leading zero omitted, Abs format (unit mm)*
G04 Created by KiCad (PCBNEW 9.0.2) date 2025-11-28 18:19:18*
%MOMM*%
%LPD*%
G01*
G04 APERTURE LIST*
G04 Aperture macros list*
%AMRoundRect*
0 Rectangle with rounded corners*
0 $1 Rounding radius*
0 $2 $3 $4 $5 $6 $7 $8 $9 X,Y pos of 4 corners*
0 Add a 4 corners polygon primitive as box body*
4,1,4,$2,$3,$4,$5,$6,$7,$8,$9,$2,$3,0*
0 Add four circle primitives for the rounded corners*
1,1,$1+$1,$2,$3*
1,1,$1+$1,$4,$5*
1,1,$1+$1,$6,$7*
1,1,$1+$1,$8,$9*
0 Add four rect primitives between the rounded corners*
20,1,$1+$1,$2,$3,$4,$5,0*
20,1,$1+$1,$4,$5,$6,$7,0*
20,1,$1+$1,$6,$7,$8,$9,0*
20,1,$1+$1,$8,$9,$2,$3,0*%
G04 Aperture macros list end*
%ADD10RoundRect,0.237500X-0.250000X-0.237500X0.250000X-0.237500X0.250000X0.237500X-0.250000X0.237500X0*%
%ADD11RoundRect,0.200000X-0.750000X-0.200000X0.750000X-0.200000X0.750000X0.200000X-0.750000X0.200000X0*%
%ADD12RoundRect,0.237500X0.250000X0.237500X-0.250000X0.237500X-0.250000X-0.237500X0.250000X-0.237500X0*%
%ADD13RoundRect,0.250000X-0.350000X-0.450000X0.350000X-0.450000X0.350000X0.450000X-0.350000X0.450000X0*%
%ADD14RoundRect,0.237500X-0.287500X-0.237500X0.287500X-0.237500X0.287500X0.237500X-0.287500X0.237500X0*%
%ADD15RoundRect,0.237500X0.237500X-0.300000X0.237500X0.300000X-0.237500X0.300000X-0.237500X-0.300000X0*%
%ADD16RoundRect,0.250000X0.350000X0.450000X-0.350000X0.450000X-0.350000X-0.450000X0.350000X-0.450000X0*%
%ADD17RoundRect,0.250000X-0.300000X0.300000X-0.300000X-0.300000X0.300000X-0.300000X0.300000X0.300000X0*%
%ADD18RoundRect,0.200000X0.750000X0.200000X-0.750000X0.200000X-0.750000X-0.200000X0.750000X-0.200000X0*%
%ADD19RoundRect,0.237500X0.300000X0.237500X-0.300000X0.237500X-0.300000X-0.237500X0.300000X-0.237500X0*%
%ADD20RoundRect,0.250000X0.400000X0.625000X-0.400000X0.625000X-0.400000X-0.625000X0.400000X-0.625000X0*%
%ADD21RoundRect,0.250000X0.650000X-1.000000X0.650000X1.000000X-0.650000X1.000000X-0.650000X-1.000000X0*%
%ADD22RoundRect,0.250000X0.450000X-0.350000X0.450000X0.350000X-0.450000X0.350000X-0.450000X-0.350000X0*%
%ADD23RoundRect,0.225000X-0.375000X0.225000X-0.375000X-0.225000X0.375000X-0.225000X0.375000X0.225000X0*%
%ADD24RoundRect,0.250000X-0.400000X-0.625000X0.400000X-0.625000X0.400000X0.625000X-0.400000X0.625000X0*%
%ADD25RoundRect,0.225000X0.225000X0.375000X-0.225000X0.375000X-0.225000X-0.375000X0.225000X-0.375000X0*%
%ADD26RoundRect,0.250000X0.337500X0.475000X-0.337500X0.475000X-0.337500X-0.475000X0.337500X-0.475000X0*%
%ADD27R,1.050000X1.875000*%
%ADD28RoundRect,0.150000X-0.825000X-0.150000X0.825000X-0.150000X0.825000X0.150000X-0.825000X0.150000X0*%
G04 APERTURE END LIST*
D10*
%TO.C,R4*%
X196699500Y-81763349D03*
X198524500Y-81763349D03*
%TD*%
D11*
%TO.C,Q3*%
X203502000Y-75098349D03*
X203502000Y-76998349D03*
X206502000Y-76048349D03*
%TD*%
D12*
%TO.C,R7*%
X186459500Y-92456000D03*
X184634500Y-92456000D03*
%TD*%
D13*
%TO.C,R19*%
X120682000Y-94615000D03*
X122682000Y-94615000D03*
%TD*%
D10*
%TO.C,R8*%
X208901500Y-91440000D03*
X210726500Y-91440000D03*
%TD*%
D14*
%TO.C,D1*%
X208802000Y-78588349D03*
X210552000Y-78588349D03*
%TD*%
D15*
%TO.C,C2*%
X198882000Y-102564849D03*
X198882000Y-100839849D03*
%TD*%
D11*
%TO.C,Q2*%
X191437000Y-80493349D03*
X191437000Y-82393349D03*
X194437000Y-81443349D03*
%TD*%
D16*
%TO.C,R15*%
X144078200Y-104927400D03*
X142078200Y-104927400D03*
%TD*%
D17*
%TO.C,D3*%
X164846000Y-92072000D03*
X164846000Y-94872000D03*
%TD*%
D18*
%TO.C,Q6*%
X166596000Y-104648000D03*
X166596000Y-102748000D03*
X163596000Y-103698000D03*
%TD*%
D10*
%TO.C,R2*%
X196699500Y-78842349D03*
X198524500Y-78842349D03*
%TD*%
D19*
%TO.C,C3*%
X210676500Y-93218000D03*
X208951500Y-93218000D03*
%TD*%
D11*
%TO.C,Q4*%
X201216000Y-80432349D03*
X201216000Y-82332349D03*
X204216000Y-81382349D03*
%TD*%
D20*
%TO.C,R13*%
X129185000Y-107442000D03*
X126085000Y-107442000D03*
%TD*%
D21*
%TO.C,D8*%
X136652000Y-125698000D03*
X136652000Y-121698000D03*
%TD*%
D10*
%TO.C,R6*%
X208764500Y-75093149D03*
X210589500Y-75093149D03*
%TD*%
D22*
%TO.C,R14*%
X121666000Y-104378000D03*
X121666000Y-102378000D03*
%TD*%
D11*
%TO.C,Q5*%
X207137000Y-80493349D03*
X207137000Y-82393349D03*
X210137000Y-81443349D03*
%TD*%
D23*
%TO.C,D6*%
X121666000Y-106300000D03*
X121666000Y-109600000D03*
%TD*%
D16*
%TO.C,R18*%
X126831600Y-99923600D03*
X124831600Y-99923600D03*
%TD*%
D10*
%TO.C,R5*%
X208750500Y-76810349D03*
X210575500Y-76810349D03*
%TD*%
%TO.C,R1*%
X196676000Y-77064349D03*
X198501000Y-77064349D03*
%TD*%
D16*
%TO.C,R20*%
X126822200Y-97307400D03*
X124822200Y-97307400D03*
%TD*%
D24*
%TO.C,R12*%
X129260000Y-94996000D03*
X132360000Y-94996000D03*
%TD*%
D11*
%TO.C,Q1*%
X191437000Y-75352349D03*
X191437000Y-77252349D03*
X194437000Y-76302349D03*
%TD*%
D10*
%TO.C,R3*%
X196676000Y-75286349D03*
X198501000Y-75286349D03*
%TD*%
D24*
%TO.C,R11*%
X132562000Y-97536000D03*
X135662000Y-97536000D03*
%TD*%
D25*
%TO.C,D7*%
X137616200Y-107289600D03*
X134316200Y-107289600D03*
%TD*%
D13*
%TO.C,R17*%
X120682000Y-97282000D03*
X122682000Y-97282000D03*
%TD*%
D16*
%TO.C,R16*%
X141538200Y-107340400D03*
X139538200Y-107340400D03*
%TD*%
D26*
%TO.C,C8*%
X146198500Y-107188000D03*
X144123500Y-107188000D03*
%TD*%
D22*
%TO.C,R21*%
X133223000Y-125079000D03*
X133223000Y-123079000D03*
%TD*%
D27*
%TO.C,D5*%
X145816000Y-97658500D03*
X145816000Y-92333500D03*
X148316000Y-97658500D03*
X148316000Y-92333500D03*
%TD*%
D28*
%TO.C,U2*%
X129351000Y-101219000D03*
X129351000Y-102489000D03*
X129351000Y-103759000D03*
X129351000Y-105029000D03*
X134301000Y-105029000D03*
X134301000Y-103759000D03*
X134301000Y-102489000D03*
X134301000Y-101219000D03*
%TD*%
D20*
%TO.C,R10*%
X143282000Y-97536000D03*
X140182000Y-97536000D03*
%TD*%
M02*
