%TF.GenerationSoftware,KiCad,Pcbnew,9.0.2*%
%TF.CreationDate,2025-11-28T18:19:18-08:00*%
%TF.ProjectId,BLE_Lamp,424c455f-4c61-46d7-902e-6b696361645f,rev?*%
%TF.SameCoordinates,Original*%
%TF.FileFunction,Legend,Top*%
%TF.FilePolarity,Positive*%
%FSLAX46Y46*%
G04 Gerber Fmt 4.6, Leading zero omitted, Abs format (unit mm)*
G04 Created by KiCad (PCBNEW 9.0.2) date 2025-11-28 18:19:18*
%MOMM*%
%LPD*%
G01*
G04 APERTURE LIST*
%ADD10C,0.150000*%
%ADD11C,0.120000*%
%ADD12C,0.127000*%
G04 APERTURE END LIST*
D10*
X198461333Y-83742168D02*
X198128000Y-83265977D01*
X197889905Y-83742168D02*
X197889905Y-82742168D01*
X197889905Y-82742168D02*
X198270857Y-82742168D01*
X198270857Y-82742168D02*
X198366095Y-82789787D01*
X198366095Y-82789787D02*
X198413714Y-82837406D01*
X198413714Y-82837406D02*
X198461333Y-82932644D01*
X198461333Y-82932644D02*
X198461333Y-83075501D01*
X198461333Y-83075501D02*
X198413714Y-83170739D01*
X198413714Y-83170739D02*
X198366095Y-83218358D01*
X198366095Y-83218358D02*
X198270857Y-83265977D01*
X198270857Y-83265977D02*
X197889905Y-83265977D01*
X199318476Y-83075501D02*
X199318476Y-83742168D01*
X199080381Y-82694549D02*
X198842286Y-83408834D01*
X198842286Y-83408834D02*
X199461333Y-83408834D01*
X204906761Y-73848406D02*
X204811523Y-73800787D01*
X204811523Y-73800787D02*
X204716285Y-73705549D01*
X204716285Y-73705549D02*
X204573428Y-73562691D01*
X204573428Y-73562691D02*
X204478190Y-73515072D01*
X204478190Y-73515072D02*
X204382952Y-73515072D01*
X204430571Y-73753168D02*
X204335333Y-73705549D01*
X204335333Y-73705549D02*
X204240095Y-73610310D01*
X204240095Y-73610310D02*
X204192476Y-73419834D01*
X204192476Y-73419834D02*
X204192476Y-73086501D01*
X204192476Y-73086501D02*
X204240095Y-72896025D01*
X204240095Y-72896025D02*
X204335333Y-72800787D01*
X204335333Y-72800787D02*
X204430571Y-72753168D01*
X204430571Y-72753168D02*
X204621047Y-72753168D01*
X204621047Y-72753168D02*
X204716285Y-72800787D01*
X204716285Y-72800787D02*
X204811523Y-72896025D01*
X204811523Y-72896025D02*
X204859142Y-73086501D01*
X204859142Y-73086501D02*
X204859142Y-73419834D01*
X204859142Y-73419834D02*
X204811523Y-73610310D01*
X204811523Y-73610310D02*
X204716285Y-73705549D01*
X204716285Y-73705549D02*
X204621047Y-73753168D01*
X204621047Y-73753168D02*
X204430571Y-73753168D01*
X205192476Y-72753168D02*
X205811523Y-72753168D01*
X205811523Y-72753168D02*
X205478190Y-73134120D01*
X205478190Y-73134120D02*
X205621047Y-73134120D01*
X205621047Y-73134120D02*
X205716285Y-73181739D01*
X205716285Y-73181739D02*
X205763904Y-73229358D01*
X205763904Y-73229358D02*
X205811523Y-73324596D01*
X205811523Y-73324596D02*
X205811523Y-73562691D01*
X205811523Y-73562691D02*
X205763904Y-73657929D01*
X205763904Y-73657929D02*
X205716285Y-73705549D01*
X205716285Y-73705549D02*
X205621047Y-73753168D01*
X205621047Y-73753168D02*
X205335333Y-73753168D01*
X205335333Y-73753168D02*
X205240095Y-73705549D01*
X205240095Y-73705549D02*
X205192476Y-73657929D01*
X185380333Y-94340819D02*
X185047000Y-93864628D01*
X184808905Y-94340819D02*
X184808905Y-93340819D01*
X184808905Y-93340819D02*
X185189857Y-93340819D01*
X185189857Y-93340819D02*
X185285095Y-93388438D01*
X185285095Y-93388438D02*
X185332714Y-93436057D01*
X185332714Y-93436057D02*
X185380333Y-93531295D01*
X185380333Y-93531295D02*
X185380333Y-93674152D01*
X185380333Y-93674152D02*
X185332714Y-93769390D01*
X185332714Y-93769390D02*
X185285095Y-93817009D01*
X185285095Y-93817009D02*
X185189857Y-93864628D01*
X185189857Y-93864628D02*
X184808905Y-93864628D01*
X185713667Y-93340819D02*
X186380333Y-93340819D01*
X186380333Y-93340819D02*
X185951762Y-94340819D01*
X117517942Y-95044419D02*
X117184609Y-94568228D01*
X116946514Y-95044419D02*
X116946514Y-94044419D01*
X116946514Y-94044419D02*
X117327466Y-94044419D01*
X117327466Y-94044419D02*
X117422704Y-94092038D01*
X117422704Y-94092038D02*
X117470323Y-94139657D01*
X117470323Y-94139657D02*
X117517942Y-94234895D01*
X117517942Y-94234895D02*
X117517942Y-94377752D01*
X117517942Y-94377752D02*
X117470323Y-94472990D01*
X117470323Y-94472990D02*
X117422704Y-94520609D01*
X117422704Y-94520609D02*
X117327466Y-94568228D01*
X117327466Y-94568228D02*
X116946514Y-94568228D01*
X118470323Y-95044419D02*
X117898895Y-95044419D01*
X118184609Y-95044419D02*
X118184609Y-94044419D01*
X118184609Y-94044419D02*
X118089371Y-94187276D01*
X118089371Y-94187276D02*
X117994133Y-94282514D01*
X117994133Y-94282514D02*
X117898895Y-94330133D01*
X118946514Y-95044419D02*
X119136990Y-95044419D01*
X119136990Y-95044419D02*
X119232228Y-94996800D01*
X119232228Y-94996800D02*
X119279847Y-94949180D01*
X119279847Y-94949180D02*
X119375085Y-94806323D01*
X119375085Y-94806323D02*
X119422704Y-94615847D01*
X119422704Y-94615847D02*
X119422704Y-94234895D01*
X119422704Y-94234895D02*
X119375085Y-94139657D01*
X119375085Y-94139657D02*
X119327466Y-94092038D01*
X119327466Y-94092038D02*
X119232228Y-94044419D01*
X119232228Y-94044419D02*
X119041752Y-94044419D01*
X119041752Y-94044419D02*
X118946514Y-94092038D01*
X118946514Y-94092038D02*
X118898895Y-94139657D01*
X118898895Y-94139657D02*
X118851276Y-94234895D01*
X118851276Y-94234895D02*
X118851276Y-94472990D01*
X118851276Y-94472990D02*
X118898895Y-94568228D01*
X118898895Y-94568228D02*
X118946514Y-94615847D01*
X118946514Y-94615847D02*
X119041752Y-94663466D01*
X119041752Y-94663466D02*
X119232228Y-94663466D01*
X119232228Y-94663466D02*
X119327466Y-94615847D01*
X119327466Y-94615847D02*
X119375085Y-94568228D01*
X119375085Y-94568228D02*
X119422704Y-94472990D01*
X212822333Y-91894819D02*
X212489000Y-91418628D01*
X212250905Y-91894819D02*
X212250905Y-90894819D01*
X212250905Y-90894819D02*
X212631857Y-90894819D01*
X212631857Y-90894819D02*
X212727095Y-90942438D01*
X212727095Y-90942438D02*
X212774714Y-90990057D01*
X212774714Y-90990057D02*
X212822333Y-91085295D01*
X212822333Y-91085295D02*
X212822333Y-91228152D01*
X212822333Y-91228152D02*
X212774714Y-91323390D01*
X212774714Y-91323390D02*
X212727095Y-91371009D01*
X212727095Y-91371009D02*
X212631857Y-91418628D01*
X212631857Y-91418628D02*
X212250905Y-91418628D01*
X213393762Y-91323390D02*
X213298524Y-91275771D01*
X213298524Y-91275771D02*
X213250905Y-91228152D01*
X213250905Y-91228152D02*
X213203286Y-91132914D01*
X213203286Y-91132914D02*
X213203286Y-91085295D01*
X213203286Y-91085295D02*
X213250905Y-90990057D01*
X213250905Y-90990057D02*
X213298524Y-90942438D01*
X213298524Y-90942438D02*
X213393762Y-90894819D01*
X213393762Y-90894819D02*
X213584238Y-90894819D01*
X213584238Y-90894819D02*
X213679476Y-90942438D01*
X213679476Y-90942438D02*
X213727095Y-90990057D01*
X213727095Y-90990057D02*
X213774714Y-91085295D01*
X213774714Y-91085295D02*
X213774714Y-91132914D01*
X213774714Y-91132914D02*
X213727095Y-91228152D01*
X213727095Y-91228152D02*
X213679476Y-91275771D01*
X213679476Y-91275771D02*
X213584238Y-91323390D01*
X213584238Y-91323390D02*
X213393762Y-91323390D01*
X213393762Y-91323390D02*
X213298524Y-91371009D01*
X213298524Y-91371009D02*
X213250905Y-91418628D01*
X213250905Y-91418628D02*
X213203286Y-91513866D01*
X213203286Y-91513866D02*
X213203286Y-91704342D01*
X213203286Y-91704342D02*
X213250905Y-91799580D01*
X213250905Y-91799580D02*
X213298524Y-91847200D01*
X213298524Y-91847200D02*
X213393762Y-91894819D01*
X213393762Y-91894819D02*
X213584238Y-91894819D01*
X213584238Y-91894819D02*
X213679476Y-91847200D01*
X213679476Y-91847200D02*
X213727095Y-91799580D01*
X213727095Y-91799580D02*
X213774714Y-91704342D01*
X213774714Y-91704342D02*
X213774714Y-91513866D01*
X213774714Y-91513866D02*
X213727095Y-91418628D01*
X213727095Y-91418628D02*
X213679476Y-91371009D01*
X213679476Y-91371009D02*
X213584238Y-91323390D01*
X211591905Y-78916168D02*
X211591905Y-77916168D01*
X211591905Y-77916168D02*
X211830000Y-77916168D01*
X211830000Y-77916168D02*
X211972857Y-77963787D01*
X211972857Y-77963787D02*
X212068095Y-78059025D01*
X212068095Y-78059025D02*
X212115714Y-78154263D01*
X212115714Y-78154263D02*
X212163333Y-78344739D01*
X212163333Y-78344739D02*
X212163333Y-78487596D01*
X212163333Y-78487596D02*
X212115714Y-78678072D01*
X212115714Y-78678072D02*
X212068095Y-78773310D01*
X212068095Y-78773310D02*
X211972857Y-78868549D01*
X211972857Y-78868549D02*
X211830000Y-78916168D01*
X211830000Y-78916168D02*
X211591905Y-78916168D01*
X213115714Y-78916168D02*
X212544286Y-78916168D01*
X212830000Y-78916168D02*
X212830000Y-77916168D01*
X212830000Y-77916168D02*
X212734762Y-78059025D01*
X212734762Y-78059025D02*
X212639524Y-78154263D01*
X212639524Y-78154263D02*
X212544286Y-78201882D01*
X200638580Y-101869015D02*
X200686200Y-101916634D01*
X200686200Y-101916634D02*
X200733819Y-102059491D01*
X200733819Y-102059491D02*
X200733819Y-102154729D01*
X200733819Y-102154729D02*
X200686200Y-102297586D01*
X200686200Y-102297586D02*
X200590961Y-102392824D01*
X200590961Y-102392824D02*
X200495723Y-102440443D01*
X200495723Y-102440443D02*
X200305247Y-102488062D01*
X200305247Y-102488062D02*
X200162390Y-102488062D01*
X200162390Y-102488062D02*
X199971914Y-102440443D01*
X199971914Y-102440443D02*
X199876676Y-102392824D01*
X199876676Y-102392824D02*
X199781438Y-102297586D01*
X199781438Y-102297586D02*
X199733819Y-102154729D01*
X199733819Y-102154729D02*
X199733819Y-102059491D01*
X199733819Y-102059491D02*
X199781438Y-101916634D01*
X199781438Y-101916634D02*
X199829057Y-101869015D01*
X199829057Y-101488062D02*
X199781438Y-101440443D01*
X199781438Y-101440443D02*
X199733819Y-101345205D01*
X199733819Y-101345205D02*
X199733819Y-101107110D01*
X199733819Y-101107110D02*
X199781438Y-101011872D01*
X199781438Y-101011872D02*
X199829057Y-100964253D01*
X199829057Y-100964253D02*
X199924295Y-100916634D01*
X199924295Y-100916634D02*
X200019533Y-100916634D01*
X200019533Y-100916634D02*
X200162390Y-100964253D01*
X200162390Y-100964253D02*
X200733819Y-101535681D01*
X200733819Y-101535681D02*
X200733819Y-100916634D01*
X192841761Y-79243406D02*
X192746523Y-79195787D01*
X192746523Y-79195787D02*
X192651285Y-79100549D01*
X192651285Y-79100549D02*
X192508428Y-78957691D01*
X192508428Y-78957691D02*
X192413190Y-78910072D01*
X192413190Y-78910072D02*
X192317952Y-78910072D01*
X192365571Y-79148168D02*
X192270333Y-79100549D01*
X192270333Y-79100549D02*
X192175095Y-79005310D01*
X192175095Y-79005310D02*
X192127476Y-78814834D01*
X192127476Y-78814834D02*
X192127476Y-78481501D01*
X192127476Y-78481501D02*
X192175095Y-78291025D01*
X192175095Y-78291025D02*
X192270333Y-78195787D01*
X192270333Y-78195787D02*
X192365571Y-78148168D01*
X192365571Y-78148168D02*
X192556047Y-78148168D01*
X192556047Y-78148168D02*
X192651285Y-78195787D01*
X192651285Y-78195787D02*
X192746523Y-78291025D01*
X192746523Y-78291025D02*
X192794142Y-78481501D01*
X192794142Y-78481501D02*
X192794142Y-78814834D01*
X192794142Y-78814834D02*
X192746523Y-79005310D01*
X192746523Y-79005310D02*
X192651285Y-79100549D01*
X192651285Y-79100549D02*
X192556047Y-79148168D01*
X192556047Y-79148168D02*
X192365571Y-79148168D01*
X193175095Y-78243406D02*
X193222714Y-78195787D01*
X193222714Y-78195787D02*
X193317952Y-78148168D01*
X193317952Y-78148168D02*
X193556047Y-78148168D01*
X193556047Y-78148168D02*
X193651285Y-78195787D01*
X193651285Y-78195787D02*
X193698904Y-78243406D01*
X193698904Y-78243406D02*
X193746523Y-78338644D01*
X193746523Y-78338644D02*
X193746523Y-78433882D01*
X193746523Y-78433882D02*
X193698904Y-78576739D01*
X193698904Y-78576739D02*
X193127476Y-79148168D01*
X193127476Y-79148168D02*
X193746523Y-79148168D01*
X140885942Y-103629619D02*
X140552609Y-103153428D01*
X140314514Y-103629619D02*
X140314514Y-102629619D01*
X140314514Y-102629619D02*
X140695466Y-102629619D01*
X140695466Y-102629619D02*
X140790704Y-102677238D01*
X140790704Y-102677238D02*
X140838323Y-102724857D01*
X140838323Y-102724857D02*
X140885942Y-102820095D01*
X140885942Y-102820095D02*
X140885942Y-102962952D01*
X140885942Y-102962952D02*
X140838323Y-103058190D01*
X140838323Y-103058190D02*
X140790704Y-103105809D01*
X140790704Y-103105809D02*
X140695466Y-103153428D01*
X140695466Y-103153428D02*
X140314514Y-103153428D01*
X141838323Y-103629619D02*
X141266895Y-103629619D01*
X141552609Y-103629619D02*
X141552609Y-102629619D01*
X141552609Y-102629619D02*
X141457371Y-102772476D01*
X141457371Y-102772476D02*
X141362133Y-102867714D01*
X141362133Y-102867714D02*
X141266895Y-102915333D01*
X142743085Y-102629619D02*
X142266895Y-102629619D01*
X142266895Y-102629619D02*
X142219276Y-103105809D01*
X142219276Y-103105809D02*
X142266895Y-103058190D01*
X142266895Y-103058190D02*
X142362133Y-103010571D01*
X142362133Y-103010571D02*
X142600228Y-103010571D01*
X142600228Y-103010571D02*
X142695466Y-103058190D01*
X142695466Y-103058190D02*
X142743085Y-103105809D01*
X142743085Y-103105809D02*
X142790704Y-103201047D01*
X142790704Y-103201047D02*
X142790704Y-103439142D01*
X142790704Y-103439142D02*
X142743085Y-103534380D01*
X142743085Y-103534380D02*
X142695466Y-103582000D01*
X142695466Y-103582000D02*
X142600228Y-103629619D01*
X142600228Y-103629619D02*
X142362133Y-103629619D01*
X142362133Y-103629619D02*
X142266895Y-103582000D01*
X142266895Y-103582000D02*
X142219276Y-103534380D01*
X163141819Y-94210094D02*
X162141819Y-94210094D01*
X162141819Y-94210094D02*
X162141819Y-93971999D01*
X162141819Y-93971999D02*
X162189438Y-93829142D01*
X162189438Y-93829142D02*
X162284676Y-93733904D01*
X162284676Y-93733904D02*
X162379914Y-93686285D01*
X162379914Y-93686285D02*
X162570390Y-93638666D01*
X162570390Y-93638666D02*
X162713247Y-93638666D01*
X162713247Y-93638666D02*
X162903723Y-93686285D01*
X162903723Y-93686285D02*
X162998961Y-93733904D01*
X162998961Y-93733904D02*
X163094200Y-93829142D01*
X163094200Y-93829142D02*
X163141819Y-93971999D01*
X163141819Y-93971999D02*
X163141819Y-94210094D01*
X162141819Y-93305332D02*
X162141819Y-92686285D01*
X162141819Y-92686285D02*
X162522771Y-93019618D01*
X162522771Y-93019618D02*
X162522771Y-92876761D01*
X162522771Y-92876761D02*
X162570390Y-92781523D01*
X162570390Y-92781523D02*
X162618009Y-92733904D01*
X162618009Y-92733904D02*
X162713247Y-92686285D01*
X162713247Y-92686285D02*
X162951342Y-92686285D01*
X162951342Y-92686285D02*
X163046580Y-92733904D01*
X163046580Y-92733904D02*
X163094200Y-92781523D01*
X163094200Y-92781523D02*
X163141819Y-92876761D01*
X163141819Y-92876761D02*
X163141819Y-93162475D01*
X163141819Y-93162475D02*
X163094200Y-93257713D01*
X163094200Y-93257713D02*
X163046580Y-93305332D01*
X165000761Y-106998057D02*
X164905523Y-106950438D01*
X164905523Y-106950438D02*
X164810285Y-106855200D01*
X164810285Y-106855200D02*
X164667428Y-106712342D01*
X164667428Y-106712342D02*
X164572190Y-106664723D01*
X164572190Y-106664723D02*
X164476952Y-106664723D01*
X164524571Y-106902819D02*
X164429333Y-106855200D01*
X164429333Y-106855200D02*
X164334095Y-106759961D01*
X164334095Y-106759961D02*
X164286476Y-106569485D01*
X164286476Y-106569485D02*
X164286476Y-106236152D01*
X164286476Y-106236152D02*
X164334095Y-106045676D01*
X164334095Y-106045676D02*
X164429333Y-105950438D01*
X164429333Y-105950438D02*
X164524571Y-105902819D01*
X164524571Y-105902819D02*
X164715047Y-105902819D01*
X164715047Y-105902819D02*
X164810285Y-105950438D01*
X164810285Y-105950438D02*
X164905523Y-106045676D01*
X164905523Y-106045676D02*
X164953142Y-106236152D01*
X164953142Y-106236152D02*
X164953142Y-106569485D01*
X164953142Y-106569485D02*
X164905523Y-106759961D01*
X164905523Y-106759961D02*
X164810285Y-106855200D01*
X164810285Y-106855200D02*
X164715047Y-106902819D01*
X164715047Y-106902819D02*
X164524571Y-106902819D01*
X165810285Y-105902819D02*
X165619809Y-105902819D01*
X165619809Y-105902819D02*
X165524571Y-105950438D01*
X165524571Y-105950438D02*
X165476952Y-105998057D01*
X165476952Y-105998057D02*
X165381714Y-106140914D01*
X165381714Y-106140914D02*
X165334095Y-106331390D01*
X165334095Y-106331390D02*
X165334095Y-106712342D01*
X165334095Y-106712342D02*
X165381714Y-106807580D01*
X165381714Y-106807580D02*
X165429333Y-106855200D01*
X165429333Y-106855200D02*
X165524571Y-106902819D01*
X165524571Y-106902819D02*
X165715047Y-106902819D01*
X165715047Y-106902819D02*
X165810285Y-106855200D01*
X165810285Y-106855200D02*
X165857904Y-106807580D01*
X165857904Y-106807580D02*
X165905523Y-106712342D01*
X165905523Y-106712342D02*
X165905523Y-106474247D01*
X165905523Y-106474247D02*
X165857904Y-106379009D01*
X165857904Y-106379009D02*
X165810285Y-106331390D01*
X165810285Y-106331390D02*
X165715047Y-106283771D01*
X165715047Y-106283771D02*
X165524571Y-106283771D01*
X165524571Y-106283771D02*
X165429333Y-106331390D01*
X165429333Y-106331390D02*
X165381714Y-106379009D01*
X165381714Y-106379009D02*
X165334095Y-106474247D01*
X197445333Y-80821168D02*
X197112000Y-80344977D01*
X196873905Y-80821168D02*
X196873905Y-79821168D01*
X196873905Y-79821168D02*
X197254857Y-79821168D01*
X197254857Y-79821168D02*
X197350095Y-79868787D01*
X197350095Y-79868787D02*
X197397714Y-79916406D01*
X197397714Y-79916406D02*
X197445333Y-80011644D01*
X197445333Y-80011644D02*
X197445333Y-80154501D01*
X197445333Y-80154501D02*
X197397714Y-80249739D01*
X197397714Y-80249739D02*
X197350095Y-80297358D01*
X197350095Y-80297358D02*
X197254857Y-80344977D01*
X197254857Y-80344977D02*
X196873905Y-80344977D01*
X197826286Y-79916406D02*
X197873905Y-79868787D01*
X197873905Y-79868787D02*
X197969143Y-79821168D01*
X197969143Y-79821168D02*
X198207238Y-79821168D01*
X198207238Y-79821168D02*
X198302476Y-79868787D01*
X198302476Y-79868787D02*
X198350095Y-79916406D01*
X198350095Y-79916406D02*
X198397714Y-80011644D01*
X198397714Y-80011644D02*
X198397714Y-80106882D01*
X198397714Y-80106882D02*
X198350095Y-80249739D01*
X198350095Y-80249739D02*
X197778667Y-80821168D01*
X197778667Y-80821168D02*
X198397714Y-80821168D01*
X212822333Y-93577580D02*
X212774714Y-93625200D01*
X212774714Y-93625200D02*
X212631857Y-93672819D01*
X212631857Y-93672819D02*
X212536619Y-93672819D01*
X212536619Y-93672819D02*
X212393762Y-93625200D01*
X212393762Y-93625200D02*
X212298524Y-93529961D01*
X212298524Y-93529961D02*
X212250905Y-93434723D01*
X212250905Y-93434723D02*
X212203286Y-93244247D01*
X212203286Y-93244247D02*
X212203286Y-93101390D01*
X212203286Y-93101390D02*
X212250905Y-92910914D01*
X212250905Y-92910914D02*
X212298524Y-92815676D01*
X212298524Y-92815676D02*
X212393762Y-92720438D01*
X212393762Y-92720438D02*
X212536619Y-92672819D01*
X212536619Y-92672819D02*
X212631857Y-92672819D01*
X212631857Y-92672819D02*
X212774714Y-92720438D01*
X212774714Y-92720438D02*
X212822333Y-92768057D01*
X213155667Y-92672819D02*
X213774714Y-92672819D01*
X213774714Y-92672819D02*
X213441381Y-93053771D01*
X213441381Y-93053771D02*
X213584238Y-93053771D01*
X213584238Y-93053771D02*
X213679476Y-93101390D01*
X213679476Y-93101390D02*
X213727095Y-93149009D01*
X213727095Y-93149009D02*
X213774714Y-93244247D01*
X213774714Y-93244247D02*
X213774714Y-93482342D01*
X213774714Y-93482342D02*
X213727095Y-93577580D01*
X213727095Y-93577580D02*
X213679476Y-93625200D01*
X213679476Y-93625200D02*
X213584238Y-93672819D01*
X213584238Y-93672819D02*
X213298524Y-93672819D01*
X213298524Y-93672819D02*
X213203286Y-93625200D01*
X213203286Y-93625200D02*
X213155667Y-93577580D01*
X204765961Y-79372206D02*
X204670723Y-79324587D01*
X204670723Y-79324587D02*
X204575485Y-79229349D01*
X204575485Y-79229349D02*
X204432628Y-79086491D01*
X204432628Y-79086491D02*
X204337390Y-79038872D01*
X204337390Y-79038872D02*
X204242152Y-79038872D01*
X204289771Y-79276968D02*
X204194533Y-79229349D01*
X204194533Y-79229349D02*
X204099295Y-79134110D01*
X204099295Y-79134110D02*
X204051676Y-78943634D01*
X204051676Y-78943634D02*
X204051676Y-78610301D01*
X204051676Y-78610301D02*
X204099295Y-78419825D01*
X204099295Y-78419825D02*
X204194533Y-78324587D01*
X204194533Y-78324587D02*
X204289771Y-78276968D01*
X204289771Y-78276968D02*
X204480247Y-78276968D01*
X204480247Y-78276968D02*
X204575485Y-78324587D01*
X204575485Y-78324587D02*
X204670723Y-78419825D01*
X204670723Y-78419825D02*
X204718342Y-78610301D01*
X204718342Y-78610301D02*
X204718342Y-78943634D01*
X204718342Y-78943634D02*
X204670723Y-79134110D01*
X204670723Y-79134110D02*
X204575485Y-79229349D01*
X204575485Y-79229349D02*
X204480247Y-79276968D01*
X204480247Y-79276968D02*
X204289771Y-79276968D01*
X205575485Y-78610301D02*
X205575485Y-79276968D01*
X205337390Y-78229349D02*
X205099295Y-78943634D01*
X205099295Y-78943634D02*
X205718342Y-78943634D01*
X124579142Y-106372819D02*
X124245809Y-105896628D01*
X124007714Y-106372819D02*
X124007714Y-105372819D01*
X124007714Y-105372819D02*
X124388666Y-105372819D01*
X124388666Y-105372819D02*
X124483904Y-105420438D01*
X124483904Y-105420438D02*
X124531523Y-105468057D01*
X124531523Y-105468057D02*
X124579142Y-105563295D01*
X124579142Y-105563295D02*
X124579142Y-105706152D01*
X124579142Y-105706152D02*
X124531523Y-105801390D01*
X124531523Y-105801390D02*
X124483904Y-105849009D01*
X124483904Y-105849009D02*
X124388666Y-105896628D01*
X124388666Y-105896628D02*
X124007714Y-105896628D01*
X125531523Y-106372819D02*
X124960095Y-106372819D01*
X125245809Y-106372819D02*
X125245809Y-105372819D01*
X125245809Y-105372819D02*
X125150571Y-105515676D01*
X125150571Y-105515676D02*
X125055333Y-105610914D01*
X125055333Y-105610914D02*
X124960095Y-105658533D01*
X125864857Y-105372819D02*
X126483904Y-105372819D01*
X126483904Y-105372819D02*
X126150571Y-105753771D01*
X126150571Y-105753771D02*
X126293428Y-105753771D01*
X126293428Y-105753771D02*
X126388666Y-105801390D01*
X126388666Y-105801390D02*
X126436285Y-105849009D01*
X126436285Y-105849009D02*
X126483904Y-105944247D01*
X126483904Y-105944247D02*
X126483904Y-106182342D01*
X126483904Y-106182342D02*
X126436285Y-106277580D01*
X126436285Y-106277580D02*
X126388666Y-106325200D01*
X126388666Y-106325200D02*
X126293428Y-106372819D01*
X126293428Y-106372819D02*
X126007714Y-106372819D01*
X126007714Y-106372819D02*
X125912476Y-106325200D01*
X125912476Y-106325200D02*
X125864857Y-106277580D01*
X139773819Y-123674094D02*
X138773819Y-123674094D01*
X138773819Y-123674094D02*
X138773819Y-123435999D01*
X138773819Y-123435999D02*
X138821438Y-123293142D01*
X138821438Y-123293142D02*
X138916676Y-123197904D01*
X138916676Y-123197904D02*
X139011914Y-123150285D01*
X139011914Y-123150285D02*
X139202390Y-123102666D01*
X139202390Y-123102666D02*
X139345247Y-123102666D01*
X139345247Y-123102666D02*
X139535723Y-123150285D01*
X139535723Y-123150285D02*
X139630961Y-123197904D01*
X139630961Y-123197904D02*
X139726200Y-123293142D01*
X139726200Y-123293142D02*
X139773819Y-123435999D01*
X139773819Y-123435999D02*
X139773819Y-123674094D01*
X139202390Y-122531237D02*
X139154771Y-122626475D01*
X139154771Y-122626475D02*
X139107152Y-122674094D01*
X139107152Y-122674094D02*
X139011914Y-122721713D01*
X139011914Y-122721713D02*
X138964295Y-122721713D01*
X138964295Y-122721713D02*
X138869057Y-122674094D01*
X138869057Y-122674094D02*
X138821438Y-122626475D01*
X138821438Y-122626475D02*
X138773819Y-122531237D01*
X138773819Y-122531237D02*
X138773819Y-122340761D01*
X138773819Y-122340761D02*
X138821438Y-122245523D01*
X138821438Y-122245523D02*
X138869057Y-122197904D01*
X138869057Y-122197904D02*
X138964295Y-122150285D01*
X138964295Y-122150285D02*
X139011914Y-122150285D01*
X139011914Y-122150285D02*
X139107152Y-122197904D01*
X139107152Y-122197904D02*
X139154771Y-122245523D01*
X139154771Y-122245523D02*
X139202390Y-122340761D01*
X139202390Y-122340761D02*
X139202390Y-122531237D01*
X139202390Y-122531237D02*
X139250009Y-122626475D01*
X139250009Y-122626475D02*
X139297628Y-122674094D01*
X139297628Y-122674094D02*
X139392866Y-122721713D01*
X139392866Y-122721713D02*
X139583342Y-122721713D01*
X139583342Y-122721713D02*
X139678580Y-122674094D01*
X139678580Y-122674094D02*
X139726200Y-122626475D01*
X139726200Y-122626475D02*
X139773819Y-122531237D01*
X139773819Y-122531237D02*
X139773819Y-122340761D01*
X139773819Y-122340761D02*
X139726200Y-122245523D01*
X139726200Y-122245523D02*
X139678580Y-122197904D01*
X139678580Y-122197904D02*
X139583342Y-122150285D01*
X139583342Y-122150285D02*
X139392866Y-122150285D01*
X139392866Y-122150285D02*
X139297628Y-122197904D01*
X139297628Y-122197904D02*
X139250009Y-122245523D01*
X139250009Y-122245523D02*
X139202390Y-122340761D01*
X212544333Y-75614168D02*
X212211000Y-75137977D01*
X211972905Y-75614168D02*
X211972905Y-74614168D01*
X211972905Y-74614168D02*
X212353857Y-74614168D01*
X212353857Y-74614168D02*
X212449095Y-74661787D01*
X212449095Y-74661787D02*
X212496714Y-74709406D01*
X212496714Y-74709406D02*
X212544333Y-74804644D01*
X212544333Y-74804644D02*
X212544333Y-74947501D01*
X212544333Y-74947501D02*
X212496714Y-75042739D01*
X212496714Y-75042739D02*
X212449095Y-75090358D01*
X212449095Y-75090358D02*
X212353857Y-75137977D01*
X212353857Y-75137977D02*
X211972905Y-75137977D01*
X213401476Y-74614168D02*
X213211000Y-74614168D01*
X213211000Y-74614168D02*
X213115762Y-74661787D01*
X213115762Y-74661787D02*
X213068143Y-74709406D01*
X213068143Y-74709406D02*
X212972905Y-74852263D01*
X212972905Y-74852263D02*
X212925286Y-75042739D01*
X212925286Y-75042739D02*
X212925286Y-75423691D01*
X212925286Y-75423691D02*
X212972905Y-75518929D01*
X212972905Y-75518929D02*
X213020524Y-75566549D01*
X213020524Y-75566549D02*
X213115762Y-75614168D01*
X213115762Y-75614168D02*
X213306238Y-75614168D01*
X213306238Y-75614168D02*
X213401476Y-75566549D01*
X213401476Y-75566549D02*
X213449095Y-75518929D01*
X213449095Y-75518929D02*
X213496714Y-75423691D01*
X213496714Y-75423691D02*
X213496714Y-75185596D01*
X213496714Y-75185596D02*
X213449095Y-75090358D01*
X213449095Y-75090358D02*
X213401476Y-75042739D01*
X213401476Y-75042739D02*
X213306238Y-74995120D01*
X213306238Y-74995120D02*
X213115762Y-74995120D01*
X213115762Y-74995120D02*
X213020524Y-75042739D01*
X213020524Y-75042739D02*
X212972905Y-75090358D01*
X212972905Y-75090358D02*
X212925286Y-75185596D01*
X120470819Y-104020857D02*
X119994628Y-104354190D01*
X120470819Y-104592285D02*
X119470819Y-104592285D01*
X119470819Y-104592285D02*
X119470819Y-104211333D01*
X119470819Y-104211333D02*
X119518438Y-104116095D01*
X119518438Y-104116095D02*
X119566057Y-104068476D01*
X119566057Y-104068476D02*
X119661295Y-104020857D01*
X119661295Y-104020857D02*
X119804152Y-104020857D01*
X119804152Y-104020857D02*
X119899390Y-104068476D01*
X119899390Y-104068476D02*
X119947009Y-104116095D01*
X119947009Y-104116095D02*
X119994628Y-104211333D01*
X119994628Y-104211333D02*
X119994628Y-104592285D01*
X120470819Y-103068476D02*
X120470819Y-103639904D01*
X120470819Y-103354190D02*
X119470819Y-103354190D01*
X119470819Y-103354190D02*
X119613676Y-103449428D01*
X119613676Y-103449428D02*
X119708914Y-103544666D01*
X119708914Y-103544666D02*
X119756533Y-103639904D01*
X119804152Y-102211333D02*
X120470819Y-102211333D01*
X119423200Y-102449428D02*
X120137485Y-102687523D01*
X120137485Y-102687523D02*
X120137485Y-102068476D01*
X212248761Y-82059406D02*
X212153523Y-82011787D01*
X212153523Y-82011787D02*
X212058285Y-81916549D01*
X212058285Y-81916549D02*
X211915428Y-81773691D01*
X211915428Y-81773691D02*
X211820190Y-81726072D01*
X211820190Y-81726072D02*
X211724952Y-81726072D01*
X211772571Y-81964168D02*
X211677333Y-81916549D01*
X211677333Y-81916549D02*
X211582095Y-81821310D01*
X211582095Y-81821310D02*
X211534476Y-81630834D01*
X211534476Y-81630834D02*
X211534476Y-81297501D01*
X211534476Y-81297501D02*
X211582095Y-81107025D01*
X211582095Y-81107025D02*
X211677333Y-81011787D01*
X211677333Y-81011787D02*
X211772571Y-80964168D01*
X211772571Y-80964168D02*
X211963047Y-80964168D01*
X211963047Y-80964168D02*
X212058285Y-81011787D01*
X212058285Y-81011787D02*
X212153523Y-81107025D01*
X212153523Y-81107025D02*
X212201142Y-81297501D01*
X212201142Y-81297501D02*
X212201142Y-81630834D01*
X212201142Y-81630834D02*
X212153523Y-81821310D01*
X212153523Y-81821310D02*
X212058285Y-81916549D01*
X212058285Y-81916549D02*
X211963047Y-81964168D01*
X211963047Y-81964168D02*
X211772571Y-81964168D01*
X213105904Y-80964168D02*
X212629714Y-80964168D01*
X212629714Y-80964168D02*
X212582095Y-81440358D01*
X212582095Y-81440358D02*
X212629714Y-81392739D01*
X212629714Y-81392739D02*
X212724952Y-81345120D01*
X212724952Y-81345120D02*
X212963047Y-81345120D01*
X212963047Y-81345120D02*
X213058285Y-81392739D01*
X213058285Y-81392739D02*
X213105904Y-81440358D01*
X213105904Y-81440358D02*
X213153523Y-81535596D01*
X213153523Y-81535596D02*
X213153523Y-81773691D01*
X213153523Y-81773691D02*
X213105904Y-81868929D01*
X213105904Y-81868929D02*
X213058285Y-81916549D01*
X213058285Y-81916549D02*
X212963047Y-81964168D01*
X212963047Y-81964168D02*
X212724952Y-81964168D01*
X212724952Y-81964168D02*
X212629714Y-81916549D01*
X212629714Y-81916549D02*
X212582095Y-81868929D01*
X119809419Y-108688094D02*
X118809419Y-108688094D01*
X118809419Y-108688094D02*
X118809419Y-108449999D01*
X118809419Y-108449999D02*
X118857038Y-108307142D01*
X118857038Y-108307142D02*
X118952276Y-108211904D01*
X118952276Y-108211904D02*
X119047514Y-108164285D01*
X119047514Y-108164285D02*
X119237990Y-108116666D01*
X119237990Y-108116666D02*
X119380847Y-108116666D01*
X119380847Y-108116666D02*
X119571323Y-108164285D01*
X119571323Y-108164285D02*
X119666561Y-108211904D01*
X119666561Y-108211904D02*
X119761800Y-108307142D01*
X119761800Y-108307142D02*
X119809419Y-108449999D01*
X119809419Y-108449999D02*
X119809419Y-108688094D01*
X118809419Y-107259523D02*
X118809419Y-107449999D01*
X118809419Y-107449999D02*
X118857038Y-107545237D01*
X118857038Y-107545237D02*
X118904657Y-107592856D01*
X118904657Y-107592856D02*
X119047514Y-107688094D01*
X119047514Y-107688094D02*
X119237990Y-107735713D01*
X119237990Y-107735713D02*
X119618942Y-107735713D01*
X119618942Y-107735713D02*
X119714180Y-107688094D01*
X119714180Y-107688094D02*
X119761800Y-107640475D01*
X119761800Y-107640475D02*
X119809419Y-107545237D01*
X119809419Y-107545237D02*
X119809419Y-107354761D01*
X119809419Y-107354761D02*
X119761800Y-107259523D01*
X119761800Y-107259523D02*
X119714180Y-107211904D01*
X119714180Y-107211904D02*
X119618942Y-107164285D01*
X119618942Y-107164285D02*
X119380847Y-107164285D01*
X119380847Y-107164285D02*
X119285609Y-107211904D01*
X119285609Y-107211904D02*
X119237990Y-107259523D01*
X119237990Y-107259523D02*
X119190371Y-107354761D01*
X119190371Y-107354761D02*
X119190371Y-107545237D01*
X119190371Y-107545237D02*
X119237990Y-107640475D01*
X119237990Y-107640475D02*
X119285609Y-107688094D01*
X119285609Y-107688094D02*
X119380847Y-107735713D01*
X122242342Y-100429219D02*
X121909009Y-99953028D01*
X121670914Y-100429219D02*
X121670914Y-99429219D01*
X121670914Y-99429219D02*
X122051866Y-99429219D01*
X122051866Y-99429219D02*
X122147104Y-99476838D01*
X122147104Y-99476838D02*
X122194723Y-99524457D01*
X122194723Y-99524457D02*
X122242342Y-99619695D01*
X122242342Y-99619695D02*
X122242342Y-99762552D01*
X122242342Y-99762552D02*
X122194723Y-99857790D01*
X122194723Y-99857790D02*
X122147104Y-99905409D01*
X122147104Y-99905409D02*
X122051866Y-99953028D01*
X122051866Y-99953028D02*
X121670914Y-99953028D01*
X123194723Y-100429219D02*
X122623295Y-100429219D01*
X122909009Y-100429219D02*
X122909009Y-99429219D01*
X122909009Y-99429219D02*
X122813771Y-99572076D01*
X122813771Y-99572076D02*
X122718533Y-99667314D01*
X122718533Y-99667314D02*
X122623295Y-99714933D01*
X123766152Y-99857790D02*
X123670914Y-99810171D01*
X123670914Y-99810171D02*
X123623295Y-99762552D01*
X123623295Y-99762552D02*
X123575676Y-99667314D01*
X123575676Y-99667314D02*
X123575676Y-99619695D01*
X123575676Y-99619695D02*
X123623295Y-99524457D01*
X123623295Y-99524457D02*
X123670914Y-99476838D01*
X123670914Y-99476838D02*
X123766152Y-99429219D01*
X123766152Y-99429219D02*
X123956628Y-99429219D01*
X123956628Y-99429219D02*
X124051866Y-99476838D01*
X124051866Y-99476838D02*
X124099485Y-99524457D01*
X124099485Y-99524457D02*
X124147104Y-99619695D01*
X124147104Y-99619695D02*
X124147104Y-99667314D01*
X124147104Y-99667314D02*
X124099485Y-99762552D01*
X124099485Y-99762552D02*
X124051866Y-99810171D01*
X124051866Y-99810171D02*
X123956628Y-99857790D01*
X123956628Y-99857790D02*
X123766152Y-99857790D01*
X123766152Y-99857790D02*
X123670914Y-99905409D01*
X123670914Y-99905409D02*
X123623295Y-99953028D01*
X123623295Y-99953028D02*
X123575676Y-100048266D01*
X123575676Y-100048266D02*
X123575676Y-100238742D01*
X123575676Y-100238742D02*
X123623295Y-100333980D01*
X123623295Y-100333980D02*
X123670914Y-100381600D01*
X123670914Y-100381600D02*
X123766152Y-100429219D01*
X123766152Y-100429219D02*
X123956628Y-100429219D01*
X123956628Y-100429219D02*
X124051866Y-100381600D01*
X124051866Y-100381600D02*
X124099485Y-100333980D01*
X124099485Y-100333980D02*
X124147104Y-100238742D01*
X124147104Y-100238742D02*
X124147104Y-100048266D01*
X124147104Y-100048266D02*
X124099485Y-99953028D01*
X124099485Y-99953028D02*
X124051866Y-99905409D01*
X124051866Y-99905409D02*
X123956628Y-99857790D01*
X119238095Y-126304819D02*
X119238095Y-125304819D01*
X119238095Y-125781009D02*
X119809523Y-125781009D01*
X119809523Y-126304819D02*
X119809523Y-125304819D01*
X120761904Y-125304819D02*
X120285714Y-125304819D01*
X120285714Y-125304819D02*
X120238095Y-125781009D01*
X120238095Y-125781009D02*
X120285714Y-125733390D01*
X120285714Y-125733390D02*
X120380952Y-125685771D01*
X120380952Y-125685771D02*
X120619047Y-125685771D01*
X120619047Y-125685771D02*
X120714285Y-125733390D01*
X120714285Y-125733390D02*
X120761904Y-125781009D01*
X120761904Y-125781009D02*
X120809523Y-125876247D01*
X120809523Y-125876247D02*
X120809523Y-126114342D01*
X120809523Y-126114342D02*
X120761904Y-126209580D01*
X120761904Y-126209580D02*
X120714285Y-126257200D01*
X120714285Y-126257200D02*
X120619047Y-126304819D01*
X120619047Y-126304819D02*
X120380952Y-126304819D01*
X120380952Y-126304819D02*
X120285714Y-126257200D01*
X120285714Y-126257200D02*
X120238095Y-126209580D01*
X212530333Y-77138168D02*
X212197000Y-76661977D01*
X211958905Y-77138168D02*
X211958905Y-76138168D01*
X211958905Y-76138168D02*
X212339857Y-76138168D01*
X212339857Y-76138168D02*
X212435095Y-76185787D01*
X212435095Y-76185787D02*
X212482714Y-76233406D01*
X212482714Y-76233406D02*
X212530333Y-76328644D01*
X212530333Y-76328644D02*
X212530333Y-76471501D01*
X212530333Y-76471501D02*
X212482714Y-76566739D01*
X212482714Y-76566739D02*
X212435095Y-76614358D01*
X212435095Y-76614358D02*
X212339857Y-76661977D01*
X212339857Y-76661977D02*
X211958905Y-76661977D01*
X213435095Y-76138168D02*
X212958905Y-76138168D01*
X212958905Y-76138168D02*
X212911286Y-76614358D01*
X212911286Y-76614358D02*
X212958905Y-76566739D01*
X212958905Y-76566739D02*
X213054143Y-76519120D01*
X213054143Y-76519120D02*
X213292238Y-76519120D01*
X213292238Y-76519120D02*
X213387476Y-76566739D01*
X213387476Y-76566739D02*
X213435095Y-76614358D01*
X213435095Y-76614358D02*
X213482714Y-76709596D01*
X213482714Y-76709596D02*
X213482714Y-76947691D01*
X213482714Y-76947691D02*
X213435095Y-77042929D01*
X213435095Y-77042929D02*
X213387476Y-77090549D01*
X213387476Y-77090549D02*
X213292238Y-77138168D01*
X213292238Y-77138168D02*
X213054143Y-77138168D01*
X213054143Y-77138168D02*
X212958905Y-77090549D01*
X212958905Y-77090549D02*
X212911286Y-77042929D01*
X200493333Y-77519168D02*
X200160000Y-77042977D01*
X199921905Y-77519168D02*
X199921905Y-76519168D01*
X199921905Y-76519168D02*
X200302857Y-76519168D01*
X200302857Y-76519168D02*
X200398095Y-76566787D01*
X200398095Y-76566787D02*
X200445714Y-76614406D01*
X200445714Y-76614406D02*
X200493333Y-76709644D01*
X200493333Y-76709644D02*
X200493333Y-76852501D01*
X200493333Y-76852501D02*
X200445714Y-76947739D01*
X200445714Y-76947739D02*
X200398095Y-76995358D01*
X200398095Y-76995358D02*
X200302857Y-77042977D01*
X200302857Y-77042977D02*
X199921905Y-77042977D01*
X201445714Y-77519168D02*
X200874286Y-77519168D01*
X201160000Y-77519168D02*
X201160000Y-76519168D01*
X201160000Y-76519168D02*
X201064762Y-76662025D01*
X201064762Y-76662025D02*
X200969524Y-76757263D01*
X200969524Y-76757263D02*
X200874286Y-76804882D01*
X125179342Y-95755619D02*
X124846009Y-95279428D01*
X124607914Y-95755619D02*
X124607914Y-94755619D01*
X124607914Y-94755619D02*
X124988866Y-94755619D01*
X124988866Y-94755619D02*
X125084104Y-94803238D01*
X125084104Y-94803238D02*
X125131723Y-94850857D01*
X125131723Y-94850857D02*
X125179342Y-94946095D01*
X125179342Y-94946095D02*
X125179342Y-95088952D01*
X125179342Y-95088952D02*
X125131723Y-95184190D01*
X125131723Y-95184190D02*
X125084104Y-95231809D01*
X125084104Y-95231809D02*
X124988866Y-95279428D01*
X124988866Y-95279428D02*
X124607914Y-95279428D01*
X125560295Y-94850857D02*
X125607914Y-94803238D01*
X125607914Y-94803238D02*
X125703152Y-94755619D01*
X125703152Y-94755619D02*
X125941247Y-94755619D01*
X125941247Y-94755619D02*
X126036485Y-94803238D01*
X126036485Y-94803238D02*
X126084104Y-94850857D01*
X126084104Y-94850857D02*
X126131723Y-94946095D01*
X126131723Y-94946095D02*
X126131723Y-95041333D01*
X126131723Y-95041333D02*
X126084104Y-95184190D01*
X126084104Y-95184190D02*
X125512676Y-95755619D01*
X125512676Y-95755619D02*
X126131723Y-95755619D01*
X126750771Y-94755619D02*
X126846009Y-94755619D01*
X126846009Y-94755619D02*
X126941247Y-94803238D01*
X126941247Y-94803238D02*
X126988866Y-94850857D01*
X126988866Y-94850857D02*
X127036485Y-94946095D01*
X127036485Y-94946095D02*
X127084104Y-95136571D01*
X127084104Y-95136571D02*
X127084104Y-95374666D01*
X127084104Y-95374666D02*
X127036485Y-95565142D01*
X127036485Y-95565142D02*
X126988866Y-95660380D01*
X126988866Y-95660380D02*
X126941247Y-95708000D01*
X126941247Y-95708000D02*
X126846009Y-95755619D01*
X126846009Y-95755619D02*
X126750771Y-95755619D01*
X126750771Y-95755619D02*
X126655533Y-95708000D01*
X126655533Y-95708000D02*
X126607914Y-95660380D01*
X126607914Y-95660380D02*
X126560295Y-95565142D01*
X126560295Y-95565142D02*
X126512676Y-95374666D01*
X126512676Y-95374666D02*
X126512676Y-95136571D01*
X126512676Y-95136571D02*
X126560295Y-94946095D01*
X126560295Y-94946095D02*
X126607914Y-94850857D01*
X126607914Y-94850857D02*
X126655533Y-94803238D01*
X126655533Y-94803238D02*
X126750771Y-94755619D01*
X130167142Y-93620819D02*
X129833809Y-93144628D01*
X129595714Y-93620819D02*
X129595714Y-92620819D01*
X129595714Y-92620819D02*
X129976666Y-92620819D01*
X129976666Y-92620819D02*
X130071904Y-92668438D01*
X130071904Y-92668438D02*
X130119523Y-92716057D01*
X130119523Y-92716057D02*
X130167142Y-92811295D01*
X130167142Y-92811295D02*
X130167142Y-92954152D01*
X130167142Y-92954152D02*
X130119523Y-93049390D01*
X130119523Y-93049390D02*
X130071904Y-93097009D01*
X130071904Y-93097009D02*
X129976666Y-93144628D01*
X129976666Y-93144628D02*
X129595714Y-93144628D01*
X131119523Y-93620819D02*
X130548095Y-93620819D01*
X130833809Y-93620819D02*
X130833809Y-92620819D01*
X130833809Y-92620819D02*
X130738571Y-92763676D01*
X130738571Y-92763676D02*
X130643333Y-92858914D01*
X130643333Y-92858914D02*
X130548095Y-92906533D01*
X131500476Y-92716057D02*
X131548095Y-92668438D01*
X131548095Y-92668438D02*
X131643333Y-92620819D01*
X131643333Y-92620819D02*
X131881428Y-92620819D01*
X131881428Y-92620819D02*
X131976666Y-92668438D01*
X131976666Y-92668438D02*
X132024285Y-92716057D01*
X132024285Y-92716057D02*
X132071904Y-92811295D01*
X132071904Y-92811295D02*
X132071904Y-92906533D01*
X132071904Y-92906533D02*
X132024285Y-93049390D01*
X132024285Y-93049390D02*
X131452857Y-93620819D01*
X131452857Y-93620819D02*
X132071904Y-93620819D01*
X192841761Y-74102406D02*
X192746523Y-74054787D01*
X192746523Y-74054787D02*
X192651285Y-73959549D01*
X192651285Y-73959549D02*
X192508428Y-73816691D01*
X192508428Y-73816691D02*
X192413190Y-73769072D01*
X192413190Y-73769072D02*
X192317952Y-73769072D01*
X192365571Y-74007168D02*
X192270333Y-73959549D01*
X192270333Y-73959549D02*
X192175095Y-73864310D01*
X192175095Y-73864310D02*
X192127476Y-73673834D01*
X192127476Y-73673834D02*
X192127476Y-73340501D01*
X192127476Y-73340501D02*
X192175095Y-73150025D01*
X192175095Y-73150025D02*
X192270333Y-73054787D01*
X192270333Y-73054787D02*
X192365571Y-73007168D01*
X192365571Y-73007168D02*
X192556047Y-73007168D01*
X192556047Y-73007168D02*
X192651285Y-73054787D01*
X192651285Y-73054787D02*
X192746523Y-73150025D01*
X192746523Y-73150025D02*
X192794142Y-73340501D01*
X192794142Y-73340501D02*
X192794142Y-73673834D01*
X192794142Y-73673834D02*
X192746523Y-73864310D01*
X192746523Y-73864310D02*
X192651285Y-73959549D01*
X192651285Y-73959549D02*
X192556047Y-74007168D01*
X192556047Y-74007168D02*
X192365571Y-74007168D01*
X193746523Y-74007168D02*
X193175095Y-74007168D01*
X193460809Y-74007168D02*
X193460809Y-73007168D01*
X193460809Y-73007168D02*
X193365571Y-73150025D01*
X193365571Y-73150025D02*
X193270333Y-73245263D01*
X193270333Y-73245263D02*
X193175095Y-73292882D01*
X200493333Y-75741168D02*
X200160000Y-75264977D01*
X199921905Y-75741168D02*
X199921905Y-74741168D01*
X199921905Y-74741168D02*
X200302857Y-74741168D01*
X200302857Y-74741168D02*
X200398095Y-74788787D01*
X200398095Y-74788787D02*
X200445714Y-74836406D01*
X200445714Y-74836406D02*
X200493333Y-74931644D01*
X200493333Y-74931644D02*
X200493333Y-75074501D01*
X200493333Y-75074501D02*
X200445714Y-75169739D01*
X200445714Y-75169739D02*
X200398095Y-75217358D01*
X200398095Y-75217358D02*
X200302857Y-75264977D01*
X200302857Y-75264977D02*
X199921905Y-75264977D01*
X200826667Y-74741168D02*
X201445714Y-74741168D01*
X201445714Y-74741168D02*
X201112381Y-75122120D01*
X201112381Y-75122120D02*
X201255238Y-75122120D01*
X201255238Y-75122120D02*
X201350476Y-75169739D01*
X201350476Y-75169739D02*
X201398095Y-75217358D01*
X201398095Y-75217358D02*
X201445714Y-75312596D01*
X201445714Y-75312596D02*
X201445714Y-75550691D01*
X201445714Y-75550691D02*
X201398095Y-75645929D01*
X201398095Y-75645929D02*
X201350476Y-75693549D01*
X201350476Y-75693549D02*
X201255238Y-75741168D01*
X201255238Y-75741168D02*
X200969524Y-75741168D01*
X200969524Y-75741168D02*
X200874286Y-75693549D01*
X200874286Y-75693549D02*
X200826667Y-75645929D01*
X134612142Y-95958819D02*
X134278809Y-95482628D01*
X134040714Y-95958819D02*
X134040714Y-94958819D01*
X134040714Y-94958819D02*
X134421666Y-94958819D01*
X134421666Y-94958819D02*
X134516904Y-95006438D01*
X134516904Y-95006438D02*
X134564523Y-95054057D01*
X134564523Y-95054057D02*
X134612142Y-95149295D01*
X134612142Y-95149295D02*
X134612142Y-95292152D01*
X134612142Y-95292152D02*
X134564523Y-95387390D01*
X134564523Y-95387390D02*
X134516904Y-95435009D01*
X134516904Y-95435009D02*
X134421666Y-95482628D01*
X134421666Y-95482628D02*
X134040714Y-95482628D01*
X135564523Y-95958819D02*
X134993095Y-95958819D01*
X135278809Y-95958819D02*
X135278809Y-94958819D01*
X135278809Y-94958819D02*
X135183571Y-95101676D01*
X135183571Y-95101676D02*
X135088333Y-95196914D01*
X135088333Y-95196914D02*
X134993095Y-95244533D01*
X136516904Y-95958819D02*
X135945476Y-95958819D01*
X136231190Y-95958819D02*
X136231190Y-94958819D01*
X136231190Y-94958819D02*
X136135952Y-95101676D01*
X136135952Y-95101676D02*
X136040714Y-95196914D01*
X136040714Y-95196914D02*
X135945476Y-95244533D01*
X131672105Y-108684219D02*
X131672105Y-107684219D01*
X131672105Y-107684219D02*
X131910200Y-107684219D01*
X131910200Y-107684219D02*
X132053057Y-107731838D01*
X132053057Y-107731838D02*
X132148295Y-107827076D01*
X132148295Y-107827076D02*
X132195914Y-107922314D01*
X132195914Y-107922314D02*
X132243533Y-108112790D01*
X132243533Y-108112790D02*
X132243533Y-108255647D01*
X132243533Y-108255647D02*
X132195914Y-108446123D01*
X132195914Y-108446123D02*
X132148295Y-108541361D01*
X132148295Y-108541361D02*
X132053057Y-108636600D01*
X132053057Y-108636600D02*
X131910200Y-108684219D01*
X131910200Y-108684219D02*
X131672105Y-108684219D01*
X132576867Y-107684219D02*
X133243533Y-107684219D01*
X133243533Y-107684219D02*
X132814962Y-108684219D01*
X119238095Y-66304819D02*
X119238095Y-65304819D01*
X119238095Y-65781009D02*
X119809523Y-65781009D01*
X119809523Y-66304819D02*
X119809523Y-65304819D01*
X120190476Y-65304819D02*
X120809523Y-65304819D01*
X120809523Y-65304819D02*
X120476190Y-65685771D01*
X120476190Y-65685771D02*
X120619047Y-65685771D01*
X120619047Y-65685771D02*
X120714285Y-65733390D01*
X120714285Y-65733390D02*
X120761904Y-65781009D01*
X120761904Y-65781009D02*
X120809523Y-65876247D01*
X120809523Y-65876247D02*
X120809523Y-66114342D01*
X120809523Y-66114342D02*
X120761904Y-66209580D01*
X120761904Y-66209580D02*
X120714285Y-66257200D01*
X120714285Y-66257200D02*
X120619047Y-66304819D01*
X120619047Y-66304819D02*
X120333333Y-66304819D01*
X120333333Y-66304819D02*
X120238095Y-66257200D01*
X120238095Y-66257200D02*
X120190476Y-66209580D01*
X117594142Y-97711419D02*
X117260809Y-97235228D01*
X117022714Y-97711419D02*
X117022714Y-96711419D01*
X117022714Y-96711419D02*
X117403666Y-96711419D01*
X117403666Y-96711419D02*
X117498904Y-96759038D01*
X117498904Y-96759038D02*
X117546523Y-96806657D01*
X117546523Y-96806657D02*
X117594142Y-96901895D01*
X117594142Y-96901895D02*
X117594142Y-97044752D01*
X117594142Y-97044752D02*
X117546523Y-97139990D01*
X117546523Y-97139990D02*
X117498904Y-97187609D01*
X117498904Y-97187609D02*
X117403666Y-97235228D01*
X117403666Y-97235228D02*
X117022714Y-97235228D01*
X118546523Y-97711419D02*
X117975095Y-97711419D01*
X118260809Y-97711419D02*
X118260809Y-96711419D01*
X118260809Y-96711419D02*
X118165571Y-96854276D01*
X118165571Y-96854276D02*
X118070333Y-96949514D01*
X118070333Y-96949514D02*
X117975095Y-96997133D01*
X118879857Y-96711419D02*
X119546523Y-96711419D01*
X119546523Y-96711419D02*
X119117952Y-97711419D01*
X212471095Y-126819819D02*
X212471095Y-125819819D01*
X212471095Y-126296009D02*
X213042523Y-126296009D01*
X213042523Y-126819819D02*
X213042523Y-125819819D01*
X213947285Y-125819819D02*
X213756809Y-125819819D01*
X213756809Y-125819819D02*
X213661571Y-125867438D01*
X213661571Y-125867438D02*
X213613952Y-125915057D01*
X213613952Y-125915057D02*
X213518714Y-126057914D01*
X213518714Y-126057914D02*
X213471095Y-126248390D01*
X213471095Y-126248390D02*
X213471095Y-126629342D01*
X213471095Y-126629342D02*
X213518714Y-126724580D01*
X213518714Y-126724580D02*
X213566333Y-126772200D01*
X213566333Y-126772200D02*
X213661571Y-126819819D01*
X213661571Y-126819819D02*
X213852047Y-126819819D01*
X213852047Y-126819819D02*
X213947285Y-126772200D01*
X213947285Y-126772200D02*
X213994904Y-126724580D01*
X213994904Y-126724580D02*
X214042523Y-126629342D01*
X214042523Y-126629342D02*
X214042523Y-126391247D01*
X214042523Y-126391247D02*
X213994904Y-126296009D01*
X213994904Y-126296009D02*
X213947285Y-126248390D01*
X213947285Y-126248390D02*
X213852047Y-126200771D01*
X213852047Y-126200771D02*
X213661571Y-126200771D01*
X213661571Y-126200771D02*
X213566333Y-126248390D01*
X213566333Y-126248390D02*
X213518714Y-126296009D01*
X213518714Y-126296009D02*
X213471095Y-126391247D01*
X138879342Y-106093419D02*
X138546009Y-105617228D01*
X138307914Y-106093419D02*
X138307914Y-105093419D01*
X138307914Y-105093419D02*
X138688866Y-105093419D01*
X138688866Y-105093419D02*
X138784104Y-105141038D01*
X138784104Y-105141038D02*
X138831723Y-105188657D01*
X138831723Y-105188657D02*
X138879342Y-105283895D01*
X138879342Y-105283895D02*
X138879342Y-105426752D01*
X138879342Y-105426752D02*
X138831723Y-105521990D01*
X138831723Y-105521990D02*
X138784104Y-105569609D01*
X138784104Y-105569609D02*
X138688866Y-105617228D01*
X138688866Y-105617228D02*
X138307914Y-105617228D01*
X139831723Y-106093419D02*
X139260295Y-106093419D01*
X139546009Y-106093419D02*
X139546009Y-105093419D01*
X139546009Y-105093419D02*
X139450771Y-105236276D01*
X139450771Y-105236276D02*
X139355533Y-105331514D01*
X139355533Y-105331514D02*
X139260295Y-105379133D01*
X140688866Y-105093419D02*
X140498390Y-105093419D01*
X140498390Y-105093419D02*
X140403152Y-105141038D01*
X140403152Y-105141038D02*
X140355533Y-105188657D01*
X140355533Y-105188657D02*
X140260295Y-105331514D01*
X140260295Y-105331514D02*
X140212676Y-105521990D01*
X140212676Y-105521990D02*
X140212676Y-105902942D01*
X140212676Y-105902942D02*
X140260295Y-105998180D01*
X140260295Y-105998180D02*
X140307914Y-106045800D01*
X140307914Y-106045800D02*
X140403152Y-106093419D01*
X140403152Y-106093419D02*
X140593628Y-106093419D01*
X140593628Y-106093419D02*
X140688866Y-106045800D01*
X140688866Y-106045800D02*
X140736485Y-105998180D01*
X140736485Y-105998180D02*
X140784104Y-105902942D01*
X140784104Y-105902942D02*
X140784104Y-105664847D01*
X140784104Y-105664847D02*
X140736485Y-105569609D01*
X140736485Y-105569609D02*
X140688866Y-105521990D01*
X140688866Y-105521990D02*
X140593628Y-105474371D01*
X140593628Y-105474371D02*
X140403152Y-105474371D01*
X140403152Y-105474371D02*
X140307914Y-105521990D01*
X140307914Y-105521990D02*
X140260295Y-105569609D01*
X140260295Y-105569609D02*
X140212676Y-105664847D01*
X146619933Y-105769580D02*
X146572314Y-105817200D01*
X146572314Y-105817200D02*
X146429457Y-105864819D01*
X146429457Y-105864819D02*
X146334219Y-105864819D01*
X146334219Y-105864819D02*
X146191362Y-105817200D01*
X146191362Y-105817200D02*
X146096124Y-105721961D01*
X146096124Y-105721961D02*
X146048505Y-105626723D01*
X146048505Y-105626723D02*
X146000886Y-105436247D01*
X146000886Y-105436247D02*
X146000886Y-105293390D01*
X146000886Y-105293390D02*
X146048505Y-105102914D01*
X146048505Y-105102914D02*
X146096124Y-105007676D01*
X146096124Y-105007676D02*
X146191362Y-104912438D01*
X146191362Y-104912438D02*
X146334219Y-104864819D01*
X146334219Y-104864819D02*
X146429457Y-104864819D01*
X146429457Y-104864819D02*
X146572314Y-104912438D01*
X146572314Y-104912438D02*
X146619933Y-104960057D01*
X147191362Y-105293390D02*
X147096124Y-105245771D01*
X147096124Y-105245771D02*
X147048505Y-105198152D01*
X147048505Y-105198152D02*
X147000886Y-105102914D01*
X147000886Y-105102914D02*
X147000886Y-105055295D01*
X147000886Y-105055295D02*
X147048505Y-104960057D01*
X147048505Y-104960057D02*
X147096124Y-104912438D01*
X147096124Y-104912438D02*
X147191362Y-104864819D01*
X147191362Y-104864819D02*
X147381838Y-104864819D01*
X147381838Y-104864819D02*
X147477076Y-104912438D01*
X147477076Y-104912438D02*
X147524695Y-104960057D01*
X147524695Y-104960057D02*
X147572314Y-105055295D01*
X147572314Y-105055295D02*
X147572314Y-105102914D01*
X147572314Y-105102914D02*
X147524695Y-105198152D01*
X147524695Y-105198152D02*
X147477076Y-105245771D01*
X147477076Y-105245771D02*
X147381838Y-105293390D01*
X147381838Y-105293390D02*
X147191362Y-105293390D01*
X147191362Y-105293390D02*
X147096124Y-105341009D01*
X147096124Y-105341009D02*
X147048505Y-105388628D01*
X147048505Y-105388628D02*
X147000886Y-105483866D01*
X147000886Y-105483866D02*
X147000886Y-105674342D01*
X147000886Y-105674342D02*
X147048505Y-105769580D01*
X147048505Y-105769580D02*
X147096124Y-105817200D01*
X147096124Y-105817200D02*
X147191362Y-105864819D01*
X147191362Y-105864819D02*
X147381838Y-105864819D01*
X147381838Y-105864819D02*
X147477076Y-105817200D01*
X147477076Y-105817200D02*
X147524695Y-105769580D01*
X147524695Y-105769580D02*
X147572314Y-105674342D01*
X147572314Y-105674342D02*
X147572314Y-105483866D01*
X147572314Y-105483866D02*
X147524695Y-105388628D01*
X147524695Y-105388628D02*
X147477076Y-105341009D01*
X147477076Y-105341009D02*
X147381838Y-105293390D01*
X132027819Y-124721857D02*
X131551628Y-125055190D01*
X132027819Y-125293285D02*
X131027819Y-125293285D01*
X131027819Y-125293285D02*
X131027819Y-124912333D01*
X131027819Y-124912333D02*
X131075438Y-124817095D01*
X131075438Y-124817095D02*
X131123057Y-124769476D01*
X131123057Y-124769476D02*
X131218295Y-124721857D01*
X131218295Y-124721857D02*
X131361152Y-124721857D01*
X131361152Y-124721857D02*
X131456390Y-124769476D01*
X131456390Y-124769476D02*
X131504009Y-124817095D01*
X131504009Y-124817095D02*
X131551628Y-124912333D01*
X131551628Y-124912333D02*
X131551628Y-125293285D01*
X131123057Y-124340904D02*
X131075438Y-124293285D01*
X131075438Y-124293285D02*
X131027819Y-124198047D01*
X131027819Y-124198047D02*
X131027819Y-123959952D01*
X131027819Y-123959952D02*
X131075438Y-123864714D01*
X131075438Y-123864714D02*
X131123057Y-123817095D01*
X131123057Y-123817095D02*
X131218295Y-123769476D01*
X131218295Y-123769476D02*
X131313533Y-123769476D01*
X131313533Y-123769476D02*
X131456390Y-123817095D01*
X131456390Y-123817095D02*
X132027819Y-124388523D01*
X132027819Y-124388523D02*
X132027819Y-123769476D01*
X132027819Y-122817095D02*
X132027819Y-123388523D01*
X132027819Y-123102809D02*
X131027819Y-123102809D01*
X131027819Y-123102809D02*
X131170676Y-123198047D01*
X131170676Y-123198047D02*
X131265914Y-123293285D01*
X131265914Y-123293285D02*
X131313533Y-123388523D01*
X209238095Y-66304819D02*
X209238095Y-65304819D01*
X209238095Y-65781009D02*
X209809523Y-65781009D01*
X209809523Y-66304819D02*
X209809523Y-65304819D01*
X210714285Y-65638152D02*
X210714285Y-66304819D01*
X210476190Y-65257200D02*
X210238095Y-65971485D01*
X210238095Y-65971485D02*
X210857142Y-65971485D01*
X143885819Y-96059094D02*
X142885819Y-96059094D01*
X142885819Y-96059094D02*
X142885819Y-95820999D01*
X142885819Y-95820999D02*
X142933438Y-95678142D01*
X142933438Y-95678142D02*
X143028676Y-95582904D01*
X143028676Y-95582904D02*
X143123914Y-95535285D01*
X143123914Y-95535285D02*
X143314390Y-95487666D01*
X143314390Y-95487666D02*
X143457247Y-95487666D01*
X143457247Y-95487666D02*
X143647723Y-95535285D01*
X143647723Y-95535285D02*
X143742961Y-95582904D01*
X143742961Y-95582904D02*
X143838200Y-95678142D01*
X143838200Y-95678142D02*
X143885819Y-95820999D01*
X143885819Y-95820999D02*
X143885819Y-96059094D01*
X142885819Y-94582904D02*
X142885819Y-95059094D01*
X142885819Y-95059094D02*
X143362009Y-95106713D01*
X143362009Y-95106713D02*
X143314390Y-95059094D01*
X143314390Y-95059094D02*
X143266771Y-94963856D01*
X143266771Y-94963856D02*
X143266771Y-94725761D01*
X143266771Y-94725761D02*
X143314390Y-94630523D01*
X143314390Y-94630523D02*
X143362009Y-94582904D01*
X143362009Y-94582904D02*
X143457247Y-94535285D01*
X143457247Y-94535285D02*
X143695342Y-94535285D01*
X143695342Y-94535285D02*
X143790580Y-94582904D01*
X143790580Y-94582904D02*
X143838200Y-94630523D01*
X143838200Y-94630523D02*
X143885819Y-94725761D01*
X143885819Y-94725761D02*
X143885819Y-94963856D01*
X143885819Y-94963856D02*
X143838200Y-95059094D01*
X143838200Y-95059094D02*
X143790580Y-95106713D01*
X131064095Y-99178819D02*
X131064095Y-99988342D01*
X131064095Y-99988342D02*
X131111714Y-100083580D01*
X131111714Y-100083580D02*
X131159333Y-100131200D01*
X131159333Y-100131200D02*
X131254571Y-100178819D01*
X131254571Y-100178819D02*
X131445047Y-100178819D01*
X131445047Y-100178819D02*
X131540285Y-100131200D01*
X131540285Y-100131200D02*
X131587904Y-100083580D01*
X131587904Y-100083580D02*
X131635523Y-99988342D01*
X131635523Y-99988342D02*
X131635523Y-99178819D01*
X132064095Y-99274057D02*
X132111714Y-99226438D01*
X132111714Y-99226438D02*
X132206952Y-99178819D01*
X132206952Y-99178819D02*
X132445047Y-99178819D01*
X132445047Y-99178819D02*
X132540285Y-99226438D01*
X132540285Y-99226438D02*
X132587904Y-99274057D01*
X132587904Y-99274057D02*
X132635523Y-99369295D01*
X132635523Y-99369295D02*
X132635523Y-99464533D01*
X132635523Y-99464533D02*
X132587904Y-99607390D01*
X132587904Y-99607390D02*
X132016476Y-100178819D01*
X132016476Y-100178819D02*
X132635523Y-100178819D01*
X147422819Y-85598653D02*
X146422819Y-85598653D01*
X146899009Y-85598653D02*
X146899009Y-85027225D01*
X147422819Y-85027225D02*
X146422819Y-85027225D01*
X147422819Y-84027225D02*
X147422819Y-84598653D01*
X147422819Y-84312939D02*
X146422819Y-84312939D01*
X146422819Y-84312939D02*
X146565676Y-84408177D01*
X146565676Y-84408177D02*
X146660914Y-84503415D01*
X146660914Y-84503415D02*
X146708533Y-84598653D01*
X147422819Y-78485904D02*
X146422819Y-78485904D01*
X146899009Y-78485904D02*
X146899009Y-77914476D01*
X147422819Y-77914476D02*
X146422819Y-77914476D01*
X146518057Y-77485904D02*
X146470438Y-77438285D01*
X146470438Y-77438285D02*
X146422819Y-77343047D01*
X146422819Y-77343047D02*
X146422819Y-77104952D01*
X146422819Y-77104952D02*
X146470438Y-77009714D01*
X146470438Y-77009714D02*
X146518057Y-76962095D01*
X146518057Y-76962095D02*
X146613295Y-76914476D01*
X146613295Y-76914476D02*
X146708533Y-76914476D01*
X146708533Y-76914476D02*
X146851390Y-76962095D01*
X146851390Y-76962095D02*
X147422819Y-77533523D01*
X147422819Y-77533523D02*
X147422819Y-76914476D01*
X141089142Y-99820819D02*
X140755809Y-99344628D01*
X140517714Y-99820819D02*
X140517714Y-98820819D01*
X140517714Y-98820819D02*
X140898666Y-98820819D01*
X140898666Y-98820819D02*
X140993904Y-98868438D01*
X140993904Y-98868438D02*
X141041523Y-98916057D01*
X141041523Y-98916057D02*
X141089142Y-99011295D01*
X141089142Y-99011295D02*
X141089142Y-99154152D01*
X141089142Y-99154152D02*
X141041523Y-99249390D01*
X141041523Y-99249390D02*
X140993904Y-99297009D01*
X140993904Y-99297009D02*
X140898666Y-99344628D01*
X140898666Y-99344628D02*
X140517714Y-99344628D01*
X142041523Y-99820819D02*
X141470095Y-99820819D01*
X141755809Y-99820819D02*
X141755809Y-98820819D01*
X141755809Y-98820819D02*
X141660571Y-98963676D01*
X141660571Y-98963676D02*
X141565333Y-99058914D01*
X141565333Y-99058914D02*
X141470095Y-99106533D01*
X142660571Y-98820819D02*
X142755809Y-98820819D01*
X142755809Y-98820819D02*
X142851047Y-98868438D01*
X142851047Y-98868438D02*
X142898666Y-98916057D01*
X142898666Y-98916057D02*
X142946285Y-99011295D01*
X142946285Y-99011295D02*
X142993904Y-99201771D01*
X142993904Y-99201771D02*
X142993904Y-99439866D01*
X142993904Y-99439866D02*
X142946285Y-99630342D01*
X142946285Y-99630342D02*
X142898666Y-99725580D01*
X142898666Y-99725580D02*
X142851047Y-99773200D01*
X142851047Y-99773200D02*
X142755809Y-99820819D01*
X142755809Y-99820819D02*
X142660571Y-99820819D01*
X142660571Y-99820819D02*
X142565333Y-99773200D01*
X142565333Y-99773200D02*
X142517714Y-99725580D01*
X142517714Y-99725580D02*
X142470095Y-99630342D01*
X142470095Y-99630342D02*
X142422476Y-99439866D01*
X142422476Y-99439866D02*
X142422476Y-99201771D01*
X142422476Y-99201771D02*
X142470095Y-99011295D01*
X142470095Y-99011295D02*
X142517714Y-98916057D01*
X142517714Y-98916057D02*
X142565333Y-98868438D01*
X142565333Y-98868438D02*
X142660571Y-98820819D01*
D11*
%TO.C,R4*%
X197357276Y-81240849D02*
X197866724Y-81240849D01*
X197357276Y-82285849D02*
X197866724Y-82285849D01*
%TO.C,Q3*%
X204962000Y-74468349D02*
X204162000Y-74468349D01*
X204962000Y-74468349D02*
X205762000Y-74468349D01*
X205762000Y-74468349D02*
X205762000Y-75398349D01*
X205762000Y-77628349D02*
X204302000Y-77628349D01*
X205762000Y-77628349D02*
X205762000Y-76698349D01*
X203662000Y-74438349D02*
X203422000Y-74108349D01*
X203902000Y-74108349D01*
X203662000Y-74438349D01*
G36*
X203662000Y-74438349D02*
G01*
X203422000Y-74108349D01*
X203902000Y-74108349D01*
X203662000Y-74438349D01*
G37*
%TO.C,R7*%
X185801724Y-91933500D02*
X185292276Y-91933500D01*
X185801724Y-92978500D02*
X185292276Y-92978500D01*
%TO.C,R19*%
X121454936Y-93880000D02*
X121909064Y-93880000D01*
X121454936Y-95350000D02*
X121909064Y-95350000D01*
%TO.C,R8*%
X209559276Y-90917500D02*
X210068724Y-90917500D01*
X209559276Y-91962500D02*
X210068724Y-91962500D01*
%TO.C,D1*%
X208017000Y-77853349D02*
X208017000Y-79323349D01*
X208017000Y-79323349D02*
X210477000Y-79323349D01*
X210477000Y-77853349D02*
X208017000Y-77853349D01*
%TO.C,C2*%
X198372000Y-101848616D02*
X198372000Y-101556082D01*
X199392000Y-101848616D02*
X199392000Y-101556082D01*
%TO.C,Q2*%
X192897000Y-79863349D02*
X192097000Y-79863349D01*
X192897000Y-79863349D02*
X193697000Y-79863349D01*
X193697000Y-79863349D02*
X193697000Y-80793349D01*
X193697000Y-83023349D02*
X192237000Y-83023349D01*
X193697000Y-83023349D02*
X193697000Y-82093349D01*
X191597000Y-79833349D02*
X191357000Y-79503349D01*
X191837000Y-79503349D01*
X191597000Y-79833349D01*
G36*
X191597000Y-79833349D02*
G01*
X191357000Y-79503349D01*
X191837000Y-79503349D01*
X191597000Y-79833349D01*
G37*
%TO.C,R15*%
X143305264Y-104192400D02*
X142851136Y-104192400D01*
X143305264Y-105662400D02*
X142851136Y-105662400D01*
%TO.C,D3*%
X163846000Y-91262000D02*
X163846000Y-95122000D01*
X165846000Y-91262000D02*
X163846000Y-91262000D01*
X165846000Y-91262000D02*
X165846000Y-95122000D01*
%TO.C,Q6*%
X164336000Y-102118000D02*
X164336000Y-103048000D01*
X164336000Y-102118000D02*
X165796000Y-102118000D01*
X164336000Y-105278000D02*
X164336000Y-104348000D01*
X165136000Y-105278000D02*
X164336000Y-105278000D01*
X165136000Y-105278000D02*
X165936000Y-105278000D01*
X166676000Y-105638000D02*
X166196000Y-105638000D01*
X166436000Y-105308000D01*
X166676000Y-105638000D01*
G36*
X166676000Y-105638000D02*
G01*
X166196000Y-105638000D01*
X166436000Y-105308000D01*
X166676000Y-105638000D01*
G37*
%TO.C,R2*%
X197357276Y-78319849D02*
X197866724Y-78319849D01*
X197357276Y-79364849D02*
X197866724Y-79364849D01*
%TO.C,C3*%
X209960267Y-92708000D02*
X209667733Y-92708000D01*
X209960267Y-93728000D02*
X209667733Y-93728000D01*
%TO.C,Q4*%
X202676000Y-79802349D02*
X201876000Y-79802349D01*
X202676000Y-79802349D02*
X203476000Y-79802349D01*
X203476000Y-79802349D02*
X203476000Y-80732349D01*
X203476000Y-82962349D02*
X202016000Y-82962349D01*
X203476000Y-82962349D02*
X203476000Y-82032349D01*
X201376000Y-79772349D02*
X201136000Y-79442349D01*
X201616000Y-79442349D01*
X201376000Y-79772349D01*
G36*
X201376000Y-79772349D02*
G01*
X201136000Y-79442349D01*
X201616000Y-79442349D01*
X201376000Y-79772349D01*
G37*
%TO.C,R13*%
X128362064Y-106532000D02*
X126907936Y-106532000D01*
X128362064Y-108352000D02*
X126907936Y-108352000D01*
%TO.C,D8*%
X135002000Y-127208000D02*
X135002000Y-121698000D01*
X135002000Y-127208000D02*
X138302000Y-127208000D01*
X138302000Y-127208000D02*
X138302000Y-121698000D01*
%TO.C,R6*%
X209422276Y-74570649D02*
X209931724Y-74570649D01*
X209422276Y-75615649D02*
X209931724Y-75615649D01*
%TO.C,R14*%
X120931000Y-103605064D02*
X120931000Y-103150936D01*
X122401000Y-103605064D02*
X122401000Y-103150936D01*
%TO.C,Q5*%
X208597000Y-79863349D02*
X207797000Y-79863349D01*
X208597000Y-79863349D02*
X209397000Y-79863349D01*
X209397000Y-79863349D02*
X209397000Y-80793349D01*
X209397000Y-83023349D02*
X207937000Y-83023349D01*
X209397000Y-83023349D02*
X209397000Y-82093349D01*
X207297000Y-79833349D02*
X207057000Y-79503349D01*
X207537000Y-79503349D01*
X207297000Y-79833349D01*
G36*
X207297000Y-79833349D02*
G01*
X207057000Y-79503349D01*
X207537000Y-79503349D01*
X207297000Y-79833349D01*
G37*
%TO.C,D6*%
X120666000Y-105590000D02*
X120666000Y-109600000D01*
X122666000Y-105590000D02*
X120666000Y-105590000D01*
X122666000Y-105590000D02*
X122666000Y-109600000D01*
%TO.C,R18*%
X126058664Y-99188600D02*
X125604536Y-99188600D01*
X126058664Y-100658600D02*
X125604536Y-100658600D01*
%TO.C,R5*%
X209408276Y-76287849D02*
X209917724Y-76287849D01*
X209408276Y-77332849D02*
X209917724Y-77332849D01*
%TO.C,R1*%
X197333776Y-76541849D02*
X197843224Y-76541849D01*
X197333776Y-77586849D02*
X197843224Y-77586849D01*
%TO.C,R20*%
X126049264Y-96572400D02*
X125595136Y-96572400D01*
X126049264Y-98042400D02*
X125595136Y-98042400D01*
%TO.C,R12*%
X130082936Y-94086000D02*
X131537064Y-94086000D01*
X130082936Y-95906000D02*
X131537064Y-95906000D01*
%TO.C,Q1*%
X192897000Y-74722349D02*
X192097000Y-74722349D01*
X192897000Y-74722349D02*
X193697000Y-74722349D01*
X193697000Y-74722349D02*
X193697000Y-75652349D01*
X193697000Y-77882349D02*
X192237000Y-77882349D01*
X193697000Y-77882349D02*
X193697000Y-76952349D01*
X191597000Y-74692349D02*
X191357000Y-74362349D01*
X191837000Y-74362349D01*
X191597000Y-74692349D01*
G36*
X191597000Y-74692349D02*
G01*
X191357000Y-74362349D01*
X191837000Y-74362349D01*
X191597000Y-74692349D01*
G37*
%TO.C,R3*%
X197333776Y-74763849D02*
X197843224Y-74763849D01*
X197333776Y-75808849D02*
X197843224Y-75808849D01*
%TO.C,R11*%
X133384936Y-96626000D02*
X134839064Y-96626000D01*
X133384936Y-98446000D02*
X134839064Y-98446000D01*
%TO.C,D7*%
X138326200Y-106289600D02*
X134316200Y-106289600D01*
X138326200Y-108289600D02*
X134316200Y-108289600D01*
X138326200Y-108289600D02*
X138326200Y-106289600D01*
%TO.C,R17*%
X121454936Y-96547000D02*
X121909064Y-96547000D01*
X121454936Y-98017000D02*
X121909064Y-98017000D01*
%TO.C,R16*%
X140765264Y-106605400D02*
X140311136Y-106605400D01*
X140765264Y-108075400D02*
X140311136Y-108075400D01*
%TO.C,C8*%
X145422252Y-106453000D02*
X144899748Y-106453000D01*
X145422252Y-107923000D02*
X144899748Y-107923000D01*
%TO.C,R21*%
X132488000Y-124306064D02*
X132488000Y-123851936D01*
X133958000Y-124306064D02*
X133958000Y-123851936D01*
D12*
%TO.C,D5*%
X144703500Y-93071000D02*
X144703500Y-96921000D01*
X144703500Y-96921000D02*
X144971000Y-96921000D01*
X144971000Y-93071000D02*
X144703500Y-93071000D01*
X145566000Y-99496000D02*
X146066000Y-99496000D01*
X145816000Y-99746000D02*
X145816000Y-99246000D01*
X148316000Y-99746000D02*
X148316000Y-99246000D01*
X149161000Y-96921000D02*
X149428500Y-96921000D01*
X149428500Y-93071000D02*
X149161000Y-93071000D01*
X149428500Y-96921000D02*
X149428500Y-93071000D01*
D11*
%TO.C,U2*%
X131826000Y-100564000D02*
X129876000Y-100564000D01*
X131826000Y-100564000D02*
X133776000Y-100564000D01*
X131826000Y-105684000D02*
X129876000Y-105684000D01*
X131826000Y-105684000D02*
X133776000Y-105684000D01*
X129126000Y-100659000D02*
X128886000Y-100329000D01*
X129366000Y-100329000D01*
X129126000Y-100659000D01*
G36*
X129126000Y-100659000D02*
G01*
X128886000Y-100329000D01*
X129366000Y-100329000D01*
X129126000Y-100659000D01*
G37*
%TO.C,H1*%
X142008000Y-82976749D02*
X124878000Y-82976749D01*
X142008000Y-86696749D02*
X124878000Y-86696749D01*
%TO.C,H2*%
X142008000Y-75864000D02*
X124878000Y-75864000D01*
X142008000Y-79584000D02*
X124878000Y-79584000D01*
%TO.C,R10*%
X142459064Y-96626000D02*
X141004936Y-96626000D01*
X142459064Y-98446000D02*
X141004936Y-98446000D01*
%TD*%
M02*
