%TF.GenerationSoftware,KiCad,Pcbnew,9.0.2*%
%TF.CreationDate,2025-11-28T18:19:18-08:00*%
%TF.ProjectId,BLE_Lamp,424c455f-4c61-46d7-902e-6b696361645f,rev?*%
%TF.SameCoordinates,Original*%
%TF.FileFunction,Soldermask,Top*%
%TF.FilePolarity,Negative*%
%FSLAX46Y46*%
G04 Gerber Fmt 4.6, Leading zero omitted, Abs format (unit mm)*
G04 Created by KiCad (PCBNEW 9.0.2) date 2025-11-28 18:19:18*
%MOMM*%
%LPD*%
G01*
G04 APERTURE LIST*
G04 Aperture macros list*
%AMRoundRect*
0 Rectangle with rounded corners*
0 $1 Rounding radius*
0 $2 $3 $4 $5 $6 $7 $8 $9 X,Y pos of 4 corners*
0 Add a 4 corners polygon primitive as box body*
4,1,4,$2,$3,$4,$5,$6,$7,$8,$9,$2,$3,0*
0 Add four circle primitives for the rounded corners*
1,1,$1+$1,$2,$3*
1,1,$1+$1,$4,$5*
1,1,$1+$1,$6,$7*
1,1,$1+$1,$8,$9*
0 Add four rect primitives between the rounded corners*
20,1,$1+$1,$2,$3,$4,$5,0*
20,1,$1+$1,$4,$5,$6,$7,0*
20,1,$1+$1,$6,$7,$8,$9,0*
20,1,$1+$1,$8,$9,$2,$3,0*%
G04 Aperture macros list end*
%ADD10C,1.700000*%
%ADD11R,1.700000X1.700000*%
%ADD12RoundRect,0.237500X-0.250000X-0.237500X0.250000X-0.237500X0.250000X0.237500X-0.250000X0.237500X0*%
%ADD13RoundRect,0.200000X-0.750000X-0.200000X0.750000X-0.200000X0.750000X0.200000X-0.750000X0.200000X0*%
%ADD14RoundRect,0.237500X0.250000X0.237500X-0.250000X0.237500X-0.250000X-0.237500X0.250000X-0.237500X0*%
%ADD15RoundRect,0.250000X-0.350000X-0.450000X0.350000X-0.450000X0.350000X0.450000X-0.350000X0.450000X0*%
%ADD16RoundRect,0.237500X-0.287500X-0.237500X0.287500X-0.237500X0.287500X0.237500X-0.287500X0.237500X0*%
%ADD17RoundRect,0.237500X0.237500X-0.300000X0.237500X0.300000X-0.237500X0.300000X-0.237500X-0.300000X0*%
%ADD18RoundRect,0.250000X0.350000X0.450000X-0.350000X0.450000X-0.350000X-0.450000X0.350000X-0.450000X0*%
%ADD19RoundRect,0.250000X-0.300000X0.300000X-0.300000X-0.300000X0.300000X-0.300000X0.300000X0.300000X0*%
%ADD20RoundRect,0.200000X0.750000X0.200000X-0.750000X0.200000X-0.750000X-0.200000X0.750000X-0.200000X0*%
%ADD21RoundRect,0.237500X0.300000X0.237500X-0.300000X0.237500X-0.300000X-0.237500X0.300000X-0.237500X0*%
%ADD22RoundRect,0.250000X0.400000X0.625000X-0.400000X0.625000X-0.400000X-0.625000X0.400000X-0.625000X0*%
%ADD23RoundRect,0.250000X0.650000X-1.000000X0.650000X1.000000X-0.650000X1.000000X-0.650000X-1.000000X0*%
%ADD24RoundRect,0.250000X0.450000X-0.350000X0.450000X0.350000X-0.450000X0.350000X-0.450000X-0.350000X0*%
%ADD25RoundRect,0.225000X-0.375000X0.225000X-0.375000X-0.225000X0.375000X-0.225000X0.375000X0.225000X0*%
%ADD26C,6.400000*%
%ADD27RoundRect,0.250000X-0.400000X-0.625000X0.400000X-0.625000X0.400000X0.625000X-0.400000X0.625000X0*%
%ADD28RoundRect,0.225000X0.225000X0.375000X-0.225000X0.375000X-0.225000X-0.375000X0.225000X-0.375000X0*%
%ADD29RoundRect,0.250000X0.337500X0.475000X-0.337500X0.475000X-0.337500X-0.475000X0.337500X-0.475000X0*%
%ADD30RoundRect,0.102000X0.525000X-0.937500X0.525000X0.937500X-0.525000X0.937500X-0.525000X-0.937500X0*%
%ADD31RoundRect,0.150000X-0.825000X-0.150000X0.825000X-0.150000X0.825000X0.150000X-0.825000X0.150000X0*%
%ADD32C,4.000000*%
%ADD33RoundRect,0.250002X-1.499998X1.499998X-1.499998X-1.499998X1.499998X-1.499998X1.499998X1.499998X0*%
%ADD34C,1.600000*%
%ADD35RoundRect,0.250000X0.550000X-0.550000X0.550000X0.550000X-0.550000X0.550000X-0.550000X-0.550000X0*%
%ADD36R,2.500000X2.500000*%
%ADD37O,2.500000X2.500000*%
%ADD38RoundRect,0.102000X-0.900000X0.900000X-0.900000X-0.900000X0.900000X-0.900000X0.900000X0.900000X0*%
%ADD39C,2.004000*%
%ADD40RoundRect,0.250000X-0.550000X0.550000X-0.550000X-0.550000X0.550000X-0.550000X0.550000X0.550000X0*%
%ADD41C,2.000000*%
%ADD42RoundRect,0.250000X-0.550000X-0.550000X0.550000X-0.550000X0.550000X0.550000X-0.550000X0.550000X0*%
%ADD43C,1.524800*%
%ADD44RoundRect,0.250001X-1.149999X-1.149999X1.149999X-1.149999X1.149999X1.149999X-1.149999X1.149999X0*%
%ADD45C,2.800000*%
G04 APERTURE END LIST*
D10*
%TO.C,J2*%
X178308000Y-132080000D03*
X175768000Y-132080000D03*
X173228000Y-132080000D03*
X170688000Y-132080000D03*
X168148000Y-132080000D03*
X165608000Y-132080000D03*
X163068000Y-132080000D03*
X160528000Y-132080000D03*
X157988000Y-132080000D03*
D11*
X155448000Y-132080000D03*
%TD*%
D12*
%TO.C,R4*%
X196699500Y-81763349D03*
X198524500Y-81763349D03*
%TD*%
D13*
%TO.C,Q3*%
X203502000Y-75098349D03*
X203502000Y-76998349D03*
X206502000Y-76048349D03*
%TD*%
D14*
%TO.C,R7*%
X186459500Y-92456000D03*
X184634500Y-92456000D03*
%TD*%
D15*
%TO.C,R19*%
X120682000Y-94615000D03*
X122682000Y-94615000D03*
%TD*%
D12*
%TO.C,R8*%
X208901500Y-91440000D03*
X210726500Y-91440000D03*
%TD*%
D16*
%TO.C,D1*%
X208802000Y-78588349D03*
X210552000Y-78588349D03*
%TD*%
D17*
%TO.C,C2*%
X198882000Y-102564849D03*
X198882000Y-100839849D03*
%TD*%
D13*
%TO.C,Q2*%
X191437000Y-80493349D03*
X191437000Y-82393349D03*
X194437000Y-81443349D03*
%TD*%
D18*
%TO.C,R15*%
X144078200Y-104927400D03*
X142078200Y-104927400D03*
%TD*%
D19*
%TO.C,D3*%
X164846000Y-92072000D03*
X164846000Y-94872000D03*
%TD*%
D20*
%TO.C,Q6*%
X166596000Y-104648000D03*
X166596000Y-102748000D03*
X163596000Y-103698000D03*
%TD*%
D12*
%TO.C,R2*%
X196699500Y-78842349D03*
X198524500Y-78842349D03*
%TD*%
D21*
%TO.C,C3*%
X210676500Y-93218000D03*
X208951500Y-93218000D03*
%TD*%
D13*
%TO.C,Q4*%
X201216000Y-80432349D03*
X201216000Y-82332349D03*
X204216000Y-81382349D03*
%TD*%
D22*
%TO.C,R13*%
X129185000Y-107442000D03*
X126085000Y-107442000D03*
%TD*%
D23*
%TO.C,D8*%
X136652000Y-125698000D03*
X136652000Y-121698000D03*
%TD*%
D12*
%TO.C,R6*%
X208764500Y-75093149D03*
X210589500Y-75093149D03*
%TD*%
D24*
%TO.C,R14*%
X121666000Y-104378000D03*
X121666000Y-102378000D03*
%TD*%
D13*
%TO.C,Q5*%
X207137000Y-80493349D03*
X207137000Y-82393349D03*
X210137000Y-81443349D03*
%TD*%
D25*
%TO.C,D6*%
X121666000Y-106300000D03*
X121666000Y-109600000D03*
%TD*%
D18*
%TO.C,R18*%
X126831600Y-99923600D03*
X124831600Y-99923600D03*
%TD*%
D26*
%TO.C,H5*%
X120000000Y-130000000D03*
%TD*%
D12*
%TO.C,R5*%
X208750500Y-76810349D03*
X210575500Y-76810349D03*
%TD*%
%TO.C,R1*%
X196676000Y-77064349D03*
X198501000Y-77064349D03*
%TD*%
D18*
%TO.C,R20*%
X126822200Y-97307400D03*
X124822200Y-97307400D03*
%TD*%
D27*
%TO.C,R12*%
X129260000Y-94996000D03*
X132360000Y-94996000D03*
%TD*%
D13*
%TO.C,Q1*%
X191437000Y-75352349D03*
X191437000Y-77252349D03*
X194437000Y-76302349D03*
%TD*%
D12*
%TO.C,R3*%
X196676000Y-75286349D03*
X198501000Y-75286349D03*
%TD*%
D27*
%TO.C,R11*%
X132562000Y-97536000D03*
X135662000Y-97536000D03*
%TD*%
D28*
%TO.C,D7*%
X137616200Y-107289600D03*
X134316200Y-107289600D03*
%TD*%
D26*
%TO.C,H3*%
X120000000Y-70000000D03*
%TD*%
D15*
%TO.C,R17*%
X120682000Y-97282000D03*
X122682000Y-97282000D03*
%TD*%
D26*
%TO.C,H6*%
X210000000Y-130000000D03*
%TD*%
D18*
%TO.C,R16*%
X141538200Y-107340400D03*
X139538200Y-107340400D03*
%TD*%
D29*
%TO.C,C8*%
X146198500Y-107188000D03*
X144123500Y-107188000D03*
%TD*%
D24*
%TO.C,R21*%
X133223000Y-125079000D03*
X133223000Y-123079000D03*
%TD*%
D26*
%TO.C,H4*%
X210000000Y-70000000D03*
%TD*%
D30*
%TO.C,D5*%
X145816000Y-97658500D03*
X145816000Y-92333500D03*
X148316000Y-97658500D03*
X148316000Y-92333500D03*
%TD*%
D31*
%TO.C,U2*%
X129351000Y-101219000D03*
X129351000Y-102489000D03*
X129351000Y-103759000D03*
X129351000Y-105029000D03*
X134301000Y-105029000D03*
X134301000Y-103759000D03*
X134301000Y-102489000D03*
X134301000Y-101219000D03*
%TD*%
D32*
%TO.C,H1*%
X123018000Y-84836749D03*
D33*
X144018000Y-84836749D03*
%TD*%
D32*
%TO.C,H2*%
X123018000Y-77724000D03*
D33*
X144018000Y-77724000D03*
%TD*%
D22*
%TO.C,R10*%
X143282000Y-97536000D03*
X140182000Y-97536000D03*
%TD*%
D34*
%TO.C,C5*%
X192903000Y-98106349D03*
X192903000Y-93106349D03*
%TD*%
D11*
%TO.C,J3*%
X209804000Y-108712000D03*
D10*
X209804000Y-106172000D03*
X209804000Y-103632000D03*
X209804000Y-101092000D03*
X209804000Y-98552000D03*
X209804000Y-96012000D03*
%TD*%
D34*
%TO.C,FR1*%
X148590000Y-89662000D03*
X148590000Y-74422000D03*
%TD*%
D35*
%TO.C,C7*%
X126263400Y-104216200D03*
D34*
X126263400Y-102216200D03*
%TD*%
D36*
%TO.C,K1*%
X158656900Y-93345000D03*
D37*
X160656900Y-87345000D03*
X172856900Y-87345000D03*
X172856900Y-99345000D03*
X160656900Y-99345000D03*
%TD*%
D38*
%TO.C,U3*%
X126648200Y-110247200D03*
D39*
X129148200Y-110247200D03*
X131648200Y-110247200D03*
X134148200Y-110247200D03*
X136648200Y-110247200D03*
X136648200Y-118757200D03*
X134148200Y-118757200D03*
X131648200Y-118757200D03*
X129148200Y-118757200D03*
X126648200Y-118757200D03*
%TD*%
D40*
%TO.C,C1*%
X200660000Y-123673349D03*
D34*
X200660000Y-127473349D03*
%TD*%
D35*
%TO.C,C6*%
X137922000Y-97536000D03*
D34*
X137922000Y-93736000D03*
%TD*%
D41*
%TO.C,L1*%
X188468000Y-125476000D03*
X193548000Y-125476000D03*
%TD*%
D34*
%TO.C,C4*%
X192903000Y-100940349D03*
X192903000Y-105940349D03*
%TD*%
D42*
%TO.C,U1*%
X196723000Y-118212349D03*
D34*
X196723000Y-115672349D03*
X196723000Y-113132349D03*
X196723000Y-110592349D03*
X196723000Y-108052349D03*
X196723000Y-105512349D03*
X196723000Y-102972349D03*
X196723000Y-100432349D03*
X196723000Y-97892349D03*
X196723000Y-95352349D03*
X196723000Y-92812349D03*
X196723000Y-90272349D03*
X196723000Y-87732349D03*
X196723000Y-85192349D03*
X204343000Y-85192349D03*
X204343000Y-87732349D03*
X204343000Y-90272349D03*
X204343000Y-92812349D03*
X204343000Y-95352349D03*
X204343000Y-97892349D03*
X204343000Y-100432349D03*
X204343000Y-102972349D03*
X204343000Y-105512349D03*
X204343000Y-108052349D03*
X204343000Y-110592349D03*
X204343000Y-113132349D03*
X204343000Y-115672349D03*
X204343000Y-118212349D03*
%TD*%
D43*
%TO.C,Y1*%
X187960000Y-101829349D03*
X187960000Y-97003349D03*
%TD*%
D40*
%TO.C,C10*%
X140716000Y-125324349D03*
D34*
X140716000Y-129124349D03*
%TD*%
D41*
%TO.C,C9*%
X142367000Y-120490000D03*
X142367000Y-110490000D03*
%TD*%
D44*
%TO.C,J1*%
X154512000Y-76937349D03*
D45*
X159512000Y-76937349D03*
X164512000Y-76937349D03*
X169512000Y-76937349D03*
X174512000Y-76937349D03*
X179512000Y-76937349D03*
%TD*%
M02*
