%TF.GenerationSoftware,KiCad,Pcbnew,9.0.2*%
%TF.CreationDate,2025-11-28T18:19:18-08:00*%
%TF.ProjectId,BLE_Lamp,424c455f-4c61-46d7-902e-6b696361645f,rev?*%
%TF.SameCoordinates,Original*%
%TF.FileFunction,Copper,L2,Bot*%
%TF.FilePolarity,Positive*%
%FSLAX46Y46*%
G04 Gerber Fmt 4.6, Leading zero omitted, Abs format (unit mm)*
G04 Created by KiCad (PCBNEW 9.0.2) date 2025-11-28 18:19:18*
%MOMM*%
%LPD*%
G01*
G04 APERTURE LIST*
G04 Aperture macros list*
%AMRoundRect*
0 Rectangle with rounded corners*
0 $1 Rounding radius*
0 $2 $3 $4 $5 $6 $7 $8 $9 X,Y pos of 4 corners*
0 Add a 4 corners polygon primitive as box body*
4,1,4,$2,$3,$4,$5,$6,$7,$8,$9,$2,$3,0*
0 Add four circle primitives for the rounded corners*
1,1,$1+$1,$2,$3*
1,1,$1+$1,$4,$5*
1,1,$1+$1,$6,$7*
1,1,$1+$1,$8,$9*
0 Add four rect primitives between the rounded corners*
20,1,$1+$1,$2,$3,$4,$5,0*
20,1,$1+$1,$4,$5,$6,$7,0*
20,1,$1+$1,$6,$7,$8,$9,0*
20,1,$1+$1,$8,$9,$2,$3,0*%
G04 Aperture macros list end*
%TA.AperFunction,ComponentPad*%
%ADD10C,1.700000*%
%TD*%
%TA.AperFunction,ComponentPad*%
%ADD11R,1.700000X1.700000*%
%TD*%
%TA.AperFunction,ComponentPad*%
%ADD12C,6.400000*%
%TD*%
%TA.AperFunction,ComponentPad*%
%ADD13RoundRect,0.250002X-1.499998X1.499998X-1.499998X-1.499998X1.499998X-1.499998X1.499998X1.499998X0*%
%TD*%
%TA.AperFunction,ComponentPad*%
%ADD14C,1.600000*%
%TD*%
%TA.AperFunction,SMDPad,CuDef*%
%ADD15RoundRect,0.237500X-0.287500X-0.237500X0.287500X-0.237500X0.287500X0.237500X-0.287500X0.237500X0*%
%TD*%
%TA.AperFunction,ComponentPad*%
%ADD16RoundRect,0.250000X0.550000X-0.550000X0.550000X0.550000X-0.550000X0.550000X-0.550000X-0.550000X0*%
%TD*%
%TA.AperFunction,ComponentPad*%
%ADD17R,2.500000X2.500000*%
%TD*%
%TA.AperFunction,ComponentPad*%
%ADD18O,2.500000X2.500000*%
%TD*%
%TA.AperFunction,ComponentPad*%
%ADD19R,1.800000X1.800000*%
%TD*%
%TA.AperFunction,ComponentPad*%
%ADD20C,1.800000*%
%TD*%
%TA.AperFunction,ComponentPad*%
%ADD21RoundRect,0.250000X-0.550000X0.550000X-0.550000X-0.550000X0.550000X-0.550000X0.550000X0.550000X0*%
%TD*%
%TA.AperFunction,ComponentPad*%
%ADD22C,2.000000*%
%TD*%
%TA.AperFunction,ComponentPad*%
%ADD23RoundRect,0.250000X-0.550000X-0.550000X0.550000X-0.550000X0.550000X0.550000X-0.550000X0.550000X0*%
%TD*%
%TA.AperFunction,ComponentPad*%
%ADD24C,1.320800*%
%TD*%
%TA.AperFunction,ComponentPad*%
%ADD25RoundRect,0.250001X-1.149999X-1.149999X1.149999X-1.149999X1.149999X1.149999X-1.149999X1.149999X0*%
%TD*%
%TA.AperFunction,ComponentPad*%
%ADD26C,2.800000*%
%TD*%
%TA.AperFunction,ViaPad*%
%ADD27C,0.600000*%
%TD*%
%TA.AperFunction,Conductor*%
%ADD28C,0.508000*%
%TD*%
%TA.AperFunction,Conductor*%
%ADD29C,0.254000*%
%TD*%
G04 APERTURE END LIST*
D10*
%TO.P,J2,10,Pin_10*%
%TO.N,/SCK*%
X178308000Y-132080000D03*
%TO.P,J2,9,Pin_9*%
%TO.N,/MISO*%
X175768000Y-132080000D03*
%TO.P,J2,8,Pin_8*%
%TO.N,/MOSI*%
X173228000Y-132080000D03*
%TO.P,J2,7,Pin_7*%
%TO.N,/CS*%
X170688000Y-132080000D03*
%TO.P,J2,6,Pin_6*%
%TO.N,/RDY*%
X168148000Y-132080000D03*
%TO.P,J2,5,Pin_5*%
%TO.N,unconnected-(J2-Pin_5-Pad5)*%
X165608000Y-132080000D03*
%TO.P,J2,4,Pin_4*%
%TO.N,/RST*%
X163068000Y-132080000D03*
%TO.P,J2,3,Pin_3*%
%TO.N,unconnected-(J2-Pin_3-Pad3)*%
X160528000Y-132080000D03*
%TO.P,J2,2,Pin_2*%
%TO.N,GND*%
X157988000Y-132080000D03*
D11*
%TO.P,J2,1,Pin_1*%
%TO.N,/+VSW*%
X155448000Y-132080000D03*
%TD*%
D12*
%TO.P,H5,1*%
%TO.N,N/C*%
X120000000Y-130000000D03*
%TD*%
%TO.P,H3,1*%
%TO.N,N/C*%
X120000000Y-70000000D03*
%TD*%
%TO.P,H6,1*%
%TO.N,N/C*%
X210000000Y-130000000D03*
%TD*%
%TO.P,H4,1*%
%TO.N,N/C*%
X210000000Y-70000000D03*
%TD*%
D13*
%TO.P,H1,1,1*%
%TO.N,/AC_N*%
X144018000Y-84836749D03*
%TD*%
%TO.P,H2,1,1*%
%TO.N,/AC_L*%
X144018000Y-77724000D03*
%TD*%
D14*
%TO.P,C5,1*%
%TO.N,Net-(U1-XTAL2{slash}PB7)*%
X192903000Y-98106349D03*
%TO.P,C5,2*%
%TO.N,GND*%
X192903000Y-93106349D03*
%TD*%
D11*
%TO.P,J3,1,Pin_1*%
%TO.N,GND*%
X209804000Y-108712000D03*
D10*
%TO.P,J3,2,Pin_2*%
%TO.N,unconnected-(J3-Pin_2-Pad2)*%
X209804000Y-106172000D03*
%TO.P,J3,3,Pin_3*%
%TO.N,/+5V_USB*%
X209804000Y-103632000D03*
%TO.P,J3,4,Pin_4*%
%TO.N,/RX*%
X209804000Y-101092000D03*
%TO.P,J3,5,Pin_5*%
%TO.N,/TX*%
X209804000Y-98552000D03*
%TO.P,J3,6,Pin_6*%
%TO.N,/RESET*%
X209804000Y-96012000D03*
%TD*%
D15*
%TO.P,D2,1,K*%
%TO.N,Net-(D2-K)*%
X180735000Y-92456000D03*
%TO.P,D2,2,A*%
%TO.N,Net-(D2-A)*%
X182485000Y-92456000D03*
%TD*%
D14*
%TO.P,FR1,1*%
%TO.N,Net-(D5-Pad4)*%
X148590000Y-89662000D03*
%TO.P,FR1,2*%
%TO.N,/AC_L*%
X148590000Y-74422000D03*
%TD*%
D16*
%TO.P,C7,1*%
%TO.N,Net-(U2-VCC)*%
X126263400Y-104216200D03*
D14*
%TO.P,C7,2*%
%TO.N,PGND*%
X126263400Y-102216200D03*
%TD*%
D17*
%TO.P,K1,1*%
%TO.N,/AC_L*%
X158656900Y-93345000D03*
D18*
%TO.P,K1,2*%
%TO.N,/+5V*%
X160656900Y-87345000D03*
%TO.P,K1,3*%
%TO.N,Net-(J1-Pin_2)*%
X172856900Y-87345000D03*
%TO.P,K1,4*%
%TO.N,unconnected-(K1-Pad4)*%
X172856900Y-99345000D03*
%TO.P,K1,5*%
%TO.N,Net-(D3-A)*%
X160656900Y-99345000D03*
%TD*%
D19*
%TO.P,U3,1,1*%
%TO.N,Net-(D6-A)*%
X126648200Y-110247200D03*
D20*
%TO.P,U3,2,2*%
%TO.N,PGND*%
X129148200Y-110247200D03*
%TO.P,U3,3,3*%
%TO.N,unconnected-(U3-Pad3)*%
X131648200Y-110247200D03*
%TO.P,U3,4,4*%
%TO.N,Net-(D7-A)*%
X134148200Y-110247200D03*
%TO.P,U3,5,5*%
%TO.N,Net-(C6-Pad1)*%
X136648200Y-110247200D03*
%TO.P,U3,6,6*%
%TO.N,Net-(D8-A)*%
X136648200Y-118757200D03*
%TO.P,U3,7,7*%
%TO.N,unconnected-(U3-Pad7)*%
X134148200Y-118757200D03*
%TO.P,U3,8,8*%
%TO.N,unconnected-(U3-Pad8)*%
X131648200Y-118757200D03*
%TO.P,U3,9,9*%
%TO.N,unconnected-(U3-Pad9)*%
X129148200Y-118757200D03*
%TO.P,U3,10,10*%
%TO.N,GND*%
X126648200Y-118757200D03*
%TD*%
D21*
%TO.P,C1,1*%
%TO.N,/+5V_FILTERED*%
X200660000Y-123673349D03*
D14*
%TO.P,C1,2*%
%TO.N,GND*%
X200660000Y-127473349D03*
%TD*%
D16*
%TO.P,C6,1*%
%TO.N,Net-(C6-Pad1)*%
X137922000Y-97536000D03*
D14*
%TO.P,C6,2*%
%TO.N,PGND*%
X137922000Y-93736000D03*
%TD*%
D22*
%TO.P,L1,1,1*%
%TO.N,/+5V*%
X188468000Y-125476000D03*
%TO.P,L1,2,2*%
%TO.N,/+5V_FILTERED*%
X193548000Y-125476000D03*
%TD*%
D14*
%TO.P,C4,1*%
%TO.N,Net-(U1-XTAL1{slash}PB6)*%
X192903000Y-100940349D03*
%TO.P,C4,2*%
%TO.N,GND*%
X192903000Y-105940349D03*
%TD*%
D23*
%TO.P,U1,1,~{RESET}/PC6*%
%TO.N,Net-(U1-~{RESET}{slash}PC6)*%
X196723000Y-118212349D03*
D14*
%TO.P,U1,2,PD0*%
%TO.N,/RX*%
X196723000Y-115672349D03*
%TO.P,U1,3,PD1*%
%TO.N,/TX*%
X196723000Y-113132349D03*
%TO.P,U1,4,PD2*%
%TO.N,/RDY*%
X196723000Y-110592349D03*
%TO.P,U1,5,PD3*%
%TO.N,unconnected-(U1-PD3-Pad5)*%
X196723000Y-108052349D03*
%TO.P,U1,6,PD4*%
%TO.N,/D4*%
X196723000Y-105512349D03*
%TO.P,U1,7,VCC*%
%TO.N,/+VSW*%
X196723000Y-102972349D03*
%TO.P,U1,8,GND*%
%TO.N,GND*%
X196723000Y-100432349D03*
%TO.P,U1,9,XTAL1/PB6*%
%TO.N,Net-(U1-XTAL1{slash}PB6)*%
X196723000Y-97892349D03*
%TO.P,U1,10,XTAL2/PB7*%
%TO.N,Net-(U1-XTAL2{slash}PB7)*%
X196723000Y-95352349D03*
%TO.P,U1,11,PD5*%
%TO.N,unconnected-(U1-PD5-Pad11)*%
X196723000Y-92812349D03*
%TO.P,U1,12,PD6*%
%TO.N,unconnected-(U1-PD6-Pad12)*%
X196723000Y-90272349D03*
%TO.P,U1,13,PD7*%
%TO.N,unconnected-(U1-PD7-Pad13)*%
X196723000Y-87732349D03*
%TO.P,U1,14,PB0*%
%TO.N,unconnected-(U1-PB0-Pad14)*%
X196723000Y-85192349D03*
%TO.P,U1,15,PB1*%
%TO.N,/RST*%
X204343000Y-85192349D03*
%TO.P,U1,16,PB2*%
%TO.N,/CS*%
X204343000Y-87732349D03*
%TO.P,U1,17,PB3*%
%TO.N,/MOSI*%
X204343000Y-90272349D03*
%TO.P,U1,18,PB4*%
%TO.N,/MISO*%
X204343000Y-92812349D03*
%TO.P,U1,19,PB5*%
%TO.N,/SCK*%
X204343000Y-95352349D03*
%TO.P,U1,20,AVCC*%
%TO.N,/+VSW*%
X204343000Y-97892349D03*
%TO.P,U1,21,AREF*%
%TO.N,unconnected-(U1-AREF-Pad21)*%
X204343000Y-100432349D03*
%TO.P,U1,22,GND*%
%TO.N,GND*%
X204343000Y-102972349D03*
%TO.P,U1,23,PC0*%
%TO.N,unconnected-(U1-PC0-Pad23)*%
X204343000Y-105512349D03*
%TO.P,U1,24,PC1*%
%TO.N,unconnected-(U1-PC1-Pad24)*%
X204343000Y-108052349D03*
%TO.P,U1,25,PC2*%
%TO.N,unconnected-(U1-PC2-Pad25)*%
X204343000Y-110592349D03*
%TO.P,U1,26,PC3*%
%TO.N,unconnected-(U1-PC3-Pad26)*%
X204343000Y-113132349D03*
%TO.P,U1,27,PC4*%
%TO.N,unconnected-(U1-PC4-Pad27)*%
X204343000Y-115672349D03*
%TO.P,U1,28,PC5*%
%TO.N,unconnected-(U1-PC5-Pad28)*%
X204343000Y-118212349D03*
%TD*%
D24*
%TO.P,Y1,1*%
%TO.N,Net-(U1-XTAL1{slash}PB6)*%
X187960000Y-101829349D03*
%TO.P,Y1,2*%
%TO.N,Net-(U1-XTAL2{slash}PB7)*%
X187960000Y-97003349D03*
%TD*%
D21*
%TO.P,C10,1*%
%TO.N,/+5V*%
X140716000Y-125324349D03*
D14*
%TO.P,C10,2*%
%TO.N,GND*%
X140716000Y-129124349D03*
%TD*%
D22*
%TO.P,C9,1*%
%TO.N,GND*%
X142367000Y-120490000D03*
%TO.P,C9,2*%
%TO.N,Net-(C6-Pad1)*%
X142367000Y-110490000D03*
%TD*%
D25*
%TO.P,J1,1,Pin_1*%
%TO.N,/AC_N*%
X154512000Y-76937349D03*
D26*
%TO.P,J1,2,Pin_2*%
%TO.N,Net-(J1-Pin_2)*%
X159512000Y-76937349D03*
%TO.P,J1,3,Pin_3*%
%TO.N,/AC_N*%
X164512000Y-76937349D03*
%TO.P,J1,4,Pin_4*%
%TO.N,Net-(J1-Pin_2)*%
X169512000Y-76937349D03*
%TO.P,J1,5,Pin_5*%
%TO.N,/AC_N*%
X174512000Y-76937349D03*
%TO.P,J1,6,Pin_6*%
%TO.N,Net-(J1-Pin_2)*%
X179512000Y-76937349D03*
%TD*%
D27*
%TO.N,/RDY*%
X168148000Y-110617000D03*
%TO.N,/CS*%
X170688000Y-108501000D03*
%TO.N,/MISO*%
X175768000Y-108501000D03*
%TO.N,/MOSI*%
X173228000Y-108501000D03*
%TO.N,/RST*%
X163068000Y-108501000D03*
%TO.N,/+VSW*%
X201295000Y-93472000D03*
%TO.N,/MISO*%
X198374000Y-104216200D03*
%TO.N,GND*%
X199898000Y-99949000D03*
X131572000Y-123063000D03*
X166596000Y-105562400D03*
X167968349Y-104648000D03*
X189738000Y-81280000D03*
X201930000Y-79248000D03*
X200660000Y-79248000D03*
X199644000Y-78740000D03*
X198374000Y-99568000D03*
X189738000Y-80010000D03*
X132207000Y-122047000D03*
X207518000Y-78740000D03*
%TO.N,Net-(D2-A)*%
X183489600Y-91186000D03*
%TO.N,Net-(D2-K)*%
X170230800Y-102870000D03*
%TO.N,/+VSW*%
X177622200Y-105079800D03*
%TO.N,/+5V_USB*%
X194437000Y-77699349D03*
%TD*%
D28*
%TO.N,/+5V*%
X180442349Y-125324349D02*
X180594000Y-125476000D01*
X140716000Y-125324349D02*
X180442349Y-125324349D01*
X180594000Y-125476000D02*
X188468000Y-125476000D01*
D29*
%TO.N,/RDY*%
X168172651Y-110592349D02*
X196723000Y-110592349D01*
X168148000Y-110617000D02*
X168172651Y-110592349D01*
%TO.N,/RST*%
X163068000Y-108501000D02*
X164965200Y-106603800D01*
D28*
%TO.N,/+VSW*%
X202667349Y-97892349D02*
X204343000Y-97892349D01*
X201295000Y-96520000D02*
X202667349Y-97892349D01*
X201295000Y-93472000D02*
X201295000Y-96520000D01*
D29*
%TO.N,/MISO*%
X198374000Y-104216200D02*
X180052800Y-104216200D01*
X180052800Y-104216200D02*
X175768000Y-108501000D01*
%TO.N,Net-(D2-A)*%
X182485000Y-91479400D02*
X182485000Y-92456000D01*
X183489600Y-91186000D02*
X182778400Y-91186000D01*
X182778400Y-91186000D02*
X182485000Y-91479400D01*
%TO.N,Net-(D2-K)*%
X173126400Y-102870000D02*
X180735000Y-95261400D01*
X180735000Y-95261400D02*
X180735000Y-92456000D01*
X170230800Y-102870000D02*
X173126400Y-102870000D01*
%TO.N,/+VSW*%
X179374800Y-103327200D02*
X193649600Y-103327200D01*
X193649600Y-103327200D02*
X194004451Y-102972349D01*
X177622200Y-105079800D02*
X179374800Y-103327200D01*
X194004451Y-102972349D02*
X196723000Y-102972349D01*
%TO.N,/CS*%
X170688000Y-108501000D02*
X190212800Y-88976200D01*
X203099149Y-88976200D02*
X204343000Y-87732349D01*
X190212800Y-88976200D02*
X203099149Y-88976200D01*
%TO.N,/MOSI*%
X173228000Y-107442000D02*
X189128400Y-91541600D01*
X203073749Y-91541600D02*
X204343000Y-90272349D01*
X189128400Y-91541600D02*
X203073749Y-91541600D01*
X173228000Y-108501000D02*
X173228000Y-107442000D01*
%TO.N,/RST*%
X191185800Y-86436200D02*
X203099149Y-86436200D01*
X171018200Y-106603800D02*
X191185800Y-86436200D01*
X203099149Y-86436200D02*
X204343000Y-85192349D01*
X164965200Y-106603800D02*
X171018200Y-106603800D01*
D28*
%TO.N,/+5V_USB*%
X208534000Y-103632000D02*
X209804000Y-103632000D01*
X206502000Y-83312000D02*
X207518000Y-84328000D01*
X195326000Y-83312000D02*
X206502000Y-83312000D01*
X194437000Y-82423000D02*
X195326000Y-83312000D01*
X194437000Y-77699349D02*
X194437000Y-82423000D01*
X207518000Y-84328000D02*
X207518000Y-102616000D01*
X207518000Y-102616000D02*
X208534000Y-103632000D01*
%TD*%
%TA.AperFunction,Conductor*%
%TO.N,GND*%
G36*
X212003736Y-65500726D02*
G01*
X212293796Y-65518271D01*
X212308659Y-65520076D01*
X212590798Y-65571780D01*
X212605335Y-65575363D01*
X212879172Y-65660695D01*
X212893163Y-65666000D01*
X213154743Y-65783727D01*
X213167989Y-65790680D01*
X213413465Y-65939075D01*
X213425776Y-65947573D01*
X213588887Y-66075362D01*
X213651573Y-66124473D01*
X213662781Y-66134403D01*
X213865596Y-66337218D01*
X213875526Y-66348426D01*
X213995481Y-66501538D01*
X214052422Y-66574217D01*
X214060928Y-66586540D01*
X214209316Y-66832004D01*
X214216275Y-66845263D01*
X214333997Y-67106831D01*
X214339306Y-67120832D01*
X214424635Y-67394663D01*
X214428219Y-67409201D01*
X214479923Y-67691340D01*
X214481728Y-67706205D01*
X214499274Y-67996263D01*
X214499500Y-68003750D01*
X214499500Y-131996249D01*
X214499274Y-132003736D01*
X214481728Y-132293794D01*
X214479923Y-132308659D01*
X214428219Y-132590798D01*
X214424635Y-132605336D01*
X214339306Y-132879167D01*
X214333997Y-132893168D01*
X214216275Y-133154736D01*
X214209316Y-133167995D01*
X214060928Y-133413459D01*
X214052422Y-133425782D01*
X213875526Y-133651573D01*
X213865596Y-133662781D01*
X213662781Y-133865596D01*
X213651573Y-133875526D01*
X213425782Y-134052422D01*
X213413459Y-134060928D01*
X213167995Y-134209316D01*
X213154736Y-134216275D01*
X212893168Y-134333997D01*
X212879167Y-134339306D01*
X212605336Y-134424635D01*
X212590798Y-134428219D01*
X212308659Y-134479923D01*
X212293794Y-134481728D01*
X212003736Y-134499274D01*
X211996249Y-134499500D01*
X118003751Y-134499500D01*
X117996264Y-134499274D01*
X117706205Y-134481728D01*
X117691340Y-134479923D01*
X117409201Y-134428219D01*
X117394663Y-134424635D01*
X117120832Y-134339306D01*
X117106831Y-134333997D01*
X116845263Y-134216275D01*
X116832004Y-134209316D01*
X116586540Y-134060928D01*
X116574217Y-134052422D01*
X116348426Y-133875526D01*
X116337218Y-133865596D01*
X116134403Y-133662781D01*
X116124473Y-133651573D01*
X115947573Y-133425776D01*
X115939075Y-133413465D01*
X115790680Y-133167989D01*
X115783727Y-133154743D01*
X115666000Y-132893163D01*
X115660693Y-132879167D01*
X115618946Y-132745197D01*
X115575363Y-132605335D01*
X115571780Y-132590798D01*
X115520076Y-132308659D01*
X115518271Y-132293794D01*
X115500726Y-132003736D01*
X115500500Y-131996249D01*
X115500500Y-129818209D01*
X116299500Y-129818209D01*
X116299500Y-130181790D01*
X116335137Y-130543630D01*
X116406064Y-130900212D01*
X116406067Y-130900223D01*
X116511614Y-131248165D01*
X116650754Y-131584078D01*
X116650756Y-131584083D01*
X116822140Y-131904720D01*
X116822151Y-131904738D01*
X117024140Y-132207035D01*
X117024150Y-132207049D01*
X117254807Y-132488106D01*
X117511893Y-132745192D01*
X117511898Y-132745196D01*
X117511899Y-132745197D01*
X117792956Y-132975854D01*
X118095268Y-133177853D01*
X118095277Y-133177858D01*
X118095279Y-133177859D01*
X118415916Y-133349243D01*
X118415918Y-133349243D01*
X118415924Y-133349247D01*
X118751836Y-133488386D01*
X119099767Y-133593930D01*
X119099773Y-133593931D01*
X119099776Y-133593932D01*
X119099787Y-133593935D01*
X119445907Y-133662781D01*
X119456369Y-133664862D01*
X119818206Y-133700500D01*
X119818209Y-133700500D01*
X120181791Y-133700500D01*
X120181794Y-133700500D01*
X120543631Y-133664862D01*
X120613045Y-133651054D01*
X120900212Y-133593935D01*
X120900223Y-133593932D01*
X120900223Y-133593931D01*
X120900233Y-133593930D01*
X121248164Y-133488386D01*
X121584076Y-133349247D01*
X121904732Y-133177853D01*
X122207044Y-132975854D01*
X122488101Y-132745197D01*
X122745197Y-132488101D01*
X122975854Y-132207044D01*
X123177853Y-131904732D01*
X123349247Y-131584076D01*
X123488386Y-131248164D01*
X123508416Y-131182135D01*
X154097500Y-131182135D01*
X154097500Y-132977870D01*
X154097501Y-132977876D01*
X154103908Y-133037483D01*
X154154202Y-133172328D01*
X154154206Y-133172335D01*
X154240452Y-133287544D01*
X154240455Y-133287547D01*
X154355664Y-133373793D01*
X154355671Y-133373797D01*
X154490517Y-133424091D01*
X154490516Y-133424091D01*
X154497444Y-133424835D01*
X154550127Y-133430500D01*
X156345872Y-133430499D01*
X156405483Y-133424091D01*
X156540331Y-133373796D01*
X156655546Y-133287546D01*
X156741796Y-133172331D01*
X156792091Y-133037483D01*
X156798500Y-132977873D01*
X156798499Y-131973713D01*
X159177500Y-131973713D01*
X159177500Y-132186287D01*
X159187534Y-132249644D01*
X159194527Y-132293794D01*
X159210754Y-132396243D01*
X159276364Y-132598170D01*
X159276444Y-132598414D01*
X159372951Y-132787820D01*
X159497890Y-132959786D01*
X159648213Y-133110109D01*
X159820179Y-133235048D01*
X159820181Y-133235049D01*
X159820184Y-133235051D01*
X160009588Y-133331557D01*
X160211757Y-133397246D01*
X160421713Y-133430500D01*
X160421714Y-133430500D01*
X160634286Y-133430500D01*
X160634287Y-133430500D01*
X160844243Y-133397246D01*
X161046412Y-133331557D01*
X161235816Y-133235051D01*
X161257789Y-133219086D01*
X161407786Y-133110109D01*
X161407788Y-133110106D01*
X161407792Y-133110104D01*
X161558104Y-132959792D01*
X161558106Y-132959788D01*
X161558109Y-132959786D01*
X161683048Y-132787820D01*
X161683047Y-132787820D01*
X161683051Y-132787816D01*
X161687514Y-132779054D01*
X161735488Y-132728259D01*
X161803308Y-132711463D01*
X161869444Y-132733999D01*
X161908486Y-132779056D01*
X161912951Y-132787820D01*
X162037890Y-132959786D01*
X162188213Y-133110109D01*
X162360179Y-133235048D01*
X162360181Y-133235049D01*
X162360184Y-133235051D01*
X162549588Y-133331557D01*
X162751757Y-133397246D01*
X162961713Y-133430500D01*
X162961714Y-133430500D01*
X163174286Y-133430500D01*
X163174287Y-133430500D01*
X163384243Y-133397246D01*
X163586412Y-133331557D01*
X163775816Y-133235051D01*
X163797789Y-133219086D01*
X163947786Y-133110109D01*
X163947788Y-133110106D01*
X163947792Y-133110104D01*
X164098104Y-132959792D01*
X164098106Y-132959788D01*
X164098109Y-132959786D01*
X164223048Y-132787820D01*
X164223047Y-132787820D01*
X164223051Y-132787816D01*
X164227514Y-132779054D01*
X164275488Y-132728259D01*
X164343308Y-132711463D01*
X164409444Y-132733999D01*
X164448486Y-132779056D01*
X164452951Y-132787820D01*
X164577890Y-132959786D01*
X164728213Y-133110109D01*
X164900179Y-133235048D01*
X164900181Y-133235049D01*
X164900184Y-133235051D01*
X165089588Y-133331557D01*
X165291757Y-133397246D01*
X165501713Y-133430500D01*
X165501714Y-133430500D01*
X165714286Y-133430500D01*
X165714287Y-133430500D01*
X165924243Y-133397246D01*
X166126412Y-133331557D01*
X166315816Y-133235051D01*
X166337789Y-133219086D01*
X166487786Y-133110109D01*
X166487788Y-133110106D01*
X166487792Y-133110104D01*
X166638104Y-132959792D01*
X166638106Y-132959788D01*
X166638109Y-132959786D01*
X166763048Y-132787820D01*
X166763047Y-132787820D01*
X166763051Y-132787816D01*
X166767514Y-132779054D01*
X166815488Y-132728259D01*
X166883308Y-132711463D01*
X166949444Y-132733999D01*
X166988486Y-132779056D01*
X166992951Y-132787820D01*
X167117890Y-132959786D01*
X167268213Y-133110109D01*
X167440179Y-133235048D01*
X167440181Y-133235049D01*
X167440184Y-133235051D01*
X167629588Y-133331557D01*
X167831757Y-133397246D01*
X168041713Y-133430500D01*
X168041714Y-133430500D01*
X168254286Y-133430500D01*
X168254287Y-133430500D01*
X168464243Y-133397246D01*
X168666412Y-133331557D01*
X168855816Y-133235051D01*
X168877789Y-133219086D01*
X169027786Y-133110109D01*
X169027788Y-133110106D01*
X169027792Y-133110104D01*
X169178104Y-132959792D01*
X169178106Y-132959788D01*
X169178109Y-132959786D01*
X169303048Y-132787820D01*
X169303047Y-132787820D01*
X169303051Y-132787816D01*
X169307514Y-132779054D01*
X169355488Y-132728259D01*
X169423308Y-132711463D01*
X169489444Y-132733999D01*
X169528486Y-132779056D01*
X169532951Y-132787820D01*
X169657890Y-132959786D01*
X169808213Y-133110109D01*
X169980179Y-133235048D01*
X169980181Y-133235049D01*
X169980184Y-133235051D01*
X170169588Y-133331557D01*
X170371757Y-133397246D01*
X170581713Y-133430500D01*
X170581714Y-133430500D01*
X170794286Y-133430500D01*
X170794287Y-133430500D01*
X171004243Y-133397246D01*
X171206412Y-133331557D01*
X171395816Y-133235051D01*
X171417789Y-133219086D01*
X171567786Y-133110109D01*
X171567788Y-133110106D01*
X171567792Y-133110104D01*
X171718104Y-132959792D01*
X171718106Y-132959788D01*
X171718109Y-132959786D01*
X171843048Y-132787820D01*
X171843047Y-132787820D01*
X171843051Y-132787816D01*
X171847514Y-132779054D01*
X171895488Y-132728259D01*
X171963308Y-132711463D01*
X172029444Y-132733999D01*
X172068486Y-132779056D01*
X172072951Y-132787820D01*
X172197890Y-132959786D01*
X172348213Y-133110109D01*
X172520179Y-133235048D01*
X172520181Y-133235049D01*
X172520184Y-133235051D01*
X172709588Y-133331557D01*
X172911757Y-133397246D01*
X173121713Y-133430500D01*
X173121714Y-133430500D01*
X173334286Y-133430500D01*
X173334287Y-133430500D01*
X173544243Y-133397246D01*
X173746412Y-133331557D01*
X173935816Y-133235051D01*
X173957789Y-133219086D01*
X174107786Y-133110109D01*
X174107788Y-133110106D01*
X174107792Y-133110104D01*
X174258104Y-132959792D01*
X174258106Y-132959788D01*
X174258109Y-132959786D01*
X174383048Y-132787820D01*
X174383047Y-132787820D01*
X174383051Y-132787816D01*
X174387514Y-132779054D01*
X174435488Y-132728259D01*
X174503308Y-132711463D01*
X174569444Y-132733999D01*
X174608486Y-132779056D01*
X174612951Y-132787820D01*
X174737890Y-132959786D01*
X174888213Y-133110109D01*
X175060179Y-133235048D01*
X175060181Y-133235049D01*
X175060184Y-133235051D01*
X175249588Y-133331557D01*
X175451757Y-133397246D01*
X175661713Y-133430500D01*
X175661714Y-133430500D01*
X175874286Y-133430500D01*
X175874287Y-133430500D01*
X176084243Y-133397246D01*
X176286412Y-133331557D01*
X176475816Y-133235051D01*
X176497789Y-133219086D01*
X176647786Y-133110109D01*
X176647788Y-133110106D01*
X176647792Y-133110104D01*
X176798104Y-132959792D01*
X176798106Y-132959788D01*
X176798109Y-132959786D01*
X176923048Y-132787820D01*
X176923047Y-132787820D01*
X176923051Y-132787816D01*
X176927514Y-132779054D01*
X176975488Y-132728259D01*
X177043308Y-132711463D01*
X177109444Y-132733999D01*
X177148486Y-132779056D01*
X177152951Y-132787820D01*
X177277890Y-132959786D01*
X177428213Y-133110109D01*
X177600179Y-133235048D01*
X177600181Y-133235049D01*
X177600184Y-133235051D01*
X177789588Y-133331557D01*
X177991757Y-133397246D01*
X178201713Y-133430500D01*
X178201714Y-133430500D01*
X178414286Y-133430500D01*
X178414287Y-133430500D01*
X178624243Y-133397246D01*
X178826412Y-133331557D01*
X179015816Y-133235051D01*
X179037789Y-133219086D01*
X179187786Y-133110109D01*
X179187788Y-133110106D01*
X179187792Y-133110104D01*
X179338104Y-132959792D01*
X179338106Y-132959788D01*
X179338109Y-132959786D01*
X179463048Y-132787820D01*
X179463047Y-132787820D01*
X179463051Y-132787816D01*
X179559557Y-132598412D01*
X179625246Y-132396243D01*
X179658500Y-132186287D01*
X179658500Y-131973713D01*
X179625246Y-131763757D01*
X179559557Y-131561588D01*
X179463051Y-131372184D01*
X179463049Y-131372181D01*
X179463048Y-131372179D01*
X179338109Y-131200213D01*
X179187786Y-131049890D01*
X179015820Y-130924951D01*
X178826414Y-130828444D01*
X178826413Y-130828443D01*
X178826412Y-130828443D01*
X178624243Y-130762754D01*
X178624241Y-130762753D01*
X178624240Y-130762753D01*
X178462957Y-130737208D01*
X178414287Y-130729500D01*
X178201713Y-130729500D01*
X178153042Y-130737208D01*
X177991760Y-130762753D01*
X177789585Y-130828444D01*
X177600179Y-130924951D01*
X177428213Y-131049890D01*
X177277890Y-131200213D01*
X177152949Y-131372182D01*
X177148484Y-131380946D01*
X177100509Y-131431742D01*
X177032688Y-131448536D01*
X176966553Y-131425998D01*
X176927516Y-131380946D01*
X176923050Y-131372182D01*
X176798109Y-131200213D01*
X176647786Y-131049890D01*
X176475820Y-130924951D01*
X176286414Y-130828444D01*
X176286413Y-130828443D01*
X176286412Y-130828443D01*
X176084243Y-130762754D01*
X176084241Y-130762753D01*
X176084240Y-130762753D01*
X175922957Y-130737208D01*
X175874287Y-130729500D01*
X175661713Y-130729500D01*
X175613042Y-130737208D01*
X175451760Y-130762753D01*
X175249585Y-130828444D01*
X175060179Y-130924951D01*
X174888213Y-131049890D01*
X174737890Y-131200213D01*
X174612949Y-131372182D01*
X174608484Y-131380946D01*
X174560509Y-131431742D01*
X174492688Y-131448536D01*
X174426553Y-131425998D01*
X174387516Y-131380946D01*
X174383050Y-131372182D01*
X174258109Y-131200213D01*
X174107786Y-131049890D01*
X173935820Y-130924951D01*
X173746414Y-130828444D01*
X173746413Y-130828443D01*
X173746412Y-130828443D01*
X173544243Y-130762754D01*
X173544241Y-130762753D01*
X173544240Y-130762753D01*
X173382957Y-130737208D01*
X173334287Y-130729500D01*
X173121713Y-130729500D01*
X173073042Y-130737208D01*
X172911760Y-130762753D01*
X172709585Y-130828444D01*
X172520179Y-130924951D01*
X172348213Y-131049890D01*
X172197890Y-131200213D01*
X172072949Y-131372182D01*
X172068484Y-131380946D01*
X172020509Y-131431742D01*
X171952688Y-131448536D01*
X171886553Y-131425998D01*
X171847516Y-131380946D01*
X171843050Y-131372182D01*
X171718109Y-131200213D01*
X171567786Y-131049890D01*
X171395820Y-130924951D01*
X171206414Y-130828444D01*
X171206413Y-130828443D01*
X171206412Y-130828443D01*
X171004243Y-130762754D01*
X171004241Y-130762753D01*
X171004240Y-130762753D01*
X170842957Y-130737208D01*
X170794287Y-130729500D01*
X170581713Y-130729500D01*
X170533042Y-130737208D01*
X170371760Y-130762753D01*
X170169585Y-130828444D01*
X169980179Y-130924951D01*
X169808213Y-131049890D01*
X169657890Y-131200213D01*
X169532949Y-131372182D01*
X169528484Y-131380946D01*
X169480509Y-131431742D01*
X169412688Y-131448536D01*
X169346553Y-131425998D01*
X169307516Y-131380946D01*
X169303050Y-131372182D01*
X169178109Y-131200213D01*
X169027786Y-131049890D01*
X168855820Y-130924951D01*
X168666414Y-130828444D01*
X168666413Y-130828443D01*
X168666412Y-130828443D01*
X168464243Y-130762754D01*
X168464241Y-130762753D01*
X168464240Y-130762753D01*
X168302957Y-130737208D01*
X168254287Y-130729500D01*
X168041713Y-130729500D01*
X167993042Y-130737208D01*
X167831760Y-130762753D01*
X167629585Y-130828444D01*
X167440179Y-130924951D01*
X167268213Y-131049890D01*
X167117890Y-131200213D01*
X166992949Y-131372182D01*
X166988484Y-131380946D01*
X166940509Y-131431742D01*
X166872688Y-131448536D01*
X166806553Y-131425998D01*
X166767516Y-131380946D01*
X166763050Y-131372182D01*
X166638109Y-131200213D01*
X166487786Y-131049890D01*
X166315820Y-130924951D01*
X166126414Y-130828444D01*
X166126413Y-130828443D01*
X166126412Y-130828443D01*
X165924243Y-130762754D01*
X165924241Y-130762753D01*
X165924240Y-130762753D01*
X165762957Y-130737208D01*
X165714287Y-130729500D01*
X165501713Y-130729500D01*
X165453042Y-130737208D01*
X165291760Y-130762753D01*
X165089585Y-130828444D01*
X164900179Y-130924951D01*
X164728213Y-131049890D01*
X164577890Y-131200213D01*
X164452949Y-131372182D01*
X164448484Y-131380946D01*
X164400509Y-131431742D01*
X164332688Y-131448536D01*
X164266553Y-131425998D01*
X164227516Y-131380946D01*
X164223050Y-131372182D01*
X164098109Y-131200213D01*
X163947786Y-131049890D01*
X163775820Y-130924951D01*
X163586414Y-130828444D01*
X163586413Y-130828443D01*
X163586412Y-130828443D01*
X163384243Y-130762754D01*
X163384241Y-130762753D01*
X163384240Y-130762753D01*
X163222957Y-130737208D01*
X163174287Y-130729500D01*
X162961713Y-130729500D01*
X162913042Y-130737208D01*
X162751760Y-130762753D01*
X162549585Y-130828444D01*
X162360179Y-130924951D01*
X162188213Y-131049890D01*
X162037890Y-131200213D01*
X161912949Y-131372182D01*
X161908484Y-131380946D01*
X161860509Y-131431742D01*
X161792688Y-131448536D01*
X161726553Y-131425998D01*
X161687516Y-131380946D01*
X161683050Y-131372182D01*
X161558109Y-131200213D01*
X161407786Y-131049890D01*
X161235820Y-130924951D01*
X161046414Y-130828444D01*
X161046413Y-130828443D01*
X161046412Y-130828443D01*
X160844243Y-130762754D01*
X160844241Y-130762753D01*
X160844240Y-130762753D01*
X160682957Y-130737208D01*
X160634287Y-130729500D01*
X160421713Y-130729500D01*
X160373042Y-130737208D01*
X160211760Y-130762753D01*
X160009585Y-130828444D01*
X159820179Y-130924951D01*
X159648213Y-131049890D01*
X159497890Y-131200213D01*
X159372951Y-131372179D01*
X159276444Y-131561585D01*
X159210753Y-131763760D01*
X159183773Y-131934108D01*
X159177500Y-131973713D01*
X156798499Y-131973713D01*
X156798499Y-131182128D01*
X156792091Y-131122517D01*
X156741796Y-130987669D01*
X156741795Y-130987668D01*
X156741793Y-130987664D01*
X156655547Y-130872455D01*
X156655544Y-130872452D01*
X156540335Y-130786206D01*
X156540328Y-130786202D01*
X156405482Y-130735908D01*
X156405483Y-130735908D01*
X156345883Y-130729501D01*
X156345881Y-130729500D01*
X156345873Y-130729500D01*
X156345864Y-130729500D01*
X154550129Y-130729500D01*
X154550123Y-130729501D01*
X154490516Y-130735908D01*
X154355671Y-130786202D01*
X154355664Y-130786206D01*
X154240455Y-130872452D01*
X154240452Y-130872455D01*
X154154206Y-130987664D01*
X154154202Y-130987671D01*
X154103908Y-131122517D01*
X154097501Y-131182116D01*
X154097501Y-131182123D01*
X154097500Y-131182135D01*
X123508416Y-131182135D01*
X123593930Y-130900233D01*
X123593932Y-130900223D01*
X123593935Y-130900212D01*
X123664862Y-130543630D01*
X123700500Y-130181790D01*
X123700500Y-129818209D01*
X206299500Y-129818209D01*
X206299500Y-130181790D01*
X206335137Y-130543630D01*
X206406064Y-130900212D01*
X206406067Y-130900223D01*
X206511614Y-131248165D01*
X206650754Y-131584078D01*
X206650756Y-131584083D01*
X206822140Y-131904720D01*
X206822151Y-131904738D01*
X207024140Y-132207035D01*
X207024150Y-132207049D01*
X207254807Y-132488106D01*
X207511893Y-132745192D01*
X207511898Y-132745196D01*
X207511899Y-132745197D01*
X207792956Y-132975854D01*
X208095268Y-133177853D01*
X208095277Y-133177858D01*
X208095279Y-133177859D01*
X208415916Y-133349243D01*
X208415918Y-133349243D01*
X208415924Y-133349247D01*
X208751836Y-133488386D01*
X209099767Y-133593930D01*
X209099773Y-133593931D01*
X209099776Y-133593932D01*
X209099787Y-133593935D01*
X209445907Y-133662781D01*
X209456369Y-133664862D01*
X209818206Y-133700500D01*
X209818209Y-133700500D01*
X210181791Y-133700500D01*
X210181794Y-133700500D01*
X210543631Y-133664862D01*
X210613045Y-133651054D01*
X210900212Y-133593935D01*
X210900223Y-133593932D01*
X210900223Y-133593931D01*
X210900233Y-133593930D01*
X211248164Y-133488386D01*
X211584076Y-133349247D01*
X211904732Y-133177853D01*
X212207044Y-132975854D01*
X212488101Y-132745197D01*
X212745197Y-132488101D01*
X212975854Y-132207044D01*
X213177853Y-131904732D01*
X213349247Y-131584076D01*
X213488386Y-131248164D01*
X213593930Y-130900233D01*
X213593932Y-130900223D01*
X213593935Y-130900212D01*
X213664862Y-130543630D01*
X213700500Y-130181790D01*
X213700500Y-129818209D01*
X213664862Y-129456369D01*
X213593935Y-129099787D01*
X213593932Y-129099776D01*
X213593931Y-129099773D01*
X213593930Y-129099767D01*
X213488386Y-128751836D01*
X213349247Y-128415924D01*
X213177853Y-128095268D01*
X212975854Y-127792956D01*
X212745197Y-127511899D01*
X212745196Y-127511898D01*
X212745192Y-127511893D01*
X212488106Y-127254807D01*
X212207049Y-127024150D01*
X212207048Y-127024149D01*
X212207044Y-127024146D01*
X211904732Y-126822147D01*
X211904727Y-126822144D01*
X211904720Y-126822140D01*
X211584083Y-126650756D01*
X211584078Y-126650754D01*
X211248165Y-126511614D01*
X210900223Y-126406067D01*
X210900212Y-126406064D01*
X210543630Y-126335137D01*
X210271111Y-126308296D01*
X210181794Y-126299500D01*
X209818206Y-126299500D01*
X209735679Y-126307628D01*
X209456369Y-126335137D01*
X209099787Y-126406064D01*
X209099776Y-126406067D01*
X208751834Y-126511614D01*
X208415921Y-126650754D01*
X208415916Y-126650756D01*
X208095279Y-126822140D01*
X208095261Y-126822151D01*
X207792964Y-127024140D01*
X207792950Y-127024150D01*
X207511893Y-127254807D01*
X207254807Y-127511893D01*
X207024150Y-127792950D01*
X207024140Y-127792964D01*
X206822151Y-128095261D01*
X206822140Y-128095279D01*
X206650756Y-128415916D01*
X206650754Y-128415921D01*
X206511614Y-128751834D01*
X206406067Y-129099776D01*
X206406064Y-129099787D01*
X206335137Y-129456369D01*
X206299500Y-129818209D01*
X123700500Y-129818209D01*
X123664862Y-129456369D01*
X123593935Y-129099787D01*
X123593932Y-129099776D01*
X123593931Y-129099773D01*
X123593930Y-129099767D01*
X123488386Y-128751836D01*
X123349247Y-128415924D01*
X123177853Y-128095268D01*
X122975854Y-127792956D01*
X122745197Y-127511899D01*
X122745196Y-127511898D01*
X122745192Y-127511893D01*
X122488106Y-127254807D01*
X122207049Y-127024150D01*
X122207048Y-127024149D01*
X122207044Y-127024146D01*
X121904732Y-126822147D01*
X121904727Y-126822144D01*
X121904720Y-126822140D01*
X121584083Y-126650756D01*
X121584078Y-126650754D01*
X121248165Y-126511614D01*
X120900223Y-126406067D01*
X120900212Y-126406064D01*
X120543630Y-126335137D01*
X120271111Y-126308296D01*
X120181794Y-126299500D01*
X119818206Y-126299500D01*
X119735679Y-126307628D01*
X119456369Y-126335137D01*
X119099787Y-126406064D01*
X119099776Y-126406067D01*
X118751834Y-126511614D01*
X118415921Y-126650754D01*
X118415916Y-126650756D01*
X118095279Y-126822140D01*
X118095261Y-126822151D01*
X117792964Y-127024140D01*
X117792950Y-127024150D01*
X117511893Y-127254807D01*
X117254807Y-127511893D01*
X117024150Y-127792950D01*
X117024140Y-127792964D01*
X116822151Y-128095261D01*
X116822140Y-128095279D01*
X116650756Y-128415916D01*
X116650754Y-128415921D01*
X116511614Y-128751834D01*
X116406067Y-129099776D01*
X116406064Y-129099787D01*
X116335137Y-129456369D01*
X116299500Y-129818209D01*
X115500500Y-129818209D01*
X115500500Y-124724332D01*
X139415500Y-124724332D01*
X139415500Y-125924350D01*
X139415501Y-125924367D01*
X139426000Y-126027145D01*
X139426001Y-126027148D01*
X139481185Y-126193680D01*
X139481187Y-126193685D01*
X139488977Y-126206315D01*
X139573288Y-126343005D01*
X139697344Y-126467061D01*
X139846666Y-126559163D01*
X140013203Y-126614348D01*
X140115991Y-126624849D01*
X141316008Y-126624848D01*
X141418797Y-126614348D01*
X141585334Y-126559163D01*
X141734656Y-126467061D01*
X141858712Y-126343005D01*
X141950814Y-126193683D01*
X141960701Y-126163844D01*
X142000474Y-126106400D01*
X142064990Y-126079577D01*
X142078407Y-126078849D01*
X180100547Y-126078849D01*
X180118691Y-126084176D01*
X180137598Y-126084514D01*
X180165816Y-126098014D01*
X180167586Y-126098534D01*
X180169436Y-126099746D01*
X180190443Y-126113782D01*
X180190445Y-126113783D01*
X180236606Y-126144627D01*
X180236607Y-126144627D01*
X180236611Y-126144630D01*
X180317045Y-126177946D01*
X180373920Y-126201505D01*
X180398105Y-126206315D01*
X180446994Y-126216040D01*
X180519686Y-126230501D01*
X180519688Y-126230501D01*
X180674426Y-126230501D01*
X180674446Y-126230500D01*
X187098275Y-126230500D01*
X187165314Y-126250185D01*
X187198592Y-126281613D01*
X187323483Y-126453510D01*
X187490490Y-126620517D01*
X187681567Y-126759343D01*
X187780991Y-126810002D01*
X187892003Y-126866566D01*
X187892005Y-126866566D01*
X187892008Y-126866568D01*
X188012412Y-126905689D01*
X188116631Y-126939553D01*
X188349903Y-126976500D01*
X188349908Y-126976500D01*
X188586097Y-126976500D01*
X188819368Y-126939553D01*
X189043992Y-126866568D01*
X189254433Y-126759343D01*
X189445510Y-126620517D01*
X189612517Y-126453510D01*
X189751343Y-126262433D01*
X189858568Y-126051992D01*
X189931553Y-125827368D01*
X189968500Y-125594097D01*
X189968500Y-125357902D01*
X192047500Y-125357902D01*
X192047500Y-125594097D01*
X192084446Y-125827368D01*
X192157433Y-126051996D01*
X192248386Y-126230500D01*
X192264657Y-126262433D01*
X192403483Y-126453510D01*
X192570490Y-126620517D01*
X192761567Y-126759343D01*
X192860991Y-126810002D01*
X192972003Y-126866566D01*
X192972005Y-126866566D01*
X192972008Y-126866568D01*
X193092412Y-126905689D01*
X193196631Y-126939553D01*
X193429903Y-126976500D01*
X193429908Y-126976500D01*
X193666097Y-126976500D01*
X193899368Y-126939553D01*
X194123992Y-126866568D01*
X194334433Y-126759343D01*
X194525510Y-126620517D01*
X194692517Y-126453510D01*
X194831343Y-126262433D01*
X194938568Y-126051992D01*
X195011553Y-125827368D01*
X195048500Y-125594097D01*
X195048500Y-125357902D01*
X195011553Y-125124631D01*
X194959148Y-124963347D01*
X194938568Y-124900008D01*
X194938566Y-124900005D01*
X194938566Y-124900003D01*
X194882002Y-124788991D01*
X194831343Y-124689567D01*
X194692517Y-124498490D01*
X194525510Y-124331483D01*
X194334433Y-124192657D01*
X194312805Y-124181637D01*
X194123996Y-124085433D01*
X193899368Y-124012446D01*
X193666097Y-123975500D01*
X193666092Y-123975500D01*
X193429908Y-123975500D01*
X193429903Y-123975500D01*
X193196631Y-124012446D01*
X192972003Y-124085433D01*
X192761566Y-124192657D01*
X192652550Y-124271862D01*
X192570490Y-124331483D01*
X192570488Y-124331485D01*
X192570487Y-124331485D01*
X192403485Y-124498487D01*
X192403485Y-124498488D01*
X192403483Y-124498490D01*
X192343862Y-124580550D01*
X192264657Y-124689566D01*
X192157433Y-124900003D01*
X192084446Y-125124631D01*
X192047500Y-125357902D01*
X189968500Y-125357902D01*
X189931553Y-125124631D01*
X189879148Y-124963347D01*
X189858568Y-124900008D01*
X189858566Y-124900005D01*
X189858566Y-124900003D01*
X189802002Y-124788991D01*
X189751343Y-124689567D01*
X189612517Y-124498490D01*
X189445510Y-124331483D01*
X189254433Y-124192657D01*
X189232805Y-124181637D01*
X189043996Y-124085433D01*
X188819368Y-124012446D01*
X188586097Y-123975500D01*
X188586092Y-123975500D01*
X188349908Y-123975500D01*
X188349903Y-123975500D01*
X188116631Y-124012446D01*
X187892003Y-124085433D01*
X187681566Y-124192657D01*
X187572550Y-124271862D01*
X187490490Y-124331483D01*
X187490488Y-124331485D01*
X187490487Y-124331485D01*
X187323485Y-124498487D01*
X187323485Y-124498488D01*
X187323483Y-124498490D01*
X187250571Y-124598845D01*
X187198593Y-124670386D01*
X187143263Y-124713051D01*
X187098275Y-124721500D01*
X180935801Y-124721500D01*
X180922000Y-124718074D01*
X180911048Y-124719004D01*
X180889428Y-124709990D01*
X180877819Y-124707109D01*
X180872202Y-124704138D01*
X180799738Y-124655719D01*
X180717251Y-124621552D01*
X180711868Y-124619322D01*
X180711860Y-124619318D01*
X180662433Y-124598845D01*
X180662429Y-124598844D01*
X180638243Y-124594033D01*
X180516663Y-124569848D01*
X180516661Y-124569848D01*
X180368037Y-124569848D01*
X180361923Y-124569848D01*
X180361903Y-124569849D01*
X142078407Y-124569849D01*
X142011368Y-124550164D01*
X141965613Y-124497360D01*
X141960701Y-124484853D01*
X141950814Y-124455015D01*
X141858712Y-124305693D01*
X141734656Y-124181637D01*
X141585334Y-124089535D01*
X141418797Y-124034350D01*
X141418795Y-124034349D01*
X141316010Y-124023849D01*
X140115998Y-124023849D01*
X140115981Y-124023850D01*
X140013203Y-124034349D01*
X140013200Y-124034350D01*
X139846668Y-124089534D01*
X139846663Y-124089536D01*
X139697342Y-124181638D01*
X139573289Y-124305691D01*
X139481187Y-124455012D01*
X139481185Y-124455017D01*
X139426001Y-124621552D01*
X139415500Y-124724332D01*
X115500500Y-124724332D01*
X115500500Y-123073332D01*
X199359500Y-123073332D01*
X199359500Y-124273350D01*
X199359501Y-124273367D01*
X199370000Y-124376145D01*
X199370001Y-124376148D01*
X199396136Y-124455017D01*
X199425186Y-124542683D01*
X199517288Y-124692005D01*
X199641344Y-124816061D01*
X199790666Y-124908163D01*
X199957203Y-124963348D01*
X200059991Y-124973849D01*
X201260008Y-124973848D01*
X201362797Y-124963348D01*
X201529334Y-124908163D01*
X201678656Y-124816061D01*
X201802712Y-124692005D01*
X201894814Y-124542683D01*
X201949999Y-124376146D01*
X201960500Y-124273358D01*
X201960499Y-123073341D01*
X201949999Y-122970552D01*
X201894814Y-122804015D01*
X201802712Y-122654693D01*
X201678656Y-122530637D01*
X201529334Y-122438535D01*
X201362797Y-122383350D01*
X201362795Y-122383349D01*
X201260010Y-122372849D01*
X200059998Y-122372849D01*
X200059981Y-122372850D01*
X199957203Y-122383349D01*
X199957200Y-122383350D01*
X199790668Y-122438534D01*
X199790663Y-122438536D01*
X199641342Y-122530638D01*
X199517289Y-122654691D01*
X199425187Y-122804012D01*
X199425186Y-122804015D01*
X199370001Y-122970552D01*
X199370001Y-122970553D01*
X199370000Y-122970553D01*
X199359500Y-123073332D01*
X115500500Y-123073332D01*
X115500500Y-117898862D01*
X115520185Y-117831823D01*
X115536819Y-117811181D01*
X115963681Y-117384319D01*
X116025004Y-117350834D01*
X116051362Y-117348000D01*
X128323491Y-117348000D01*
X128390530Y-117367685D01*
X128436285Y-117420489D01*
X128446229Y-117489647D01*
X128417204Y-117553203D01*
X128396376Y-117572318D01*
X128235841Y-117688952D01*
X128235836Y-117688956D01*
X128079956Y-117844836D01*
X128079952Y-117844841D01*
X127950387Y-118023174D01*
X127850304Y-118219593D01*
X127850303Y-118219596D01*
X127782185Y-118429247D01*
X127782185Y-118429249D01*
X127747700Y-118646978D01*
X127747700Y-118867422D01*
X127755259Y-118915145D01*
X127782185Y-119085152D01*
X127850303Y-119294803D01*
X127850304Y-119294806D01*
X127950387Y-119491225D01*
X128079952Y-119669558D01*
X128079956Y-119669563D01*
X128235836Y-119825443D01*
X128235841Y-119825447D01*
X128391392Y-119938460D01*
X128414178Y-119955015D01*
X128542575Y-120020437D01*
X128610593Y-120055095D01*
X128610596Y-120055096D01*
X128715421Y-120089155D01*
X128820249Y-120123215D01*
X129037978Y-120157700D01*
X129037979Y-120157700D01*
X129258421Y-120157700D01*
X129258422Y-120157700D01*
X129476151Y-120123215D01*
X129685806Y-120055095D01*
X129882222Y-119955015D01*
X130060565Y-119825442D01*
X130216442Y-119669565D01*
X130297882Y-119557470D01*
X130353211Y-119514806D01*
X130422824Y-119508827D01*
X130484620Y-119541432D01*
X130498513Y-119557465D01*
X130579953Y-119669558D01*
X130579958Y-119669565D01*
X130735836Y-119825443D01*
X130735841Y-119825447D01*
X130891392Y-119938460D01*
X130914178Y-119955015D01*
X131042575Y-120020437D01*
X131110593Y-120055095D01*
X131110596Y-120055096D01*
X131215421Y-120089155D01*
X131320249Y-120123215D01*
X131537978Y-120157700D01*
X131537979Y-120157700D01*
X131758421Y-120157700D01*
X131758422Y-120157700D01*
X131976151Y-120123215D01*
X132185806Y-120055095D01*
X132382222Y-119955015D01*
X132560565Y-119825442D01*
X132716442Y-119669565D01*
X132797882Y-119557470D01*
X132853211Y-119514806D01*
X132922824Y-119508827D01*
X132984620Y-119541432D01*
X132998513Y-119557465D01*
X133079953Y-119669558D01*
X133079958Y-119669565D01*
X133235836Y-119825443D01*
X133235841Y-119825447D01*
X133391392Y-119938460D01*
X133414178Y-119955015D01*
X133542575Y-120020437D01*
X133610593Y-120055095D01*
X133610596Y-120055096D01*
X133715421Y-120089155D01*
X133820249Y-120123215D01*
X134037978Y-120157700D01*
X134037979Y-120157700D01*
X134258421Y-120157700D01*
X134258422Y-120157700D01*
X134476151Y-120123215D01*
X134685806Y-120055095D01*
X134882222Y-119955015D01*
X135060565Y-119825442D01*
X135216442Y-119669565D01*
X135297882Y-119557470D01*
X135353211Y-119514806D01*
X135422824Y-119508827D01*
X135484620Y-119541432D01*
X135498513Y-119557465D01*
X135579953Y-119669558D01*
X135579958Y-119669565D01*
X135735836Y-119825443D01*
X135735841Y-119825447D01*
X135891392Y-119938460D01*
X135914178Y-119955015D01*
X136042575Y-120020437D01*
X136110593Y-120055095D01*
X136110596Y-120055096D01*
X136215421Y-120089155D01*
X136320249Y-120123215D01*
X136537978Y-120157700D01*
X136537979Y-120157700D01*
X136758421Y-120157700D01*
X136758422Y-120157700D01*
X136976151Y-120123215D01*
X137185806Y-120055095D01*
X137382222Y-119955015D01*
X137560565Y-119825442D01*
X137716442Y-119669565D01*
X137846015Y-119491222D01*
X137946095Y-119294806D01*
X138014215Y-119085151D01*
X138048700Y-118867422D01*
X138048700Y-118646978D01*
X138014215Y-118429249D01*
X137946095Y-118219594D01*
X137946095Y-118219593D01*
X137911437Y-118151575D01*
X137846015Y-118023178D01*
X137797881Y-117956927D01*
X137716447Y-117844841D01*
X137716443Y-117844836D01*
X137560563Y-117688956D01*
X137560558Y-117688952D01*
X137400024Y-117572318D01*
X137357358Y-117516989D01*
X137351379Y-117447375D01*
X137383984Y-117385580D01*
X137444823Y-117351223D01*
X137472909Y-117348000D01*
X152908000Y-117348000D01*
X152908000Y-102143362D01*
X152927685Y-102076323D01*
X152944319Y-102055681D01*
X153871681Y-101128319D01*
X153933004Y-101094834D01*
X153959362Y-101092000D01*
X160507455Y-101092000D01*
X160523638Y-101093060D01*
X160542166Y-101095500D01*
X160542173Y-101095500D01*
X160771627Y-101095500D01*
X160771634Y-101095500D01*
X160790161Y-101093060D01*
X160806345Y-101092000D01*
X172707455Y-101092000D01*
X172723638Y-101093060D01*
X172742166Y-101095500D01*
X172742173Y-101095500D01*
X172971627Y-101095500D01*
X172971634Y-101095500D01*
X172990161Y-101093060D01*
X173006345Y-101092000D01*
X173717619Y-101092000D01*
X173784658Y-101111685D01*
X173830413Y-101164489D01*
X173840357Y-101233647D01*
X173811332Y-101297203D01*
X173805300Y-101303681D01*
X172902800Y-102206181D01*
X172841477Y-102239666D01*
X172815119Y-102242500D01*
X170770157Y-102242500D01*
X170703118Y-102222815D01*
X170701266Y-102221602D01*
X170609985Y-102160609D01*
X170609972Y-102160602D01*
X170464301Y-102100264D01*
X170464289Y-102100261D01*
X170309645Y-102069500D01*
X170309642Y-102069500D01*
X170151958Y-102069500D01*
X170151955Y-102069500D01*
X169997310Y-102100261D01*
X169997298Y-102100264D01*
X169851627Y-102160602D01*
X169851614Y-102160609D01*
X169720511Y-102248210D01*
X169720507Y-102248213D01*
X169609013Y-102359707D01*
X169609010Y-102359711D01*
X169521409Y-102490814D01*
X169521402Y-102490827D01*
X169461064Y-102636498D01*
X169461061Y-102636510D01*
X169430300Y-102791153D01*
X169430300Y-102948846D01*
X169461061Y-103103489D01*
X169461064Y-103103501D01*
X169521402Y-103249172D01*
X169521409Y-103249185D01*
X169609010Y-103380288D01*
X169609013Y-103380292D01*
X169720507Y-103491786D01*
X169720511Y-103491789D01*
X169851614Y-103579390D01*
X169851627Y-103579397D01*
X169997298Y-103639735D01*
X169997303Y-103639737D01*
X170151953Y-103670499D01*
X170151956Y-103670500D01*
X170151958Y-103670500D01*
X170309644Y-103670500D01*
X170309645Y-103670499D01*
X170464297Y-103639737D01*
X170609979Y-103579394D01*
X170701266Y-103518398D01*
X170767943Y-103497520D01*
X170770157Y-103497500D01*
X172937718Y-103497500D01*
X173004757Y-103517185D01*
X173050512Y-103569989D01*
X173060456Y-103639147D01*
X173031431Y-103702703D01*
X173025399Y-103709181D01*
X170794600Y-105939981D01*
X170733277Y-105973466D01*
X170706919Y-105976300D01*
X164903392Y-105976300D01*
X164782172Y-106000412D01*
X164782164Y-106000414D01*
X164701415Y-106033862D01*
X164667967Y-106047716D01*
X164610098Y-106086384D01*
X164610097Y-106086385D01*
X164565189Y-106116390D01*
X163005672Y-107675907D01*
X162944349Y-107709392D01*
X162942183Y-107709843D01*
X162834508Y-107731261D01*
X162834498Y-107731264D01*
X162688827Y-107791602D01*
X162688814Y-107791609D01*
X162557711Y-107879210D01*
X162557707Y-107879213D01*
X162446213Y-107990707D01*
X162446210Y-107990711D01*
X162358609Y-108121814D01*
X162358602Y-108121827D01*
X162298264Y-108267498D01*
X162298261Y-108267510D01*
X162267500Y-108422153D01*
X162267500Y-108579846D01*
X162298261Y-108734489D01*
X162298264Y-108734501D01*
X162358602Y-108880172D01*
X162358609Y-108880185D01*
X162446210Y-109011288D01*
X162446213Y-109011292D01*
X162557707Y-109122786D01*
X162557711Y-109122789D01*
X162688814Y-109210390D01*
X162688827Y-109210397D01*
X162834498Y-109270735D01*
X162834503Y-109270737D01*
X162978234Y-109299327D01*
X162989153Y-109301499D01*
X162989156Y-109301500D01*
X162989158Y-109301500D01*
X163146844Y-109301500D01*
X163146845Y-109301499D01*
X163301497Y-109270737D01*
X163447179Y-109210394D01*
X163578289Y-109122789D01*
X163689789Y-109011289D01*
X163777394Y-108880179D01*
X163837737Y-108734497D01*
X163859156Y-108626812D01*
X163891539Y-108564906D01*
X163893034Y-108563383D01*
X165188800Y-107267619D01*
X165250123Y-107234134D01*
X165276481Y-107231300D01*
X170770919Y-107231300D01*
X170837958Y-107250985D01*
X170883713Y-107303789D01*
X170893657Y-107372947D01*
X170864632Y-107436503D01*
X170858619Y-107442960D01*
X170649038Y-107652542D01*
X170625672Y-107675908D01*
X170564349Y-107709392D01*
X170562183Y-107709843D01*
X170454508Y-107731261D01*
X170454498Y-107731264D01*
X170308827Y-107791602D01*
X170308814Y-107791609D01*
X170177711Y-107879210D01*
X170177707Y-107879213D01*
X170066213Y-107990707D01*
X170066210Y-107990711D01*
X169978609Y-108121814D01*
X169978602Y-108121827D01*
X169918264Y-108267498D01*
X169918261Y-108267510D01*
X169887500Y-108422153D01*
X169887500Y-108579846D01*
X169918261Y-108734489D01*
X169918264Y-108734501D01*
X169978602Y-108880172D01*
X169978609Y-108880185D01*
X170066210Y-109011288D01*
X170066213Y-109011292D01*
X170177707Y-109122786D01*
X170177711Y-109122789D01*
X170308814Y-109210390D01*
X170308827Y-109210397D01*
X170454498Y-109270735D01*
X170454503Y-109270737D01*
X170598234Y-109299327D01*
X170609153Y-109301499D01*
X170609156Y-109301500D01*
X170609158Y-109301500D01*
X170766844Y-109301500D01*
X170766845Y-109301499D01*
X170921497Y-109270737D01*
X171067179Y-109210394D01*
X171198289Y-109122789D01*
X171309789Y-109011289D01*
X171397394Y-108880179D01*
X171457737Y-108734497D01*
X171479156Y-108626812D01*
X171511539Y-108564906D01*
X171513034Y-108563383D01*
X172388820Y-107687598D01*
X172408255Y-107676986D01*
X172424989Y-107662486D01*
X172438320Y-107660569D01*
X172450142Y-107654114D01*
X172472228Y-107655693D01*
X172494147Y-107652542D01*
X172506398Y-107658137D01*
X172519834Y-107659098D01*
X172537560Y-107672368D01*
X172557703Y-107681567D01*
X172564985Y-107692898D01*
X172575767Y-107700970D01*
X172583504Y-107721715D01*
X172595477Y-107740345D01*
X172598628Y-107762263D01*
X172600184Y-107766434D01*
X172600500Y-107775280D01*
X172600500Y-107961642D01*
X172580815Y-108028681D01*
X172579602Y-108030533D01*
X172518609Y-108121814D01*
X172518602Y-108121827D01*
X172458264Y-108267498D01*
X172458261Y-108267510D01*
X172427500Y-108422153D01*
X172427500Y-108579846D01*
X172458261Y-108734489D01*
X172458264Y-108734501D01*
X172518602Y-108880172D01*
X172518609Y-108880185D01*
X172606210Y-109011288D01*
X172606213Y-109011292D01*
X172717707Y-109122786D01*
X172717711Y-109122789D01*
X172848814Y-109210390D01*
X172848827Y-109210397D01*
X172994498Y-109270735D01*
X172994503Y-109270737D01*
X173138234Y-109299327D01*
X173149153Y-109301499D01*
X173149156Y-109301500D01*
X173149158Y-109301500D01*
X173306844Y-109301500D01*
X173306845Y-109301499D01*
X173461497Y-109270737D01*
X173607179Y-109210394D01*
X173738289Y-109122789D01*
X173849789Y-109011289D01*
X173937394Y-108880179D01*
X173997737Y-108734497D01*
X174028500Y-108579842D01*
X174028500Y-108422158D01*
X174028500Y-108422155D01*
X174028499Y-108422153D01*
X173997738Y-108267510D01*
X173997737Y-108267503D01*
X173997735Y-108267498D01*
X173937397Y-108121827D01*
X173937390Y-108121814D01*
X173876398Y-108030533D01*
X173870747Y-108012486D01*
X173860523Y-107996577D01*
X173856071Y-107965615D01*
X173855520Y-107963855D01*
X173855500Y-107961642D01*
X173855500Y-107753281D01*
X173875185Y-107686242D01*
X173891819Y-107665600D01*
X176610019Y-104947400D01*
X176671342Y-104913915D01*
X176741034Y-104918899D01*
X176796967Y-104960771D01*
X176821384Y-105026235D01*
X176821700Y-105035081D01*
X176821700Y-105158646D01*
X176852461Y-105313289D01*
X176852464Y-105313301D01*
X176912802Y-105458972D01*
X176912809Y-105458985D01*
X177000410Y-105590088D01*
X177000413Y-105590092D01*
X177111907Y-105701586D01*
X177111911Y-105701589D01*
X177243014Y-105789190D01*
X177243018Y-105789192D01*
X177243021Y-105789194D01*
X177318608Y-105820503D01*
X177373009Y-105864342D01*
X177395075Y-105930636D01*
X177377796Y-105998335D01*
X177358835Y-106022744D01*
X175705672Y-107675907D01*
X175644349Y-107709392D01*
X175642183Y-107709843D01*
X175534508Y-107731261D01*
X175534498Y-107731264D01*
X175388827Y-107791602D01*
X175388814Y-107791609D01*
X175257711Y-107879210D01*
X175257707Y-107879213D01*
X175146213Y-107990707D01*
X175146210Y-107990711D01*
X175058609Y-108121814D01*
X175058602Y-108121827D01*
X174998264Y-108267498D01*
X174998261Y-108267510D01*
X174967500Y-108422153D01*
X174967500Y-108579846D01*
X174998261Y-108734489D01*
X174998264Y-108734501D01*
X175058602Y-108880172D01*
X175058609Y-108880185D01*
X175146210Y-109011288D01*
X175146213Y-109011292D01*
X175257707Y-109122786D01*
X175257711Y-109122789D01*
X175388814Y-109210390D01*
X175388827Y-109210397D01*
X175534498Y-109270735D01*
X175534503Y-109270737D01*
X175678234Y-109299327D01*
X175689153Y-109301499D01*
X175689156Y-109301500D01*
X175689158Y-109301500D01*
X175846844Y-109301500D01*
X175846845Y-109301499D01*
X176001497Y-109270737D01*
X176147179Y-109210394D01*
X176278289Y-109122789D01*
X176389789Y-109011289D01*
X176477394Y-108880179D01*
X176537737Y-108734497D01*
X176559156Y-108626812D01*
X176591539Y-108564906D01*
X176593035Y-108563382D01*
X180276400Y-104880019D01*
X180337723Y-104846534D01*
X180364081Y-104843700D01*
X195402381Y-104843700D01*
X195469420Y-104863385D01*
X195515175Y-104916189D01*
X195525119Y-104985347D01*
X195518812Y-105008343D01*
X195519286Y-105008497D01*
X195517781Y-105013126D01*
X195517780Y-105013130D01*
X195498040Y-105073883D01*
X195454522Y-105207814D01*
X195422500Y-105409997D01*
X195422500Y-105614700D01*
X195454522Y-105816883D01*
X195517781Y-106011572D01*
X195610715Y-106193962D01*
X195731028Y-106359562D01*
X195875786Y-106504320D01*
X196030749Y-106616905D01*
X196041390Y-106624636D01*
X196132840Y-106671232D01*
X196134080Y-106671864D01*
X196184876Y-106719839D01*
X196201671Y-106787660D01*
X196179134Y-106853795D01*
X196134080Y-106892834D01*
X196041386Y-106940064D01*
X195875786Y-107060377D01*
X195731028Y-107205135D01*
X195610715Y-107370735D01*
X195517781Y-107553125D01*
X195454522Y-107747814D01*
X195422500Y-107949997D01*
X195422500Y-108154700D01*
X195454522Y-108356883D01*
X195517781Y-108551572D01*
X195610715Y-108733962D01*
X195731028Y-108899562D01*
X195875786Y-109044320D01*
X195983792Y-109122789D01*
X196041390Y-109164636D01*
X196123861Y-109206657D01*
X196134080Y-109211864D01*
X196184876Y-109259839D01*
X196201671Y-109327660D01*
X196179134Y-109393795D01*
X196134080Y-109432834D01*
X196041386Y-109480064D01*
X195875786Y-109600377D01*
X195731034Y-109745129D01*
X195731030Y-109745135D01*
X195610713Y-109910739D01*
X195610710Y-109910743D01*
X195608538Y-109913734D01*
X195553208Y-109956400D01*
X195508219Y-109964849D01*
X168650464Y-109964849D01*
X168583425Y-109945164D01*
X168581621Y-109943983D01*
X168527179Y-109907606D01*
X168527172Y-109907602D01*
X168381501Y-109847264D01*
X168381489Y-109847261D01*
X168226845Y-109816500D01*
X168226842Y-109816500D01*
X168069158Y-109816500D01*
X168069155Y-109816500D01*
X167914510Y-109847261D01*
X167914498Y-109847264D01*
X167768827Y-109907602D01*
X167768814Y-109907609D01*
X167637711Y-109995210D01*
X167637707Y-109995213D01*
X167526213Y-110106707D01*
X167526210Y-110106711D01*
X167438609Y-110237814D01*
X167438602Y-110237827D01*
X167378264Y-110383498D01*
X167378261Y-110383510D01*
X167347500Y-110538153D01*
X167347500Y-110695846D01*
X167378261Y-110850489D01*
X167378264Y-110850501D01*
X167438602Y-110996172D01*
X167438609Y-110996185D01*
X167526210Y-111127288D01*
X167526213Y-111127292D01*
X167637707Y-111238786D01*
X167637711Y-111238789D01*
X167768814Y-111326390D01*
X167768827Y-111326397D01*
X167914498Y-111386735D01*
X167914503Y-111386737D01*
X168069153Y-111417499D01*
X168069156Y-111417500D01*
X168069158Y-111417500D01*
X168226844Y-111417500D01*
X168226845Y-111417499D01*
X168381497Y-111386737D01*
X168527179Y-111326394D01*
X168605649Y-111273962D01*
X168655359Y-111240747D01*
X168722036Y-111219869D01*
X168724250Y-111219849D01*
X195508219Y-111219849D01*
X195575258Y-111239534D01*
X195608538Y-111270964D01*
X195610710Y-111273954D01*
X195610713Y-111273959D01*
X195715000Y-111417499D01*
X195731034Y-111439568D01*
X195875786Y-111584320D01*
X196030749Y-111696905D01*
X196041390Y-111704636D01*
X196132840Y-111751232D01*
X196134080Y-111751864D01*
X196184876Y-111799839D01*
X196201671Y-111867660D01*
X196179134Y-111933795D01*
X196134080Y-111972834D01*
X196041386Y-112020064D01*
X195875786Y-112140377D01*
X195731028Y-112285135D01*
X195610715Y-112450735D01*
X195517781Y-112633125D01*
X195454522Y-112827814D01*
X195422500Y-113029997D01*
X195422500Y-113234700D01*
X195454522Y-113436883D01*
X195517781Y-113631572D01*
X195610715Y-113813962D01*
X195731028Y-113979562D01*
X195875786Y-114124320D01*
X196030749Y-114236905D01*
X196041390Y-114244636D01*
X196132840Y-114291232D01*
X196134080Y-114291864D01*
X196184876Y-114339839D01*
X196201671Y-114407660D01*
X196179134Y-114473795D01*
X196134080Y-114512834D01*
X196041386Y-114560064D01*
X195875786Y-114680377D01*
X195731028Y-114825135D01*
X195610715Y-114990735D01*
X195517781Y-115173125D01*
X195454522Y-115367814D01*
X195422500Y-115569997D01*
X195422500Y-115774700D01*
X195454522Y-115976883D01*
X195517781Y-116171572D01*
X195610715Y-116353962D01*
X195731028Y-116519562D01*
X195731034Y-116519568D01*
X195875781Y-116664315D01*
X195969452Y-116732370D01*
X196012117Y-116787699D01*
X196018096Y-116857312D01*
X195985491Y-116919108D01*
X195935571Y-116950394D01*
X195853666Y-116977535D01*
X195853663Y-116977536D01*
X195704342Y-117069638D01*
X195580289Y-117193691D01*
X195488187Y-117343012D01*
X195488185Y-117343017D01*
X195462514Y-117420489D01*
X195433001Y-117509552D01*
X195433001Y-117509553D01*
X195433000Y-117509553D01*
X195422500Y-117612332D01*
X195422500Y-118812350D01*
X195422501Y-118812367D01*
X195433000Y-118915145D01*
X195433001Y-118915148D01*
X195488185Y-119081680D01*
X195488187Y-119081685D01*
X195523069Y-119138237D01*
X195580288Y-119231005D01*
X195704344Y-119355061D01*
X195853666Y-119447163D01*
X196020203Y-119502348D01*
X196122991Y-119512849D01*
X197323008Y-119512848D01*
X197425797Y-119502348D01*
X197592334Y-119447163D01*
X197741656Y-119355061D01*
X197865712Y-119231005D01*
X197957814Y-119081683D01*
X198012999Y-118915146D01*
X198023500Y-118812358D01*
X198023499Y-117612341D01*
X198018089Y-117559385D01*
X198012999Y-117509552D01*
X198012998Y-117509549D01*
X197993829Y-117451701D01*
X197957814Y-117343015D01*
X197865712Y-117193693D01*
X197741656Y-117069637D01*
X197592334Y-116977535D01*
X197510427Y-116950393D01*
X197452984Y-116910621D01*
X197426161Y-116846105D01*
X197438476Y-116777329D01*
X197476547Y-116732370D01*
X197570219Y-116664315D01*
X197714966Y-116519568D01*
X197714968Y-116519564D01*
X197714971Y-116519562D01*
X197767732Y-116446939D01*
X197835287Y-116353959D01*
X197928220Y-116171568D01*
X197991477Y-115976883D01*
X198023500Y-115774701D01*
X198023500Y-115569997D01*
X197991477Y-115367815D01*
X197928220Y-115173130D01*
X197928218Y-115173127D01*
X197928218Y-115173125D01*
X197894503Y-115106956D01*
X197835287Y-114990739D01*
X197827556Y-114980098D01*
X197714971Y-114825135D01*
X197570213Y-114680377D01*
X197404614Y-114560064D01*
X197398006Y-114556697D01*
X197311917Y-114512832D01*
X197261123Y-114464860D01*
X197244328Y-114397039D01*
X197266865Y-114330904D01*
X197311917Y-114291865D01*
X197404610Y-114244636D01*
X197425770Y-114229262D01*
X197570213Y-114124320D01*
X197570215Y-114124317D01*
X197570219Y-114124315D01*
X197714966Y-113979568D01*
X197714968Y-113979564D01*
X197714971Y-113979562D01*
X197767732Y-113906939D01*
X197835287Y-113813959D01*
X197928220Y-113631568D01*
X197991477Y-113436883D01*
X198023500Y-113234701D01*
X198023500Y-113029997D01*
X197991477Y-112827815D01*
X197928220Y-112633130D01*
X197928218Y-112633127D01*
X197928218Y-112633125D01*
X197894503Y-112566956D01*
X197835287Y-112450739D01*
X197827556Y-112440098D01*
X197714971Y-112285135D01*
X197570213Y-112140377D01*
X197404614Y-112020064D01*
X197346591Y-111990500D01*
X197311917Y-111972832D01*
X197261123Y-111924860D01*
X197244328Y-111857039D01*
X197266865Y-111790904D01*
X197311917Y-111751865D01*
X197404610Y-111704636D01*
X197425770Y-111689262D01*
X197570213Y-111584320D01*
X197570215Y-111584317D01*
X197570219Y-111584315D01*
X197714966Y-111439568D01*
X197714968Y-111439564D01*
X197714971Y-111439562D01*
X197805148Y-111315442D01*
X197835287Y-111273959D01*
X197928220Y-111091568D01*
X197991477Y-110896883D01*
X198023500Y-110694701D01*
X198023500Y-110489997D01*
X197991477Y-110287815D01*
X197928220Y-110093130D01*
X197928218Y-110093127D01*
X197928218Y-110093125D01*
X197894503Y-110026956D01*
X197835287Y-109910739D01*
X197827556Y-109900098D01*
X197714971Y-109745135D01*
X197570213Y-109600377D01*
X197404614Y-109480064D01*
X197398006Y-109476697D01*
X197311917Y-109432832D01*
X197261123Y-109384860D01*
X197244328Y-109317039D01*
X197266865Y-109250904D01*
X197311917Y-109211865D01*
X197404610Y-109164636D01*
X197486873Y-109104869D01*
X197570213Y-109044320D01*
X197570215Y-109044317D01*
X197570219Y-109044315D01*
X197714966Y-108899568D01*
X197714968Y-108899564D01*
X197714971Y-108899562D01*
X197767732Y-108826939D01*
X197835287Y-108733959D01*
X197928220Y-108551568D01*
X197991477Y-108356883D01*
X198023500Y-108154701D01*
X198023500Y-107949997D01*
X198012288Y-107879210D01*
X197991477Y-107747814D01*
X197928218Y-107553125D01*
X197888879Y-107475919D01*
X197835287Y-107370739D01*
X197803544Y-107327048D01*
X197714971Y-107205135D01*
X197570213Y-107060377D01*
X197404614Y-106940064D01*
X197398006Y-106936697D01*
X197311917Y-106892832D01*
X197261123Y-106844860D01*
X197244328Y-106777039D01*
X197266865Y-106710904D01*
X197311917Y-106671865D01*
X197404610Y-106624636D01*
X197425770Y-106609262D01*
X197570213Y-106504320D01*
X197570215Y-106504317D01*
X197570219Y-106504315D01*
X197714966Y-106359568D01*
X197714968Y-106359564D01*
X197714971Y-106359562D01*
X197774020Y-106278286D01*
X197835287Y-106193959D01*
X197928220Y-106011568D01*
X197991477Y-105816883D01*
X198023500Y-105614701D01*
X198023500Y-105409997D01*
X203042500Y-105409997D01*
X203042500Y-105614700D01*
X203074522Y-105816883D01*
X203137781Y-106011572D01*
X203230715Y-106193962D01*
X203351028Y-106359562D01*
X203495786Y-106504320D01*
X203650749Y-106616905D01*
X203661390Y-106624636D01*
X203752840Y-106671232D01*
X203754080Y-106671864D01*
X203804876Y-106719839D01*
X203821671Y-106787660D01*
X203799134Y-106853795D01*
X203754080Y-106892834D01*
X203661386Y-106940064D01*
X203495786Y-107060377D01*
X203351028Y-107205135D01*
X203230715Y-107370735D01*
X203137781Y-107553125D01*
X203074522Y-107747814D01*
X203042500Y-107949997D01*
X203042500Y-108154700D01*
X203074522Y-108356883D01*
X203137781Y-108551572D01*
X203230715Y-108733962D01*
X203351028Y-108899562D01*
X203495786Y-109044320D01*
X203603792Y-109122789D01*
X203661390Y-109164636D01*
X203743861Y-109206657D01*
X203754080Y-109211864D01*
X203804876Y-109259839D01*
X203821671Y-109327660D01*
X203799134Y-109393795D01*
X203754080Y-109432834D01*
X203661386Y-109480064D01*
X203495786Y-109600377D01*
X203351028Y-109745135D01*
X203230715Y-109910735D01*
X203137781Y-110093125D01*
X203074522Y-110287814D01*
X203059367Y-110383503D01*
X203042500Y-110489997D01*
X203042500Y-110694701D01*
X203046878Y-110722344D01*
X203074522Y-110896883D01*
X203137781Y-111091572D01*
X203201691Y-111217002D01*
X203220891Y-111254683D01*
X203230715Y-111273962D01*
X203351028Y-111439562D01*
X203495786Y-111584320D01*
X203650749Y-111696905D01*
X203661390Y-111704636D01*
X203752840Y-111751232D01*
X203754080Y-111751864D01*
X203804876Y-111799839D01*
X203821671Y-111867660D01*
X203799134Y-111933795D01*
X203754080Y-111972834D01*
X203661386Y-112020064D01*
X203495786Y-112140377D01*
X203351028Y-112285135D01*
X203230715Y-112450735D01*
X203137781Y-112633125D01*
X203074522Y-112827814D01*
X203042500Y-113029997D01*
X203042500Y-113234700D01*
X203074522Y-113436883D01*
X203137781Y-113631572D01*
X203230715Y-113813962D01*
X203351028Y-113979562D01*
X203495786Y-114124320D01*
X203650749Y-114236905D01*
X203661390Y-114244636D01*
X203752840Y-114291232D01*
X203754080Y-114291864D01*
X203804876Y-114339839D01*
X203821671Y-114407660D01*
X203799134Y-114473795D01*
X203754080Y-114512834D01*
X203661386Y-114560064D01*
X203495786Y-114680377D01*
X203351028Y-114825135D01*
X203230715Y-114990735D01*
X203137781Y-115173125D01*
X203074522Y-115367814D01*
X203042500Y-115569997D01*
X203042500Y-115774700D01*
X203074522Y-115976883D01*
X203137781Y-116171572D01*
X203230715Y-116353962D01*
X203351028Y-116519562D01*
X203495786Y-116664320D01*
X203650749Y-116776905D01*
X203661390Y-116784636D01*
X203752840Y-116831232D01*
X203754080Y-116831864D01*
X203804876Y-116879839D01*
X203821671Y-116947660D01*
X203799134Y-117013795D01*
X203754080Y-117052834D01*
X203661386Y-117100064D01*
X203495786Y-117220377D01*
X203351028Y-117365135D01*
X203230715Y-117530735D01*
X203137781Y-117713125D01*
X203074522Y-117907814D01*
X203042500Y-118109997D01*
X203042500Y-118314700D01*
X203074522Y-118516883D01*
X203137781Y-118711572D01*
X203230715Y-118893962D01*
X203351028Y-119059562D01*
X203495786Y-119204320D01*
X203620328Y-119294803D01*
X203661390Y-119324636D01*
X203777607Y-119383852D01*
X203843776Y-119417567D01*
X203843778Y-119417567D01*
X203843781Y-119417569D01*
X203934856Y-119447161D01*
X204038465Y-119480826D01*
X204139557Y-119496837D01*
X204240648Y-119512849D01*
X204240649Y-119512849D01*
X204445351Y-119512849D01*
X204445352Y-119512849D01*
X204647534Y-119480826D01*
X204842219Y-119417569D01*
X205024610Y-119324636D01*
X205153482Y-119231006D01*
X205190213Y-119204320D01*
X205190215Y-119204317D01*
X205190219Y-119204315D01*
X205334966Y-119059568D01*
X205334968Y-119059564D01*
X205334971Y-119059562D01*
X205439892Y-118915148D01*
X205455287Y-118893959D01*
X205548220Y-118711568D01*
X205611477Y-118516883D01*
X205643500Y-118314701D01*
X205643500Y-118109997D01*
X205629748Y-118023174D01*
X205611477Y-117907814D01*
X205548218Y-117713125D01*
X205496865Y-117612340D01*
X205455287Y-117530739D01*
X205403388Y-117459305D01*
X205334971Y-117365135D01*
X205190213Y-117220377D01*
X205024614Y-117100064D01*
X205018006Y-117096697D01*
X204931917Y-117052832D01*
X204881123Y-117004860D01*
X204864328Y-116937039D01*
X204886865Y-116870904D01*
X204931917Y-116831865D01*
X205024610Y-116784636D01*
X205096550Y-116732369D01*
X205190213Y-116664320D01*
X205190215Y-116664317D01*
X205190219Y-116664315D01*
X205334966Y-116519568D01*
X205334968Y-116519564D01*
X205334971Y-116519562D01*
X205387732Y-116446939D01*
X205455287Y-116353959D01*
X205548220Y-116171568D01*
X205611477Y-115976883D01*
X205643500Y-115774701D01*
X205643500Y-115569997D01*
X205611477Y-115367815D01*
X205548220Y-115173130D01*
X205548218Y-115173127D01*
X205548218Y-115173125D01*
X205514503Y-115106956D01*
X205455287Y-114990739D01*
X205447556Y-114980098D01*
X205334971Y-114825135D01*
X205190213Y-114680377D01*
X205024614Y-114560064D01*
X205018006Y-114556697D01*
X204931917Y-114512832D01*
X204881123Y-114464860D01*
X204864328Y-114397039D01*
X204886865Y-114330904D01*
X204931917Y-114291865D01*
X205024610Y-114244636D01*
X205045770Y-114229262D01*
X205190213Y-114124320D01*
X205190215Y-114124317D01*
X205190219Y-114124315D01*
X205334966Y-113979568D01*
X205334968Y-113979564D01*
X205334971Y-113979562D01*
X205387732Y-113906939D01*
X205455287Y-113813959D01*
X205548220Y-113631568D01*
X205611477Y-113436883D01*
X205643500Y-113234701D01*
X205643500Y-113029997D01*
X205611477Y-112827815D01*
X205548220Y-112633130D01*
X205548218Y-112633127D01*
X205548218Y-112633125D01*
X205514503Y-112566956D01*
X205455287Y-112450739D01*
X205447556Y-112440098D01*
X205334971Y-112285135D01*
X205190213Y-112140377D01*
X205024614Y-112020064D01*
X204966591Y-111990500D01*
X204931917Y-111972832D01*
X204881123Y-111924860D01*
X204864328Y-111857039D01*
X204886865Y-111790904D01*
X204931917Y-111751865D01*
X205024610Y-111704636D01*
X205045770Y-111689262D01*
X205190213Y-111584320D01*
X205190215Y-111584317D01*
X205190219Y-111584315D01*
X205334966Y-111439568D01*
X205334968Y-111439564D01*
X205334971Y-111439562D01*
X205425148Y-111315442D01*
X205455287Y-111273959D01*
X205548220Y-111091568D01*
X205611477Y-110896883D01*
X205643500Y-110694701D01*
X205643500Y-110489997D01*
X205611477Y-110287815D01*
X205548220Y-110093130D01*
X205548218Y-110093127D01*
X205548218Y-110093125D01*
X205514503Y-110026956D01*
X205455287Y-109910739D01*
X205447556Y-109900098D01*
X205334971Y-109745135D01*
X205190213Y-109600377D01*
X205024614Y-109480064D01*
X205018006Y-109476697D01*
X204931917Y-109432832D01*
X204881123Y-109384860D01*
X204864328Y-109317039D01*
X204886865Y-109250904D01*
X204931917Y-109211865D01*
X205024610Y-109164636D01*
X205106873Y-109104869D01*
X205190213Y-109044320D01*
X205190215Y-109044317D01*
X205190219Y-109044315D01*
X205334966Y-108899568D01*
X205334968Y-108899564D01*
X205334971Y-108899562D01*
X205387732Y-108826939D01*
X205455287Y-108733959D01*
X205548220Y-108551568D01*
X205611477Y-108356883D01*
X205643500Y-108154701D01*
X205643500Y-107949997D01*
X205632288Y-107879210D01*
X205611477Y-107747814D01*
X205548218Y-107553125D01*
X205508879Y-107475919D01*
X205455287Y-107370739D01*
X205423544Y-107327048D01*
X205334971Y-107205135D01*
X205190213Y-107060377D01*
X205024614Y-106940064D01*
X205018006Y-106936697D01*
X204931917Y-106892832D01*
X204881123Y-106844860D01*
X204864328Y-106777039D01*
X204886865Y-106710904D01*
X204931917Y-106671865D01*
X205024610Y-106624636D01*
X205045770Y-106609262D01*
X205190213Y-106504320D01*
X205190215Y-106504317D01*
X205190219Y-106504315D01*
X205334966Y-106359568D01*
X205334968Y-106359564D01*
X205334971Y-106359562D01*
X205394020Y-106278286D01*
X205455287Y-106193959D01*
X205548220Y-106011568D01*
X205611477Y-105816883D01*
X205643500Y-105614701D01*
X205643500Y-105409997D01*
X205611477Y-105207815D01*
X205548220Y-105013130D01*
X205548218Y-105013127D01*
X205548218Y-105013125D01*
X205514503Y-104946956D01*
X205455287Y-104830739D01*
X205423546Y-104787051D01*
X205334971Y-104665135D01*
X205190213Y-104520377D01*
X205024613Y-104400064D01*
X205024612Y-104400063D01*
X205024610Y-104400062D01*
X204953644Y-104363903D01*
X204842223Y-104307130D01*
X204647534Y-104243871D01*
X204472995Y-104216227D01*
X204445352Y-104211849D01*
X204240648Y-104211849D01*
X204216329Y-104215700D01*
X204038465Y-104243871D01*
X203843776Y-104307130D01*
X203661386Y-104400064D01*
X203495786Y-104520377D01*
X203351028Y-104665135D01*
X203230715Y-104830735D01*
X203137781Y-105013125D01*
X203074522Y-105207814D01*
X203042500Y-105409997D01*
X198023500Y-105409997D01*
X197991477Y-105207815D01*
X197968114Y-105135914D01*
X197966120Y-105066074D01*
X198002200Y-105006241D01*
X198064900Y-104975412D01*
X198133500Y-104983036D01*
X198140503Y-104985937D01*
X198277211Y-105013130D01*
X198295153Y-105016699D01*
X198295156Y-105016700D01*
X198295158Y-105016700D01*
X198452844Y-105016700D01*
X198452845Y-105016699D01*
X198607497Y-104985937D01*
X198753179Y-104925594D01*
X198884289Y-104837989D01*
X198995789Y-104726489D01*
X199083394Y-104595379D01*
X199143737Y-104449697D01*
X199174500Y-104295042D01*
X199174500Y-104137358D01*
X199174500Y-104137355D01*
X199174499Y-104137353D01*
X199143738Y-103982710D01*
X199143737Y-103982703D01*
X199129462Y-103948239D01*
X199083397Y-103837027D01*
X199083390Y-103837014D01*
X198995789Y-103705911D01*
X198995786Y-103705907D01*
X198884292Y-103594413D01*
X198884288Y-103594410D01*
X198753185Y-103506809D01*
X198753172Y-103506802D01*
X198607501Y-103446464D01*
X198607489Y-103446461D01*
X198452845Y-103415700D01*
X198452842Y-103415700D01*
X198295158Y-103415700D01*
X198295155Y-103415700D01*
X198134528Y-103447651D01*
X198134250Y-103446255D01*
X198071530Y-103446815D01*
X198012417Y-103409567D01*
X197982826Y-103346272D01*
X197987472Y-103289210D01*
X197991476Y-103276886D01*
X197991477Y-103276883D01*
X198023500Y-103074701D01*
X198023500Y-102869997D01*
X197995127Y-102690858D01*
X197991477Y-102667814D01*
X197950494Y-102541682D01*
X197928220Y-102473130D01*
X197928218Y-102473127D01*
X197928218Y-102473125D01*
X197894503Y-102406956D01*
X197835287Y-102290739D01*
X197806789Y-102251514D01*
X197714971Y-102125135D01*
X197570213Y-101980377D01*
X197404613Y-101860064D01*
X197404612Y-101860063D01*
X197404610Y-101860062D01*
X197347653Y-101831040D01*
X197222223Y-101767130D01*
X197027534Y-101703871D01*
X196852995Y-101676227D01*
X196825352Y-101671849D01*
X196620648Y-101671849D01*
X196596329Y-101675700D01*
X196418465Y-101703871D01*
X196223776Y-101767130D01*
X196041386Y-101860064D01*
X195875786Y-101980377D01*
X195731034Y-102125129D01*
X195716184Y-102145569D01*
X195610713Y-102290739D01*
X195610710Y-102290743D01*
X195608538Y-102293734D01*
X195553208Y-102336400D01*
X195508219Y-102344849D01*
X193942646Y-102344849D01*
X193821421Y-102368962D01*
X193821411Y-102368965D01*
X193707225Y-102416262D01*
X193707214Y-102416268D01*
X193613528Y-102478867D01*
X193613527Y-102478866D01*
X193604449Y-102484932D01*
X193604440Y-102484940D01*
X193426000Y-102663381D01*
X193364677Y-102696866D01*
X193338319Y-102699700D01*
X189005968Y-102699700D01*
X188938929Y-102680015D01*
X188893174Y-102627211D01*
X188883230Y-102558053D01*
X188905649Y-102502815D01*
X188952891Y-102437793D01*
X189035848Y-102274980D01*
X189092315Y-102101194D01*
X189105019Y-102020980D01*
X189120900Y-101920719D01*
X189120900Y-101737978D01*
X189092315Y-101557507D01*
X189092315Y-101557504D01*
X189035848Y-101383718D01*
X188952891Y-101220905D01*
X188845485Y-101073073D01*
X188716276Y-100943864D01*
X188568444Y-100836458D01*
X188449311Y-100775757D01*
X188405633Y-100753502D01*
X188405632Y-100753501D01*
X188405631Y-100753501D01*
X188231845Y-100697034D01*
X188231843Y-100697033D01*
X188231841Y-100697033D01*
X188051370Y-100668449D01*
X188051365Y-100668449D01*
X187868635Y-100668449D01*
X187868630Y-100668449D01*
X187688158Y-100697033D01*
X187601262Y-100725267D01*
X187565514Y-100736883D01*
X187514366Y-100753502D01*
X187351555Y-100836458D01*
X187203721Y-100943866D01*
X187074517Y-101073070D01*
X186967109Y-101220904D01*
X186884153Y-101383715D01*
X186884152Y-101383717D01*
X186884152Y-101383718D01*
X186866506Y-101438027D01*
X186827684Y-101557507D01*
X186799100Y-101737978D01*
X186799100Y-101920719D01*
X186827684Y-102101190D01*
X186827685Y-102101194D01*
X186884152Y-102274980D01*
X186967109Y-102437793D01*
X187014350Y-102502815D01*
X187037830Y-102568620D01*
X187022005Y-102636674D01*
X186971899Y-102685369D01*
X186914032Y-102699700D01*
X179312992Y-102699700D01*
X179191773Y-102723812D01*
X179191761Y-102723815D01*
X179161744Y-102736249D01*
X179161737Y-102736252D01*
X179156275Y-102738514D01*
X179086805Y-102745978D01*
X179024328Y-102714699D01*
X178988680Y-102654608D01*
X178991178Y-102584783D01*
X179021147Y-102536271D01*
X184645441Y-96911978D01*
X186799100Y-96911978D01*
X186799100Y-97094719D01*
X186825842Y-97263557D01*
X186827685Y-97275194D01*
X186884152Y-97448980D01*
X186967109Y-97611793D01*
X187074515Y-97759625D01*
X187203724Y-97888834D01*
X187351556Y-97996240D01*
X187514369Y-98079197D01*
X187688155Y-98135664D01*
X187755835Y-98146383D01*
X187868630Y-98164249D01*
X187868635Y-98164249D01*
X188051370Y-98164249D01*
X188151631Y-98148368D01*
X188231845Y-98135664D01*
X188405631Y-98079197D01*
X188553220Y-98003997D01*
X191602500Y-98003997D01*
X191602500Y-98208700D01*
X191634522Y-98410883D01*
X191697781Y-98605572D01*
X191761691Y-98731002D01*
X191781977Y-98770814D01*
X191790715Y-98787962D01*
X191911028Y-98953562D01*
X192055786Y-99098320D01*
X192185897Y-99192849D01*
X192221390Y-99218636D01*
X192337607Y-99277852D01*
X192403776Y-99311567D01*
X192403778Y-99311567D01*
X192403781Y-99311569D01*
X192508137Y-99345476D01*
X192598465Y-99374826D01*
X192762937Y-99400876D01*
X192826072Y-99430805D01*
X192863003Y-99490117D01*
X192862005Y-99559979D01*
X192823395Y-99618212D01*
X192762937Y-99645822D01*
X192598465Y-99671871D01*
X192403776Y-99735130D01*
X192221386Y-99828064D01*
X192055786Y-99948377D01*
X191911028Y-100093135D01*
X191790715Y-100258735D01*
X191697781Y-100441125D01*
X191634522Y-100635814D01*
X191602500Y-100837997D01*
X191602500Y-101042700D01*
X191634522Y-101244883D01*
X191697781Y-101439572D01*
X191790715Y-101621962D01*
X191911028Y-101787562D01*
X192055786Y-101932320D01*
X192210749Y-102044905D01*
X192221390Y-102052636D01*
X192337607Y-102111852D01*
X192403776Y-102145567D01*
X192403778Y-102145567D01*
X192403781Y-102145569D01*
X192508137Y-102179476D01*
X192598465Y-102208826D01*
X192679129Y-102221602D01*
X192800648Y-102240849D01*
X192800649Y-102240849D01*
X193005351Y-102240849D01*
X193005352Y-102240849D01*
X193207534Y-102208826D01*
X193402219Y-102145569D01*
X193584610Y-102052636D01*
X193695883Y-101971792D01*
X193750213Y-101932320D01*
X193750215Y-101932317D01*
X193750219Y-101932315D01*
X193894966Y-101787568D01*
X193894968Y-101787564D01*
X193894971Y-101787562D01*
X193979040Y-101671849D01*
X194015287Y-101621959D01*
X194108220Y-101439568D01*
X194171477Y-101244883D01*
X194203500Y-101042701D01*
X194203500Y-100837997D01*
X194198054Y-100803611D01*
X194171477Y-100635814D01*
X194108218Y-100441125D01*
X194074503Y-100374956D01*
X194015287Y-100258739D01*
X193981481Y-100212208D01*
X193894971Y-100093135D01*
X193750213Y-99948377D01*
X193584613Y-99828064D01*
X193584612Y-99828063D01*
X193584610Y-99828062D01*
X193527653Y-99799040D01*
X193402223Y-99735130D01*
X193207534Y-99671871D01*
X193073414Y-99650629D01*
X193043061Y-99645821D01*
X192979927Y-99615893D01*
X192942996Y-99556581D01*
X192943994Y-99486719D01*
X192982604Y-99428486D01*
X193043061Y-99400876D01*
X193207534Y-99374826D01*
X193402219Y-99311569D01*
X193584610Y-99218636D01*
X193677590Y-99151081D01*
X193750213Y-99098320D01*
X193750215Y-99098317D01*
X193750219Y-99098315D01*
X193894966Y-98953568D01*
X193894968Y-98953564D01*
X193894971Y-98953562D01*
X193980021Y-98836499D01*
X194015287Y-98787959D01*
X194108220Y-98605568D01*
X194171477Y-98410883D01*
X194203500Y-98208701D01*
X194203500Y-98003997D01*
X194185259Y-97888831D01*
X194171477Y-97801814D01*
X194108218Y-97607125D01*
X194027638Y-97448980D01*
X194015287Y-97424739D01*
X193963491Y-97353447D01*
X193894971Y-97259135D01*
X193750213Y-97114377D01*
X193584613Y-96994064D01*
X193584612Y-96994063D01*
X193584610Y-96994062D01*
X193527653Y-96965040D01*
X193402223Y-96901130D01*
X193207534Y-96837871D01*
X193032995Y-96810227D01*
X193005352Y-96805849D01*
X192800648Y-96805849D01*
X192776329Y-96809700D01*
X192598465Y-96837871D01*
X192403776Y-96901130D01*
X192221386Y-96994064D01*
X192055786Y-97114377D01*
X191911028Y-97259135D01*
X191790715Y-97424735D01*
X191697781Y-97607125D01*
X191634522Y-97801814D01*
X191602500Y-98003997D01*
X188553220Y-98003997D01*
X188568444Y-97996240D01*
X188716276Y-97888834D01*
X188845485Y-97759625D01*
X188952891Y-97611793D01*
X189035848Y-97448980D01*
X189092315Y-97275194D01*
X189109444Y-97167048D01*
X189120900Y-97094719D01*
X189120900Y-96911978D01*
X189100006Y-96780062D01*
X189092315Y-96731504D01*
X189035848Y-96557718D01*
X188952891Y-96394905D01*
X188845485Y-96247073D01*
X188716276Y-96117864D01*
X188568444Y-96010458D01*
X188405631Y-95927501D01*
X188231845Y-95871034D01*
X188231843Y-95871033D01*
X188231841Y-95871033D01*
X188051370Y-95842449D01*
X188051365Y-95842449D01*
X187868635Y-95842449D01*
X187868630Y-95842449D01*
X187688158Y-95871033D01*
X187514366Y-95927502D01*
X187351555Y-96010458D01*
X187203721Y-96117866D01*
X187074517Y-96247070D01*
X186967109Y-96394904D01*
X186884153Y-96557715D01*
X186827684Y-96731507D01*
X186799100Y-96911978D01*
X184645441Y-96911978D01*
X189352000Y-92205419D01*
X189413323Y-92171934D01*
X189439681Y-92169100D01*
X195393907Y-92169100D01*
X195460946Y-92188785D01*
X195506701Y-92241589D01*
X195516645Y-92310747D01*
X195511838Y-92331419D01*
X195454522Y-92507814D01*
X195422500Y-92709997D01*
X195422500Y-92914700D01*
X195454522Y-93116883D01*
X195517781Y-93311572D01*
X195610715Y-93493962D01*
X195731028Y-93659562D01*
X195875786Y-93804320D01*
X196030749Y-93916905D01*
X196041390Y-93924636D01*
X196132840Y-93971232D01*
X196134080Y-93971864D01*
X196184876Y-94019839D01*
X196201671Y-94087660D01*
X196179134Y-94153795D01*
X196134080Y-94192834D01*
X196041386Y-94240064D01*
X195875786Y-94360377D01*
X195731028Y-94505135D01*
X195610715Y-94670735D01*
X195517781Y-94853125D01*
X195454522Y-95047814D01*
X195422500Y-95249997D01*
X195422500Y-95454700D01*
X195454522Y-95656883D01*
X195517781Y-95851572D01*
X195610715Y-96033962D01*
X195731028Y-96199562D01*
X195875786Y-96344320D01*
X196015302Y-96445682D01*
X196041390Y-96464636D01*
X196132840Y-96511232D01*
X196134080Y-96511864D01*
X196184876Y-96559839D01*
X196201671Y-96627660D01*
X196179134Y-96693795D01*
X196134080Y-96732834D01*
X196041386Y-96780064D01*
X195875786Y-96900377D01*
X195731028Y-97045135D01*
X195610715Y-97210735D01*
X195517781Y-97393125D01*
X195454522Y-97587814D01*
X195422500Y-97789997D01*
X195422500Y-97994700D01*
X195454522Y-98196883D01*
X195517781Y-98391572D01*
X195527621Y-98410883D01*
X195608243Y-98569112D01*
X195610715Y-98573962D01*
X195731028Y-98739562D01*
X195875786Y-98884320D01*
X196023640Y-98991740D01*
X196041390Y-99004636D01*
X196134080Y-99051864D01*
X196223776Y-99097567D01*
X196223778Y-99097567D01*
X196223781Y-99097569D01*
X196328137Y-99131476D01*
X196418465Y-99160826D01*
X196437697Y-99163872D01*
X196620648Y-99192849D01*
X196620649Y-99192849D01*
X196825351Y-99192849D01*
X196825352Y-99192849D01*
X197027534Y-99160826D01*
X197222219Y-99097569D01*
X197404610Y-99004636D01*
X197548102Y-98900384D01*
X197570213Y-98884320D01*
X197570215Y-98884317D01*
X197570219Y-98884315D01*
X197714966Y-98739568D01*
X197714968Y-98739564D01*
X197714971Y-98739562D01*
X197803395Y-98617855D01*
X197835287Y-98573959D01*
X197928220Y-98391568D01*
X197991477Y-98196883D01*
X198023500Y-97994701D01*
X198023500Y-97789997D01*
X198018689Y-97759625D01*
X197991477Y-97587814D01*
X197938489Y-97424735D01*
X197928220Y-97393130D01*
X197928218Y-97393127D01*
X197928218Y-97393125D01*
X197894503Y-97326956D01*
X197835287Y-97210739D01*
X197803546Y-97167051D01*
X197714971Y-97045135D01*
X197570213Y-96900377D01*
X197404614Y-96780064D01*
X197398006Y-96776697D01*
X197311917Y-96732832D01*
X197261123Y-96684860D01*
X197244328Y-96617039D01*
X197266865Y-96550904D01*
X197311917Y-96511865D01*
X197404610Y-96464636D01*
X197475101Y-96413422D01*
X197570213Y-96344320D01*
X197570215Y-96344317D01*
X197570219Y-96344315D01*
X197714966Y-96199568D01*
X197714968Y-96199564D01*
X197714971Y-96199562D01*
X197774327Y-96117864D01*
X197835287Y-96033959D01*
X197928220Y-95851568D01*
X197991477Y-95656883D01*
X198023500Y-95454701D01*
X198023500Y-95249997D01*
X197998015Y-95089091D01*
X197991477Y-95047814D01*
X197956842Y-94941220D01*
X197928220Y-94853130D01*
X197928218Y-94853127D01*
X197928218Y-94853125D01*
X197880994Y-94760444D01*
X197835287Y-94670739D01*
X197771701Y-94583219D01*
X197714971Y-94505135D01*
X197570213Y-94360377D01*
X197404614Y-94240064D01*
X197395105Y-94235219D01*
X197311917Y-94192832D01*
X197261123Y-94144860D01*
X197244328Y-94077039D01*
X197266865Y-94010904D01*
X197311917Y-93971865D01*
X197404610Y-93924636D01*
X197523371Y-93838352D01*
X197570213Y-93804320D01*
X197570215Y-93804317D01*
X197570219Y-93804315D01*
X197714966Y-93659568D01*
X197714968Y-93659564D01*
X197714971Y-93659562D01*
X197789159Y-93557449D01*
X197835287Y-93493959D01*
X197928220Y-93311568D01*
X197991477Y-93116883D01*
X198023500Y-92914701D01*
X198023500Y-92709997D01*
X197991477Y-92507815D01*
X197991476Y-92507813D01*
X197934162Y-92331419D01*
X197932167Y-92261577D01*
X197968247Y-92201744D01*
X198030948Y-92170916D01*
X198052093Y-92169100D01*
X203013906Y-92169100D01*
X203080945Y-92188785D01*
X203126700Y-92241589D01*
X203136644Y-92310747D01*
X203131837Y-92331418D01*
X203074523Y-92507810D01*
X203074523Y-92507813D01*
X203042500Y-92709997D01*
X203042500Y-92914700D01*
X203074522Y-93116883D01*
X203137781Y-93311572D01*
X203230715Y-93493962D01*
X203351028Y-93659562D01*
X203495786Y-93804320D01*
X203650749Y-93916905D01*
X203661390Y-93924636D01*
X203752840Y-93971232D01*
X203754080Y-93971864D01*
X203804876Y-94019839D01*
X203821671Y-94087660D01*
X203799134Y-94153795D01*
X203754080Y-94192834D01*
X203661386Y-94240064D01*
X203495786Y-94360377D01*
X203351028Y-94505135D01*
X203230715Y-94670735D01*
X203137781Y-94853125D01*
X203074522Y-95047814D01*
X203042500Y-95249997D01*
X203042500Y-95454700D01*
X203074522Y-95656883D01*
X203137781Y-95851572D01*
X203230715Y-96033962D01*
X203351028Y-96199562D01*
X203495786Y-96344320D01*
X203635302Y-96445682D01*
X203661390Y-96464636D01*
X203752840Y-96511232D01*
X203754080Y-96511864D01*
X203804876Y-96559839D01*
X203821671Y-96627660D01*
X203799134Y-96693795D01*
X203754080Y-96732834D01*
X203661386Y-96780064D01*
X203495786Y-96900377D01*
X203351030Y-97045133D01*
X203320808Y-97086733D01*
X203316475Y-97090074D01*
X203314202Y-97095052D01*
X203289101Y-97111183D01*
X203265479Y-97129399D01*
X203258806Y-97130652D01*
X203255424Y-97132826D01*
X203220489Y-97137849D01*
X203031235Y-97137849D01*
X202964196Y-97118164D01*
X202943554Y-97101530D01*
X202085819Y-96243794D01*
X202052334Y-96182471D01*
X202049500Y-96156113D01*
X202049500Y-93766947D01*
X202058939Y-93719494D01*
X202064737Y-93705497D01*
X202095500Y-93550842D01*
X202095500Y-93393158D01*
X202095500Y-93393155D01*
X202095499Y-93393153D01*
X202093527Y-93383241D01*
X202064737Y-93238503D01*
X202055801Y-93216929D01*
X202004397Y-93092827D01*
X202004390Y-93092814D01*
X201916789Y-92961711D01*
X201916786Y-92961707D01*
X201805292Y-92850213D01*
X201805288Y-92850210D01*
X201674185Y-92762609D01*
X201674172Y-92762602D01*
X201528501Y-92702264D01*
X201528489Y-92702261D01*
X201373845Y-92671500D01*
X201373842Y-92671500D01*
X201216158Y-92671500D01*
X201216155Y-92671500D01*
X201061510Y-92702261D01*
X201061498Y-92702264D01*
X200915827Y-92762602D01*
X200915814Y-92762609D01*
X200784711Y-92850210D01*
X200784707Y-92850213D01*
X200673213Y-92961707D01*
X200673210Y-92961711D01*
X200585609Y-93092814D01*
X200585602Y-93092827D01*
X200525264Y-93238498D01*
X200525261Y-93238510D01*
X200494500Y-93393153D01*
X200494500Y-93550846D01*
X200525261Y-93705489D01*
X200525263Y-93705497D01*
X200531061Y-93719494D01*
X200540500Y-93766947D01*
X200540500Y-96440552D01*
X200540499Y-96440578D01*
X200540499Y-96445688D01*
X200540499Y-96594312D01*
X200540499Y-96594314D01*
X200540498Y-96594314D01*
X200569493Y-96740073D01*
X200569496Y-96740083D01*
X200626366Y-96877381D01*
X200626372Y-96877392D01*
X200708942Y-97000968D01*
X200708943Y-97000969D01*
X202076949Y-98368973D01*
X202076970Y-98368996D01*
X202186380Y-98478406D01*
X202186383Y-98478408D01*
X202267931Y-98532896D01*
X202309960Y-98560979D01*
X202384401Y-98591813D01*
X202447269Y-98617854D01*
X202447273Y-98617855D01*
X202471453Y-98622664D01*
X202471459Y-98622665D01*
X202593035Y-98646850D01*
X202593037Y-98646850D01*
X202747775Y-98646850D01*
X202747795Y-98646849D01*
X203220489Y-98646849D01*
X203287528Y-98666534D01*
X203320808Y-98697965D01*
X203351030Y-98739564D01*
X203495786Y-98884320D01*
X203643640Y-98991740D01*
X203661390Y-99004636D01*
X203752840Y-99051232D01*
X203754080Y-99051864D01*
X203804876Y-99099839D01*
X203821671Y-99167660D01*
X203799134Y-99233795D01*
X203754080Y-99272834D01*
X203661386Y-99320064D01*
X203495786Y-99440377D01*
X203351028Y-99585135D01*
X203230715Y-99750735D01*
X203137781Y-99933125D01*
X203074522Y-100127814D01*
X203042500Y-100329997D01*
X203042500Y-100534700D01*
X203074522Y-100736883D01*
X203137781Y-100931572D01*
X203178242Y-101010980D01*
X203229554Y-101111685D01*
X203230715Y-101113962D01*
X203351028Y-101279562D01*
X203495786Y-101424320D01*
X203590899Y-101493422D01*
X203661390Y-101544636D01*
X203777607Y-101603852D01*
X203843776Y-101637567D01*
X203843778Y-101637567D01*
X203843781Y-101637569D01*
X203948137Y-101671476D01*
X204038465Y-101700826D01*
X204057697Y-101703872D01*
X204240648Y-101732849D01*
X204240649Y-101732849D01*
X204445351Y-101732849D01*
X204445352Y-101732849D01*
X204647534Y-101700826D01*
X204842219Y-101637569D01*
X205024610Y-101544636D01*
X205134632Y-101464701D01*
X205190213Y-101424320D01*
X205190215Y-101424317D01*
X205190219Y-101424315D01*
X205334966Y-101279568D01*
X205334968Y-101279564D01*
X205334971Y-101279562D01*
X205418575Y-101164489D01*
X205455287Y-101113959D01*
X205548220Y-100931568D01*
X205611477Y-100736883D01*
X205643500Y-100534701D01*
X205643500Y-100329997D01*
X205611477Y-100127815D01*
X205609226Y-100120888D01*
X205553174Y-99948377D01*
X205548220Y-99933130D01*
X205548218Y-99933127D01*
X205548218Y-99933125D01*
X205514503Y-99866956D01*
X205455287Y-99750739D01*
X205447556Y-99740098D01*
X205334971Y-99585135D01*
X205190213Y-99440377D01*
X205024614Y-99320064D01*
X205018006Y-99316697D01*
X204931917Y-99272832D01*
X204881123Y-99224860D01*
X204864328Y-99157039D01*
X204886865Y-99090904D01*
X204931917Y-99051865D01*
X205024610Y-99004636D01*
X205045770Y-98989262D01*
X205190213Y-98884320D01*
X205190215Y-98884317D01*
X205190219Y-98884315D01*
X205334966Y-98739568D01*
X205334968Y-98739564D01*
X205334971Y-98739562D01*
X205423395Y-98617855D01*
X205455287Y-98573959D01*
X205548220Y-98391568D01*
X205611477Y-98196883D01*
X205643500Y-97994701D01*
X205643500Y-97789997D01*
X205638689Y-97759625D01*
X205611477Y-97587814D01*
X205558489Y-97424735D01*
X205548220Y-97393130D01*
X205548218Y-97393127D01*
X205548218Y-97393125D01*
X205514503Y-97326956D01*
X205455287Y-97210739D01*
X205423546Y-97167051D01*
X205334971Y-97045135D01*
X205190213Y-96900377D01*
X205024614Y-96780064D01*
X205018006Y-96776697D01*
X204931917Y-96732832D01*
X204881123Y-96684860D01*
X204864328Y-96617039D01*
X204886865Y-96550904D01*
X204931917Y-96511865D01*
X205024610Y-96464636D01*
X205095101Y-96413422D01*
X205190213Y-96344320D01*
X205190215Y-96344317D01*
X205190219Y-96344315D01*
X205334966Y-96199568D01*
X205334968Y-96199564D01*
X205334971Y-96199562D01*
X205394327Y-96117864D01*
X205455287Y-96033959D01*
X205548220Y-95851568D01*
X205611477Y-95656883D01*
X205643500Y-95454701D01*
X205643500Y-95249997D01*
X205618015Y-95089091D01*
X205611477Y-95047814D01*
X205576842Y-94941220D01*
X205548220Y-94853130D01*
X205548218Y-94853127D01*
X205548218Y-94853125D01*
X205500994Y-94760444D01*
X205455287Y-94670739D01*
X205391701Y-94583219D01*
X205334971Y-94505135D01*
X205190213Y-94360377D01*
X205024614Y-94240064D01*
X205015105Y-94235219D01*
X204931917Y-94192832D01*
X204881123Y-94144860D01*
X204864328Y-94077039D01*
X204886865Y-94010904D01*
X204931917Y-93971865D01*
X205024610Y-93924636D01*
X205143371Y-93838352D01*
X205190213Y-93804320D01*
X205190215Y-93804317D01*
X205190219Y-93804315D01*
X205334966Y-93659568D01*
X205334968Y-93659564D01*
X205334971Y-93659562D01*
X205409159Y-93557449D01*
X205455287Y-93493959D01*
X205548220Y-93311568D01*
X205611477Y-93116883D01*
X205643500Y-92914701D01*
X205643500Y-92709997D01*
X205611477Y-92507815D01*
X205611476Y-92507813D01*
X205548218Y-92313125D01*
X205491466Y-92201744D01*
X205455287Y-92130739D01*
X205447556Y-92120098D01*
X205334971Y-91965135D01*
X205190213Y-91820377D01*
X205024614Y-91700064D01*
X204974695Y-91674629D01*
X204931917Y-91652832D01*
X204881123Y-91604860D01*
X204864328Y-91537039D01*
X204886865Y-91470904D01*
X204931917Y-91431865D01*
X205024610Y-91384636D01*
X205045770Y-91369262D01*
X205190213Y-91264320D01*
X205190215Y-91264317D01*
X205190219Y-91264315D01*
X205334966Y-91119568D01*
X205334968Y-91119564D01*
X205334971Y-91119562D01*
X205427656Y-90991990D01*
X205455287Y-90953959D01*
X205548220Y-90771568D01*
X205611477Y-90576883D01*
X205643500Y-90374701D01*
X205643500Y-90169997D01*
X205611477Y-89967815D01*
X205548220Y-89773130D01*
X205548218Y-89773127D01*
X205548218Y-89773125D01*
X205484543Y-89648158D01*
X205455287Y-89590739D01*
X205432698Y-89559648D01*
X205334971Y-89425135D01*
X205190213Y-89280377D01*
X205024614Y-89160064D01*
X205018006Y-89156697D01*
X204931917Y-89112832D01*
X204881123Y-89064860D01*
X204864328Y-88997039D01*
X204886865Y-88930904D01*
X204931917Y-88891865D01*
X205024610Y-88844636D01*
X205081077Y-88803611D01*
X205190213Y-88724320D01*
X205190215Y-88724317D01*
X205190219Y-88724315D01*
X205334966Y-88579568D01*
X205334968Y-88579564D01*
X205334971Y-88579562D01*
X205424176Y-88456780D01*
X205455287Y-88413959D01*
X205548220Y-88231568D01*
X205611477Y-88036883D01*
X205643500Y-87834701D01*
X205643500Y-87629997D01*
X205611477Y-87427815D01*
X205548220Y-87233130D01*
X205548218Y-87233127D01*
X205548218Y-87233125D01*
X205498826Y-87136189D01*
X205455287Y-87050739D01*
X205420430Y-87002762D01*
X205334971Y-86885135D01*
X205190213Y-86740377D01*
X205024614Y-86620064D01*
X205018006Y-86616697D01*
X204931917Y-86572832D01*
X204881123Y-86524860D01*
X204864328Y-86457039D01*
X204886865Y-86390904D01*
X204931917Y-86351865D01*
X205024610Y-86304636D01*
X205045770Y-86289262D01*
X205190213Y-86184320D01*
X205190215Y-86184317D01*
X205190219Y-86184315D01*
X205334966Y-86039568D01*
X205334968Y-86039564D01*
X205334971Y-86039562D01*
X205400921Y-85948788D01*
X205455287Y-85873959D01*
X205548220Y-85691568D01*
X205611477Y-85496883D01*
X205643500Y-85294701D01*
X205643500Y-85089997D01*
X205611477Y-84887815D01*
X205548220Y-84693130D01*
X205548218Y-84693127D01*
X205548218Y-84693125D01*
X205502911Y-84604206D01*
X205455287Y-84510739D01*
X205447556Y-84500098D01*
X205334971Y-84345135D01*
X205268017Y-84278181D01*
X205234532Y-84216858D01*
X205239516Y-84147166D01*
X205281388Y-84091233D01*
X205346852Y-84066816D01*
X205355698Y-84066500D01*
X206138113Y-84066500D01*
X206205152Y-84086185D01*
X206225794Y-84102819D01*
X206727181Y-84604206D01*
X206760666Y-84665529D01*
X206763500Y-84691887D01*
X206763500Y-102536552D01*
X206763499Y-102536578D01*
X206763499Y-102690313D01*
X206772637Y-102736249D01*
X206783376Y-102790235D01*
X206783559Y-102791153D01*
X206792495Y-102836080D01*
X206806544Y-102869997D01*
X206849368Y-102973385D01*
X206849372Y-102973392D01*
X206931942Y-103096968D01*
X208053031Y-104218057D01*
X208053034Y-104218059D01*
X208176611Y-104300630D01*
X208257045Y-104333946D01*
X208313920Y-104357505D01*
X208338105Y-104362315D01*
X208386994Y-104372040D01*
X208459686Y-104386501D01*
X208459688Y-104386501D01*
X208614426Y-104386501D01*
X208614446Y-104386500D01*
X208619685Y-104386500D01*
X208686724Y-104406185D01*
X208720004Y-104437615D01*
X208773896Y-104511792D01*
X208924213Y-104662109D01*
X209096182Y-104787050D01*
X209104946Y-104791516D01*
X209155742Y-104839491D01*
X209172536Y-104907312D01*
X209149998Y-104973447D01*
X209104946Y-105012484D01*
X209096182Y-105016949D01*
X208924213Y-105141890D01*
X208773890Y-105292213D01*
X208648951Y-105464179D01*
X208552444Y-105653585D01*
X208486753Y-105855760D01*
X208467662Y-105976300D01*
X208453500Y-106065713D01*
X208453500Y-106278287D01*
X208486754Y-106488243D01*
X208546416Y-106671864D01*
X208552444Y-106690414D01*
X208648951Y-106879820D01*
X208773890Y-107051786D01*
X208924213Y-107202109D01*
X209096179Y-107327048D01*
X209096181Y-107327049D01*
X209096184Y-107327051D01*
X209285588Y-107423557D01*
X209487757Y-107489246D01*
X209697713Y-107522500D01*
X209697714Y-107522500D01*
X209910286Y-107522500D01*
X209910287Y-107522500D01*
X210120243Y-107489246D01*
X210322412Y-107423557D01*
X210511816Y-107327051D01*
X210616513Y-107250985D01*
X210683786Y-107202109D01*
X210683788Y-107202106D01*
X210683792Y-107202104D01*
X210834104Y-107051792D01*
X210834106Y-107051788D01*
X210834109Y-107051786D01*
X210959048Y-106879820D01*
X210959047Y-106879820D01*
X210959051Y-106879816D01*
X211055557Y-106690412D01*
X211121246Y-106488243D01*
X211154500Y-106278287D01*
X211154500Y-106065713D01*
X211121246Y-105855757D01*
X211055557Y-105653588D01*
X210959051Y-105464184D01*
X210959049Y-105464181D01*
X210959048Y-105464179D01*
X210834109Y-105292213D01*
X210683786Y-105141890D01*
X210511820Y-105016951D01*
X210511115Y-105016591D01*
X210503054Y-105012485D01*
X210452259Y-104964512D01*
X210435463Y-104896692D01*
X210457999Y-104830556D01*
X210503054Y-104791515D01*
X210511816Y-104787051D01*
X210595173Y-104726489D01*
X210683786Y-104662109D01*
X210683788Y-104662106D01*
X210683792Y-104662104D01*
X210834104Y-104511792D01*
X210834106Y-104511788D01*
X210834109Y-104511786D01*
X210959048Y-104339820D01*
X210959047Y-104339820D01*
X210959051Y-104339816D01*
X211055557Y-104150412D01*
X211121246Y-103948243D01*
X211154500Y-103738287D01*
X211154500Y-103525713D01*
X211121246Y-103315757D01*
X211055557Y-103113588D01*
X210959051Y-102924184D01*
X210959049Y-102924181D01*
X210959048Y-102924179D01*
X210834109Y-102752213D01*
X210683786Y-102601890D01*
X210511820Y-102476951D01*
X210511115Y-102476591D01*
X210503054Y-102472485D01*
X210452259Y-102424512D01*
X210435463Y-102356692D01*
X210457999Y-102290556D01*
X210503054Y-102251515D01*
X210511816Y-102247051D01*
X210568069Y-102206181D01*
X210683786Y-102122109D01*
X210683788Y-102122106D01*
X210683792Y-102122104D01*
X210834104Y-101971792D01*
X210834106Y-101971788D01*
X210834109Y-101971786D01*
X210959048Y-101799820D01*
X210959047Y-101799820D01*
X210959051Y-101799816D01*
X211055557Y-101610412D01*
X211121246Y-101408243D01*
X211154500Y-101198287D01*
X211154500Y-100985713D01*
X211121246Y-100775757D01*
X211055557Y-100573588D01*
X210959051Y-100384184D01*
X210959049Y-100384181D01*
X210959048Y-100384179D01*
X210834109Y-100212213D01*
X210683786Y-100061890D01*
X210511820Y-99936951D01*
X210511115Y-99936591D01*
X210503054Y-99932485D01*
X210452259Y-99884512D01*
X210435463Y-99816692D01*
X210457999Y-99750556D01*
X210503054Y-99711515D01*
X210511816Y-99707051D01*
X210560236Y-99671872D01*
X210683786Y-99582109D01*
X210683788Y-99582106D01*
X210683792Y-99582104D01*
X210834104Y-99431792D01*
X210834106Y-99431788D01*
X210834109Y-99431786D01*
X210959048Y-99259820D01*
X210959047Y-99259820D01*
X210959051Y-99259816D01*
X211055557Y-99070412D01*
X211121246Y-98868243D01*
X211154500Y-98658287D01*
X211154500Y-98445713D01*
X211121246Y-98235757D01*
X211055557Y-98033588D01*
X210959051Y-97844184D01*
X210959049Y-97844181D01*
X210959048Y-97844179D01*
X210834109Y-97672213D01*
X210683786Y-97521890D01*
X210511820Y-97396951D01*
X210511115Y-97396591D01*
X210503054Y-97392485D01*
X210452259Y-97344512D01*
X210435463Y-97276692D01*
X210457999Y-97210556D01*
X210503054Y-97171515D01*
X210511816Y-97167051D01*
X210584316Y-97114377D01*
X210683786Y-97042109D01*
X210683788Y-97042106D01*
X210683792Y-97042104D01*
X210834104Y-96891792D01*
X210834106Y-96891788D01*
X210834109Y-96891786D01*
X210959048Y-96719820D01*
X210959047Y-96719820D01*
X210959051Y-96719816D01*
X211055557Y-96530412D01*
X211121246Y-96328243D01*
X211154500Y-96118287D01*
X211154500Y-95905713D01*
X211121246Y-95695757D01*
X211055557Y-95493588D01*
X210959051Y-95304184D01*
X210959049Y-95304181D01*
X210959048Y-95304179D01*
X210834109Y-95132213D01*
X210683786Y-94981890D01*
X210511820Y-94856951D01*
X210322414Y-94760444D01*
X210322413Y-94760443D01*
X210322412Y-94760443D01*
X210120243Y-94694754D01*
X210120241Y-94694753D01*
X210120240Y-94694753D01*
X209958957Y-94669208D01*
X209910287Y-94661500D01*
X209697713Y-94661500D01*
X209649042Y-94669208D01*
X209487760Y-94694753D01*
X209285585Y-94760444D01*
X209096179Y-94856951D01*
X208924213Y-94981890D01*
X208773890Y-95132213D01*
X208648951Y-95304179D01*
X208552444Y-95493585D01*
X208514431Y-95610577D01*
X208474993Y-95668253D01*
X208410635Y-95695451D01*
X208341788Y-95683536D01*
X208290313Y-95636292D01*
X208272500Y-95572259D01*
X208272500Y-84408446D01*
X208272501Y-84408425D01*
X208272501Y-84253685D01*
X208243506Y-84107926D01*
X208243505Y-84107922D01*
X208241391Y-84102819D01*
X208226348Y-84066501D01*
X208194466Y-83989530D01*
X208186630Y-83970611D01*
X208104059Y-83847034D01*
X208104057Y-83847031D01*
X206982968Y-82725942D01*
X206941773Y-82698417D01*
X206859389Y-82643370D01*
X206859386Y-82643368D01*
X206859385Y-82643368D01*
X206778955Y-82610053D01*
X206722080Y-82586495D01*
X206720843Y-82586249D01*
X206697894Y-82581684D01*
X206576314Y-82557499D01*
X206576312Y-82557499D01*
X206427688Y-82557499D01*
X206421574Y-82557499D01*
X206421554Y-82557500D01*
X195689886Y-82557500D01*
X195622847Y-82537815D01*
X195602205Y-82521181D01*
X195227819Y-82146794D01*
X195194334Y-82085471D01*
X195191500Y-82059113D01*
X195191500Y-77994296D01*
X195200939Y-77946843D01*
X195206737Y-77932846D01*
X195237500Y-77778191D01*
X195237500Y-77620507D01*
X195237500Y-77620504D01*
X195237499Y-77620502D01*
X195206738Y-77465859D01*
X195206737Y-77465852D01*
X195206735Y-77465847D01*
X195146397Y-77320176D01*
X195146390Y-77320163D01*
X195058789Y-77189060D01*
X195058786Y-77189056D01*
X194947292Y-77077562D01*
X194947288Y-77077559D01*
X194816185Y-76989958D01*
X194816172Y-76989951D01*
X194670501Y-76929613D01*
X194670489Y-76929610D01*
X194515845Y-76898849D01*
X194515842Y-76898849D01*
X194358158Y-76898849D01*
X194358155Y-76898849D01*
X194203510Y-76929610D01*
X194203498Y-76929613D01*
X194057827Y-76989951D01*
X194057814Y-76989958D01*
X193926711Y-77077559D01*
X193926707Y-77077562D01*
X193815213Y-77189056D01*
X193815210Y-77189060D01*
X193727609Y-77320163D01*
X193727602Y-77320176D01*
X193667264Y-77465847D01*
X193667261Y-77465859D01*
X193636500Y-77620502D01*
X193636500Y-77778195D01*
X193667261Y-77932838D01*
X193667263Y-77932846D01*
X193673061Y-77946843D01*
X193682500Y-77994296D01*
X193682500Y-82343552D01*
X193682499Y-82343578D01*
X193682499Y-82497314D01*
X193702279Y-82596749D01*
X193711495Y-82643080D01*
X193711547Y-82643204D01*
X193711574Y-82643340D01*
X193711587Y-82643382D01*
X193711616Y-82643371D01*
X193768366Y-82780381D01*
X193768372Y-82780392D01*
X193850942Y-82903968D01*
X193850943Y-82903969D01*
X194735600Y-83788624D01*
X194735621Y-83788647D01*
X194845029Y-83898055D01*
X194845032Y-83898057D01*
X194845034Y-83898059D01*
X194927605Y-83953230D01*
X194968611Y-83980630D01*
X195049045Y-84013946D01*
X195105920Y-84037505D01*
X195105929Y-84037506D01*
X195105930Y-84037507D01*
X195130103Y-84042315D01*
X195130110Y-84042316D01*
X195251686Y-84066501D01*
X195251688Y-84066501D01*
X195406426Y-84066501D01*
X195406446Y-84066500D01*
X195710302Y-84066500D01*
X195777341Y-84086185D01*
X195823096Y-84138989D01*
X195833040Y-84208147D01*
X195804015Y-84271703D01*
X195797983Y-84278181D01*
X195731032Y-84345131D01*
X195731028Y-84345135D01*
X195610715Y-84510735D01*
X195517781Y-84693125D01*
X195454522Y-84887814D01*
X195422500Y-85089997D01*
X195422500Y-85294700D01*
X195454523Y-85496884D01*
X195454523Y-85496887D01*
X195503098Y-85646382D01*
X195505093Y-85716223D01*
X195469013Y-85776056D01*
X195406312Y-85806884D01*
X195385167Y-85808700D01*
X191123994Y-85808700D01*
X191002770Y-85832813D01*
X191002760Y-85832816D01*
X190888573Y-85880113D01*
X190888560Y-85880120D01*
X190785792Y-85948788D01*
X190785788Y-85948791D01*
X189187681Y-87546899D01*
X189126358Y-87580384D01*
X189056666Y-87575400D01*
X189000733Y-87533528D01*
X188976316Y-87468064D01*
X188976000Y-87459218D01*
X188976000Y-69818209D01*
X206299500Y-69818209D01*
X206299500Y-70181790D01*
X206335137Y-70543630D01*
X206406064Y-70900212D01*
X206406067Y-70900223D01*
X206511614Y-71248165D01*
X206650754Y-71584078D01*
X206650756Y-71584083D01*
X206822140Y-71904720D01*
X206822151Y-71904738D01*
X207024140Y-72207035D01*
X207024150Y-72207049D01*
X207254807Y-72488106D01*
X207511893Y-72745192D01*
X207511898Y-72745196D01*
X207511899Y-72745197D01*
X207792956Y-72975854D01*
X208095268Y-73177853D01*
X208095277Y-73177858D01*
X208095279Y-73177859D01*
X208415916Y-73349243D01*
X208415918Y-73349243D01*
X208415924Y-73349247D01*
X208751836Y-73488386D01*
X209099767Y-73593930D01*
X209099773Y-73593931D01*
X209099776Y-73593932D01*
X209099787Y-73593935D01*
X209456369Y-73664862D01*
X209818206Y-73700500D01*
X209818209Y-73700500D01*
X210181791Y-73700500D01*
X210181794Y-73700500D01*
X210543631Y-73664862D01*
X210613045Y-73651054D01*
X210900212Y-73593935D01*
X210900223Y-73593932D01*
X210900223Y-73593931D01*
X210900233Y-73593930D01*
X211248164Y-73488386D01*
X211584076Y-73349247D01*
X211904732Y-73177853D01*
X212207044Y-72975854D01*
X212488101Y-72745197D01*
X212745197Y-72488101D01*
X212975854Y-72207044D01*
X213177853Y-71904732D01*
X213349247Y-71584076D01*
X213488386Y-71248164D01*
X213593930Y-70900233D01*
X213593932Y-70900223D01*
X213593935Y-70900212D01*
X213664862Y-70543630D01*
X213700500Y-70181790D01*
X213700500Y-69818209D01*
X213664862Y-69456369D01*
X213593935Y-69099787D01*
X213593932Y-69099776D01*
X213593931Y-69099773D01*
X213593930Y-69099767D01*
X213488386Y-68751836D01*
X213349247Y-68415924D01*
X213177853Y-68095268D01*
X212975854Y-67792956D01*
X212745197Y-67511899D01*
X212745196Y-67511898D01*
X212745192Y-67511893D01*
X212488106Y-67254807D01*
X212207049Y-67024150D01*
X212207048Y-67024149D01*
X212207044Y-67024146D01*
X211904732Y-66822147D01*
X211904727Y-66822144D01*
X211904720Y-66822140D01*
X211584083Y-66650756D01*
X211584078Y-66650754D01*
X211248165Y-66511614D01*
X210900223Y-66406067D01*
X210900212Y-66406064D01*
X210543630Y-66335137D01*
X210271111Y-66308296D01*
X210181794Y-66299500D01*
X209818206Y-66299500D01*
X209735679Y-66307628D01*
X209456369Y-66335137D01*
X209099787Y-66406064D01*
X209099776Y-66406067D01*
X208751834Y-66511614D01*
X208415921Y-66650754D01*
X208415916Y-66650756D01*
X208095279Y-66822140D01*
X208095261Y-66822151D01*
X207792964Y-67024140D01*
X207792950Y-67024150D01*
X207511893Y-67254807D01*
X207254807Y-67511893D01*
X207024150Y-67792950D01*
X207024140Y-67792964D01*
X206822151Y-68095261D01*
X206822140Y-68095279D01*
X206650756Y-68415916D01*
X206650754Y-68415921D01*
X206511614Y-68751834D01*
X206406067Y-69099776D01*
X206406064Y-69099787D01*
X206335137Y-69456369D01*
X206299500Y-69818209D01*
X188976000Y-69818209D01*
X188976000Y-66075362D01*
X188995685Y-66008323D01*
X189012319Y-65987681D01*
X189463181Y-65536819D01*
X189524504Y-65503334D01*
X189550862Y-65500500D01*
X211934108Y-65500500D01*
X211996249Y-65500500D01*
X212003736Y-65500726D01*
G37*
%TD.AperFunction*%
%TD*%
M02*
