M48
; DRILL file {KiCad 9.0.2} date 2025-11-28T18:19:22-0800
; FORMAT={-:-/ absolute / metric / decimal}
; #@! TF.CreationDate,2025-11-28T18:19:22-08:00
; #@! TF.GenerationSoftware,Kicad,Pcbnew,9.0.2
; #@! TF.FileFunction,Plated,1,2,PTH
FMAT,2
METRIC
; #@! TA.AperFunction,Plated,PTH,ViaDrill
T1C0.300
; #@! TA.AperFunction,Plated,PTH,ComponentDrill
T2C0.800
; #@! TA.AperFunction,Plated,PTH,ComponentDrill
T3C0.813
; #@! TA.AperFunction,Plated,PTH,ComponentDrill
T4C1.000
; #@! TA.AperFunction,Plated,PTH,ComponentDrill
T5C1.200
; #@! TA.AperFunction,Plated,PTH,ComponentDrill
T6C1.300
; #@! TA.AperFunction,Plated,PTH,ComponentDrill
T7C1.600
; #@! TA.AperFunction,Plated,PTH,ComponentDrill
T8C3.200
%
G90
G05
T1
X131.572Y-123.063
X132.207Y-122.047
X163.068Y-108.501
X166.596Y-105.562
X167.968Y-104.648
X168.148Y-110.617
X170.231Y-102.87
X170.688Y-108.501
X173.228Y-108.501
X175.768Y-108.501
X177.622Y-105.08
X183.49Y-91.186
X189.738Y-80.01
X189.738Y-81.28
X194.437Y-77.699
X198.374Y-99.568
X198.374Y-104.216
X199.644Y-78.74
X199.898Y-99.949
X200.66Y-79.248
X201.295Y-93.472
X201.93Y-79.248
X207.518Y-78.74
T2
X126.263Y-102.216
X126.263Y-104.216
X137.922Y-93.736
X137.922Y-97.536
X140.716Y-125.324
X140.716Y-129.124
X148.59Y-74.422
X148.59Y-89.662
X192.903Y-93.106
X192.903Y-98.106
X192.903Y-100.94
X192.903Y-105.94
X196.723Y-85.192
X196.723Y-87.732
X196.723Y-90.272
X196.723Y-92.812
X196.723Y-95.352
X196.723Y-97.892
X196.723Y-100.432
X196.723Y-102.972
X196.723Y-105.512
X196.723Y-108.052
X196.723Y-110.592
X196.723Y-113.132
X196.723Y-115.672
X196.723Y-118.212
X200.66Y-123.673
X200.66Y-127.473
X204.343Y-85.192
X204.343Y-87.732
X204.343Y-90.272
X204.343Y-92.812
X204.343Y-95.352
X204.343Y-97.892
X204.343Y-100.432
X204.343Y-102.972
X204.343Y-105.512
X204.343Y-108.052
X204.343Y-110.592
X204.343Y-113.132
X204.343Y-115.672
X204.343Y-118.212
T3
X187.96Y-97.003
X187.96Y-101.829
T4
X142.367Y-110.49
X142.367Y-120.49
X155.448Y-132.08
X157.988Y-132.08
X160.528Y-132.08
X163.068Y-132.08
X165.608Y-132.08
X168.148Y-132.08
X170.688Y-132.08
X173.228Y-132.08
X175.768Y-132.08
X178.308Y-132.08
X188.468Y-125.476
X193.548Y-125.476
X209.804Y-96.012
X209.804Y-98.552
X209.804Y-101.092
X209.804Y-103.632
X209.804Y-106.172
X209.804Y-108.712
T5
X126.648Y-110.247
X126.648Y-118.757
X129.148Y-110.247
X129.148Y-118.757
X131.648Y-110.247
X131.648Y-118.757
X134.148Y-110.247
X134.148Y-118.757
X136.648Y-110.247
X136.648Y-118.757
T6
X154.512Y-76.937
X158.657Y-93.345
X159.512Y-76.937
X160.657Y-87.345
X160.657Y-99.345
X164.512Y-76.937
X169.512Y-76.937
X172.857Y-87.345
X172.857Y-99.345
X174.512Y-76.937
X179.512Y-76.937
T7
X144.018Y-77.724
X144.018Y-84.837
T8
X120.0Y-70.0
X120.0Y-130.0
X210.0Y-70.0
X210.0Y-130.0
M30
